<?xml version="1.0" encoding="UTF-8" standalone="no"?>
<!DOCTYPE svg PUBLIC "-//W3C//DTD SVG 1.1//EN"
 "http://www.w3.org/Graphics/SVG/1.1/DTD/svg11.dtd">
<!-- Generated by graphviz version 2.43.0 (0)
 -->
<!-- Title: %3 Pages: 1 -->
<svg width="866pt" height="238pt"
 viewBox="0.00 0.00 865.50 237.74" xmlns="http://www.w3.org/2000/svg" xmlns:xlink="http://www.w3.org/1999/xlink">
<g id="graph0" class="graph" transform="scale(1 1) rotate(0) translate(36 201.74)">
<title>%3</title>
<polygon fill="dimgray" stroke="transparent" points="-36,36 -36,-201.74 829.5,-201.74 829.5,36 -36,36"/>
<text text-anchor="middle" x="396.75" y="-150.54" font-family="Helvetica,sans-Serif" font-size="14.00">Sweep&#39;s Plan &amp; Progress</text>
<!-- start -->
<g id="node1" class="node">
<title>start</title>
</g>
<!-- 2132a887&#45;1060&#45;4cf9&#45;9558&#45;48e12033cbb6 -->
<g id="node3" class="node">
<title>2132a887&#45;1060&#45;4cf9&#45;9558&#45;48e12033cbb6</title>
<ellipse fill="#0ee832" stroke="black" cx="229" cy="-99.87" rx="119.5" ry="26.74"/>
<text text-anchor="middle" x="229" y="-103.67" font-family="Helvetica,sans-Serif" font-size="14.00">✓ Create</text>
<text text-anchor="middle" x="229" y="-88.67" font-family="Helvetica,sans-Serif" font-size="14.00">mc/connectionpool.go</text>
</g>
<!-- start&#45;&gt;2132a887&#45;1060&#45;4cf9&#45;9558&#45;48e12033cbb6 -->
<g id="edge4" class="edge">
<title>start&#45;&gt;2132a887&#45;1060&#45;4cf9&#45;9558&#45;48e12033cbb6</title>
<path fill="none" stroke="black" d="M57.77,-99.87C61.42,-99.87 77.8,-99.87 99.07,-99.87"/>
<polygon fill="black" stroke="black" points="99.17,-103.37 109.17,-99.87 99.17,-96.37 99.17,-103.37"/>
<text text-anchor="middle" x="83.5" y="-106.67" font-family="Helvetica,sans-Serif" font-size="14.00">Start</text>
</g>
<!-- end -->
<g id="node2" class="node">
<title>end</title>
</g>
<!-- b3ab1676&#45;e78b&#45;455d&#45;9b8c&#45;0f5080142f0a -->
<g id="node4" class="node">
<title>b3ab1676&#45;e78b&#45;455d&#45;9b8c&#45;0f5080142f0a</title>
<ellipse fill="white" stroke="black" cx="564" cy="-99.87" rx="155.63" ry="26.74"/>
<text text-anchor="middle" x="564" y="-103.67" font-family="Helvetica,sans-Serif" font-size="14.00">▶ Modify</text>
<text text-anchor="middle" x="564" y="-88.67" font-family="Helvetica,sans-Serif" font-size="14.00">core/method/methods/join.go</text>
</g>
<!-- 2132a887&#45;1060&#45;4cf9&#45;9558&#45;48e12033cbb6&#45;&gt;b3ab1676&#45;e78b&#45;455d&#45;9b8c&#45;0f5080142f0a -->
<g id="edge2" class="edge">
<title>2132a887&#45;1060&#45;4cf9&#45;9558&#45;48e12033cbb6&#45;&gt;b3ab1676&#45;e78b&#45;455d&#45;9b8c&#45;0f5080142f0a</title>
<path fill="none" stroke="black" d="M348.74,-99.87C365.1,-99.87 381.46,-99.87 397.83,-99.87"/>
<polygon fill="black" stroke="black" points="398.02,-103.37 408.02,-99.87 398.02,-96.37 398.02,-103.37"/>
</g>
<!-- 42f87a29&#45;bf30&#45;410c&#45;a4fc&#45;a0931e6a7bbc -->
<g id="node5" class="node">
<title>42f87a29&#45;bf30&#45;410c&#45;a4fc&#45;a0931e6a7bbc</title>
<polygon fill="yellow" stroke="black" points="364,-36 0,-36 0,0 364,0 364,-36"/>
<text text-anchor="middle" x="182" y="-14.3" font-family="Helvetica,sans-Serif" font-size="14.00">⋯ Run GitHub Actions for `mc/connectionpool.go`</text>
</g>
<!-- 2132a887&#45;1060&#45;4cf9&#45;9558&#45;48e12033cbb6&#45;&gt;42f87a29&#45;bf30&#45;410c&#45;a4fc&#45;a0931e6a7bbc -->
<g id="edge1" class="edge">
<title>2132a887&#45;1060&#45;4cf9&#45;9558&#45;48e12033cbb6&#45;&gt;42f87a29&#45;bf30&#45;410c&#45;a4fc&#45;a0931e6a7bbc</title>
<path fill="none" stroke="black" stroke-dasharray="5,2" d="M213.87,-73.16C208.61,-64.22 202.71,-54.2 197.43,-45.22"/>
<polygon fill="black" stroke="black" points="200.29,-43.18 192.2,-36.34 194.26,-46.73 200.29,-43.18"/>
</g>
<!-- b3ab1676&#45;e78b&#45;455d&#45;9b8c&#45;0f5080142f0a&#45;&gt;end -->
<g id="edge5" class="edge">
<title>b3ab1676&#45;e78b&#45;455d&#45;9b8c&#45;0f5080142f0a&#45;&gt;end</title>
<path fill="none" stroke="black" d="M719.81,-99.87C739.7,-99.87 756.72,-99.87 767.13,-99.87"/>
<polygon fill="black" stroke="black" points="767.35,-103.37 777.35,-99.87 767.35,-96.37 767.35,-103.37"/>
<text text-anchor="middle" x="748.53" y="-106.67" font-family="Helvetica,sans-Serif" font-size="14.00">Finish</text>
</g>
<!-- ad4d8497&#45;4075&#45;4266&#45;af48&#45;4127c6e5bdc5 -->
<g id="node6" class="node">
<title>ad4d8497&#45;4075&#45;4266&#45;af48&#45;4127c6e5bdc5</title>
<polygon fill="white" stroke="black" points="793.5,-36 382.5,-36 382.5,0 793.5,0 793.5,-36"/>
<text text-anchor="middle" x="588" y="-14.3" font-family="Helvetica,sans-Serif" font-size="14.00">▶ Run GitHub Actions for `core/method/methods/join.go`</text>
</g>
<!-- b3ab1676&#45;e78b&#45;455d&#45;9b8c&#45;0f5080142f0a&#45;&gt;ad4d8497&#45;4075&#45;4266&#45;af48&#45;4127c6e5bdc5 -->
<g id="edge3" class="edge">
<title>b3ab1676&#45;e78b&#45;455d&#45;9b8c&#45;0f5080142f0a&#45;&gt;ad4d8497&#45;4075&#45;4266&#45;af48&#45;4127c6e5bdc5</title>
<path fill="none" stroke="black" stroke-dasharray="5,2" d="M571.86,-72.72C574.45,-64.08 577.34,-54.47 579.95,-45.79"/>
<polygon fill="black" stroke="black" points="583.32,-46.73 582.85,-36.15 576.62,-44.72 583.32,-46.73"/>
</g>
</g>
</svg>
