<?xml version="1.0" encoding="UTF-8" standalone="no"?>
<!DOCTYPE svg PUBLIC "-//W3C//DTD SVG 1.1//EN"
 "http://www.w3.org/Graphics/SVG/1.1/DTD/svg11.dtd">
<!-- Generated by graphviz version 2.43.0 (0)
 -->
<!-- Title: %3 Pages: 1 -->
<svg width="2091pt" height="238pt"
 viewBox="0.00 0.00 2090.50 237.74" xmlns="http://www.w3.org/2000/svg" xmlns:xlink="http://www.w3.org/1999/xlink">
<g id="graph0" class="graph" transform="scale(1 1) rotate(0) translate(36 201.74)">
<title>%3</title>
<polygon fill="dimgray" stroke="transparent" points="-36,36 -36,-201.74 2054.5,-201.74 2054.5,36 -36,36"/>
<text text-anchor="middle" x="1009.25" y="-150.54" font-family="Helvetica,sans-Serif" font-size="14.00">Sweep&#39;s Plan &amp; Progress</text>
<!-- start -->
<g id="node1" class="node">
<title>start</title>
</g>
<!-- 71523996&#45;4dd6&#45;4465&#45;96ff&#45;a388ae7055fe -->
<g id="node3" class="node">
<title>71523996&#45;4dd6&#45;4465&#45;96ff&#45;a388ae7055fe</title>
<ellipse fill="#0ee832" stroke="black" cx="247.5" cy="-99.87" rx="155.63" ry="26.74"/>
<text text-anchor="middle" x="247.5" y="-103.67" font-family="Helvetica,sans-Serif" font-size="14.00">✓ Modify</text>
<text text-anchor="middle" x="247.5" y="-88.67" font-family="Helvetica,sans-Serif" font-size="14.00">core/method/methods/join.go</text>
</g>
<!-- start&#45;&gt;71523996&#45;4dd6&#45;4465&#45;96ff&#45;a388ae7055fe -->
<g id="edge10" class="edge">
<title>start&#45;&gt;71523996&#45;4dd6&#45;4465&#45;96ff&#45;a388ae7055fe</title>
<path fill="none" stroke="black" d="M40.1,-99.87C43.35,-99.87 59.57,-99.87 81.62,-99.87"/>
<polygon fill="black" stroke="black" points="81.78,-103.37 91.78,-99.87 81.78,-96.37 81.78,-103.37"/>
<text text-anchor="middle" x="65.97" y="-106.67" font-family="Helvetica,sans-Serif" font-size="14.00">Start</text>
</g>
<!-- end -->
<g id="node2" class="node">
<title>end</title>
</g>
<!-- 3be6269b&#45;f137&#45;4566&#45;b1a7&#45;de2b4bdd8a1b -->
<g id="node4" class="node">
<title>3be6269b&#45;f137&#45;4566&#45;b1a7&#45;de2b4bdd8a1b</title>
<ellipse fill="white" stroke="black" cx="639.5" cy="-99.87" rx="159.61" ry="26.74"/>
<text text-anchor="middle" x="639.5" y="-103.67" font-family="Helvetica,sans-Serif" font-size="14.00">▶ Modify</text>
<text text-anchor="middle" x="639.5" y="-88.67" font-family="Helvetica,sans-Serif" font-size="14.00">core/method/methods/ping.go</text>
</g>
<!-- 71523996&#45;4dd6&#45;4465&#45;96ff&#45;a388ae7055fe&#45;&gt;3be6269b&#45;f137&#45;4566&#45;b1a7&#45;de2b4bdd8a1b -->
<g id="edge2" class="edge">
<title>71523996&#45;4dd6&#45;4465&#45;96ff&#45;a388ae7055fe&#45;&gt;3be6269b&#45;f137&#45;4566&#45;b1a7&#45;de2b4bdd8a1b</title>
<path fill="none" stroke="black" d="M403.3,-99.87C425.31,-99.87 447.31,-99.87 469.31,-99.87"/>
<polygon fill="black" stroke="black" points="469.42,-103.37 479.42,-99.87 469.42,-96.37 469.42,-103.37"/>
</g>
<!-- 6eff820b&#45;0f38&#45;4da1&#45;98af&#45;f7eefcab3665 -->
<g id="node8" class="node">
<title>6eff820b&#45;0f38&#45;4da1&#45;98af&#45;f7eefcab3665</title>
<polygon fill="#0ee832" stroke="black" points="413,-36 0,-36 0,0 413,0 413,-36"/>
<text text-anchor="middle" x="206.5" y="-14.3" font-family="Helvetica,sans-Serif" font-size="14.00">✓ Run GitHub Actions for `core/method/methods/join.go`</text>
</g>
<!-- 71523996&#45;4dd6&#45;4465&#45;96ff&#45;a388ae7055fe&#45;&gt;6eff820b&#45;0f38&#45;4da1&#45;98af&#45;f7eefcab3665 -->
<g id="edge1" class="edge">
<title>71523996&#45;4dd6&#45;4465&#45;96ff&#45;a388ae7055fe&#45;&gt;6eff820b&#45;0f38&#45;4da1&#45;98af&#45;f7eefcab3665</title>
<path fill="none" stroke="black" stroke-dasharray="5,2" d="M234.08,-72.72C229.55,-63.9 224.49,-54.05 219.96,-45.23"/>
<polygon fill="black" stroke="black" points="222.98,-43.44 215.3,-36.15 216.75,-46.64 222.98,-43.44"/>
</g>
<!-- 7a7fec94&#45;fc67&#45;4eb6&#45;bd10&#45;a7633ba29834 -->
<g id="node5" class="node">
<title>7a7fec94&#45;fc67&#45;4eb6&#45;bd10&#45;a7633ba29834</title>
<ellipse fill="white" stroke="black" cx="1077.5" cy="-99.87" rx="163.18" ry="26.74"/>
<text text-anchor="middle" x="1077.5" y="-103.67" font-family="Helvetica,sans-Serif" font-size="14.00">▶ Modify</text>
<text text-anchor="middle" x="1077.5" y="-88.67" font-family="Helvetica,sans-Serif" font-size="14.00">core/method/methods/motd.go</text>
</g>
<!-- 3be6269b&#45;f137&#45;4566&#45;b1a7&#45;de2b4bdd8a1b&#45;&gt;7a7fec94&#45;fc67&#45;4eb6&#45;bd10&#45;a7633ba29834 -->
<g id="edge4" class="edge">
<title>3be6269b&#45;f137&#45;4566&#45;b1a7&#45;de2b4bdd8a1b&#45;&gt;7a7fec94&#45;fc67&#45;4eb6&#45;bd10&#45;a7633ba29834</title>
<path fill="none" stroke="black" d="M799.47,-99.87C834.23,-99.87 869,-99.87 903.76,-99.87"/>
<polygon fill="black" stroke="black" points="904.05,-103.37 914.05,-99.87 904.05,-96.37 904.05,-103.37"/>
</g>
<!-- f948e245&#45;66a8&#45;4c0e&#45;becc&#45;137dac0f894b -->
<g id="node9" class="node">
<title>f948e245&#45;66a8&#45;4c0e&#45;becc&#45;137dac0f894b</title>
<polygon fill="white" stroke="black" points="848,-36 431,-36 431,0 848,0 848,-36"/>
<text text-anchor="middle" x="639.5" y="-14.3" font-family="Helvetica,sans-Serif" font-size="14.00">▶ Run GitHub Actions for `core/method/methods/ping.go`</text>
</g>
<!-- 3be6269b&#45;f137&#45;4566&#45;b1a7&#45;de2b4bdd8a1b&#45;&gt;f948e245&#45;66a8&#45;4c0e&#45;becc&#45;137dac0f894b -->
<g id="edge3" class="edge">
<title>3be6269b&#45;f137&#45;4566&#45;b1a7&#45;de2b4bdd8a1b&#45;&gt;f948e245&#45;66a8&#45;4c0e&#45;becc&#45;137dac0f894b</title>
<path fill="none" stroke="black" stroke-dasharray="5,2" d="M639.5,-72.72C639.5,-64.27 639.5,-54.89 639.5,-46.36"/>
<polygon fill="black" stroke="black" points="643,-46.15 639.5,-36.15 636,-46.15 643,-46.15"/>
</g>
<!-- 8fedc09a&#45;b74e&#45;4234&#45;991b&#45;4c67c07e34b2 -->
<g id="node6" class="node">
<title>8fedc09a&#45;b74e&#45;4234&#45;991b&#45;4c67c07e34b2</title>
<ellipse fill="white" stroke="black" cx="1478.5" cy="-99.87" rx="107.46" ry="26.74"/>
<text text-anchor="middle" x="1478.5" y="-103.67" font-family="Helvetica,sans-Serif" font-size="14.00">▶ Modify</text>
<text text-anchor="middle" x="1478.5" y="-88.67" font-family="Helvetica,sans-Serif" font-size="14.00">core/proxy/proxy.go</text>
</g>
<!-- 7a7fec94&#45;fc67&#45;4eb6&#45;bd10&#45;a7633ba29834&#45;&gt;8fedc09a&#45;b74e&#45;4234&#45;991b&#45;4c67c07e34b2 -->
<g id="edge6" class="edge">
<title>7a7fec94&#45;fc67&#45;4eb6&#45;bd10&#45;a7633ba29834&#45;&gt;8fedc09a&#45;b74e&#45;4234&#45;991b&#45;4c67c07e34b2</title>
<path fill="none" stroke="black" d="M1241.19,-99.87C1281.07,-99.87 1320.95,-99.87 1360.83,-99.87"/>
<polygon fill="black" stroke="black" points="1360.97,-103.37 1370.97,-99.87 1360.97,-96.37 1360.97,-103.37"/>
</g>
<!-- 2a20199f&#45;cdc6&#45;498d&#45;8ed1&#45;1029ffffe595 -->
<g id="node10" class="node">
<title>2a20199f&#45;cdc6&#45;498d&#45;8ed1&#45;1029ffffe595</title>
<polygon fill="white" stroke="black" points="1288.5,-36 866.5,-36 866.5,0 1288.5,0 1288.5,-36"/>
<text text-anchor="middle" x="1077.5" y="-14.3" font-family="Helvetica,sans-Serif" font-size="14.00">▶ Run GitHub Actions for `core/method/methods/motd.go`</text>
</g>
<!-- 7a7fec94&#45;fc67&#45;4eb6&#45;bd10&#45;a7633ba29834&#45;&gt;2a20199f&#45;cdc6&#45;498d&#45;8ed1&#45;1029ffffe595 -->
<g id="edge5" class="edge">
<title>7a7fec94&#45;fc67&#45;4eb6&#45;bd10&#45;a7633ba29834&#45;&gt;2a20199f&#45;cdc6&#45;498d&#45;8ed1&#45;1029ffffe595</title>
<path fill="none" stroke="black" stroke-dasharray="5,2" d="M1077.5,-72.72C1077.5,-64.27 1077.5,-54.89 1077.5,-46.36"/>
<polygon fill="black" stroke="black" points="1081,-46.15 1077.5,-36.15 1074,-46.15 1081,-46.15"/>
</g>
<!-- 036eea3e&#45;1e02&#45;40ed&#45;84f0&#45;74e5e02f3223 -->
<g id="node7" class="node">
<title>036eea3e&#45;1e02&#45;40ed&#45;84f0&#45;74e5e02f3223</title>
<ellipse fill="white" stroke="black" cx="1788.5" cy="-99.87" rx="111.95" ry="26.74"/>
<text text-anchor="middle" x="1788.5" y="-103.67" font-family="Helvetica,sans-Serif" font-size="14.00">▶ Modify</text>
<text text-anchor="middle" x="1788.5" y="-88.67" font-family="Helvetica,sans-Serif" font-size="14.00">core/proxy/helper.go</text>
</g>
<!-- 8fedc09a&#45;b74e&#45;4234&#45;991b&#45;4c67c07e34b2&#45;&gt;036eea3e&#45;1e02&#45;40ed&#45;84f0&#45;74e5e02f3223 -->
<g id="edge8" class="edge">
<title>8fedc09a&#45;b74e&#45;4234&#45;991b&#45;4c67c07e34b2&#45;&gt;036eea3e&#45;1e02&#45;40ed&#45;84f0&#45;74e5e02f3223</title>
<path fill="none" stroke="black" d="M1586.27,-99.87C1613.01,-99.87 1639.74,-99.87 1666.48,-99.87"/>
<polygon fill="black" stroke="black" points="1666.72,-103.37 1676.72,-99.87 1666.72,-96.37 1666.72,-103.37"/>
</g>
<!-- a576195c&#45;4cb6&#45;4d95&#45;a0d6&#45;531926cf27b2 -->
<g id="node11" class="node">
<title>a576195c&#45;4cb6&#45;4d95&#45;a0d6&#45;531926cf27b2</title>
<polygon fill="white" stroke="black" points="1650.5,-36 1306.5,-36 1306.5,0 1650.5,0 1650.5,-36"/>
<text text-anchor="middle" x="1478.5" y="-14.3" font-family="Helvetica,sans-Serif" font-size="14.00">▶ Run GitHub Actions for `core/proxy/proxy.go`</text>
</g>
<!-- 8fedc09a&#45;b74e&#45;4234&#45;991b&#45;4c67c07e34b2&#45;&gt;a576195c&#45;4cb6&#45;4d95&#45;a0d6&#45;531926cf27b2 -->
<g id="edge7" class="edge">
<title>8fedc09a&#45;b74e&#45;4234&#45;991b&#45;4c67c07e34b2&#45;&gt;a576195c&#45;4cb6&#45;4d95&#45;a0d6&#45;531926cf27b2</title>
<path fill="none" stroke="black" stroke-dasharray="5,2" d="M1478.5,-72.72C1478.5,-64.27 1478.5,-54.89 1478.5,-46.36"/>
<polygon fill="black" stroke="black" points="1482,-46.15 1478.5,-36.15 1475,-46.15 1482,-46.15"/>
</g>
<!-- 036eea3e&#45;1e02&#45;40ed&#45;84f0&#45;74e5e02f3223&#45;&gt;end -->
<g id="edge11" class="edge">
<title>036eea3e&#45;1e02&#45;40ed&#45;84f0&#45;74e5e02f3223&#45;&gt;end</title>
<path fill="none" stroke="black" d="M1900.47,-99.87C1919.85,-99.87 1937.14,-99.87 1947.71,-99.87"/>
<polygon fill="black" stroke="black" points="1947.83,-103.37 1957.83,-99.87 1947.83,-96.37 1947.83,-103.37"/>
<text text-anchor="middle" x="1929.11" y="-106.67" font-family="Helvetica,sans-Serif" font-size="14.00">Finish</text>
</g>
<!-- 903674b3&#45;447b&#45;44af&#45;aa3c&#45;90adbeda0dca -->
<g id="node12" class="node">
<title>903674b3&#45;447b&#45;44af&#45;aa3c&#45;90adbeda0dca</title>
<polygon fill="white" stroke="black" points="2018.5,-36 1668.5,-36 1668.5,0 2018.5,0 2018.5,-36"/>
<text text-anchor="middle" x="1843.5" y="-14.3" font-family="Helvetica,sans-Serif" font-size="14.00">▶ Run GitHub Actions for `core/proxy/helper.go`</text>
</g>
<!-- 036eea3e&#45;1e02&#45;40ed&#45;84f0&#45;74e5e02f3223&#45;&gt;903674b3&#45;447b&#45;44af&#45;aa3c&#45;90adbeda0dca -->
<g id="edge9" class="edge">
<title>036eea3e&#45;1e02&#45;40ed&#45;84f0&#45;74e5e02f3223&#45;&gt;903674b3&#45;447b&#45;44af&#45;aa3c&#45;90adbeda0dca</title>
<path fill="none" stroke="black" stroke-dasharray="5,2" d="M1806.21,-73.16C1812.49,-64.04 1819.55,-53.77 1825.83,-44.65"/>
<polygon fill="black" stroke="black" points="1828.77,-46.56 1831.56,-36.34 1823.01,-42.59 1828.77,-46.56"/>
</g>
</g>
</svg>
