<?xml version="1.0" encoding="UTF-8" standalone="no"?>
<!DOCTYPE svg PUBLIC "-//W3C//DTD SVG 1.1//EN"
 "http://www.w3.org/Graphics/SVG/1.1/DTD/svg11.dtd">
<!-- Generated by graphviz version 2.43.0 (0)
 -->
<!-- Title: %3 Pages: 1 -->
<svg width="1473pt" height="165pt"
 viewBox="0.00 0.00 1473.00 164.74" xmlns="http://www.w3.org/2000/svg" xmlns:xlink="http://www.w3.org/1999/xlink">
<g id="graph0" class="graph" transform="scale(1 1) rotate(0) translate(36 128.74)">
<title>%3</title>
<polygon fill="dimgray" stroke="transparent" points="-36,36 -36,-128.74 1437,-128.74 1437,36 -36,36"/>
<text text-anchor="middle" x="700.5" y="-77.54" font-family="Helvetica,sans-Serif" font-size="14.00">Sweep&#39;s Plan &amp; Progress</text>
<!-- start -->
<g id="node1" class="node">
<title>start</title>
</g>
<!-- 7011bb3b&#45;e21a&#45;4ce2&#45;8ede&#45;a0dce2802216 -->
<g id="node3" class="node">
<title>7011bb3b&#45;e21a&#45;4ce2&#45;8ede&#45;a0dce2802216</title>
<ellipse fill="yellow" stroke="black" cx="212.5" cy="-26.87" rx="159.61" ry="26.74"/>
<text text-anchor="middle" x="212.5" y="-30.67" font-family="Helvetica,sans-Serif" font-size="14.00">⋯ Modify</text>
<text text-anchor="middle" x="212.5" y="-15.67" font-family="Helvetica,sans-Serif" font-size="14.00">core/method/methods/ping.go</text>
</g>
<!-- start&#45;&gt;7011bb3b&#45;e21a&#45;4ce2&#45;8ede&#45;a0dce2802216 -->
<g id="edge4" class="edge">
<title>start&#45;&gt;7011bb3b&#45;e21a&#45;4ce2&#45;8ede&#45;a0dce2802216</title>
<path fill="none" stroke="black" d="M1.11,-26.87C4.37,-26.87 20.43,-26.87 42.36,-26.87"/>
<polygon fill="black" stroke="black" points="42.46,-30.37 52.46,-26.87 42.46,-23.37 42.46,-30.37"/>
<text text-anchor="middle" x="26.85" y="-33.67" font-family="Helvetica,sans-Serif" font-size="14.00">Start</text>
</g>
<!-- end -->
<g id="node2" class="node">
<title>end</title>
</g>
<!-- 51032408&#45;5ec6&#45;4f0a&#45;8d20&#45;487f5bf0a39b -->
<g id="node4" class="node">
<title>51032408&#45;5ec6&#45;4f0a&#45;8d20&#45;487f5bf0a39b</title>
<ellipse fill="white" stroke="black" cx="571.5" cy="-26.87" rx="163.18" ry="26.74"/>
<text text-anchor="middle" x="571.5" y="-30.67" font-family="Helvetica,sans-Serif" font-size="14.00">▶ Modify</text>
<text text-anchor="middle" x="571.5" y="-15.67" font-family="Helvetica,sans-Serif" font-size="14.00">core/method/methods/motd.go</text>
</g>
<!-- 7011bb3b&#45;e21a&#45;4ce2&#45;8ede&#45;a0dce2802216&#45;&gt;51032408&#45;5ec6&#45;4f0a&#45;8d20&#45;487f5bf0a39b -->
<g id="edge1" class="edge">
<title>7011bb3b&#45;e21a&#45;4ce2&#45;8ede&#45;a0dce2802216&#45;&gt;51032408&#45;5ec6&#45;4f0a&#45;8d20&#45;487f5bf0a39b</title>
<path fill="none" stroke="black" d="M372.37,-26.87C380.94,-26.87 389.51,-26.87 398.09,-26.87"/>
<polygon fill="black" stroke="black" points="398.15,-30.37 408.15,-26.87 398.15,-23.37 398.15,-30.37"/>
</g>
<!-- 74f68827&#45;fb2e&#45;4fcb&#45;b1aa&#45;9aaa90be9e45 -->
<g id="node5" class="node">
<title>74f68827&#45;fb2e&#45;4fcb&#45;b1aa&#45;9aaa90be9e45</title>
<ellipse fill="white" stroke="black" cx="925.5" cy="-26.87" rx="155.63" ry="26.74"/>
<text text-anchor="middle" x="925.5" y="-30.67" font-family="Helvetica,sans-Serif" font-size="14.00">▶ Modify</text>
<text text-anchor="middle" x="925.5" y="-15.67" font-family="Helvetica,sans-Serif" font-size="14.00">core/method/methods/join.go</text>
</g>
<!-- 51032408&#45;5ec6&#45;4f0a&#45;8d20&#45;487f5bf0a39b&#45;&gt;74f68827&#45;fb2e&#45;4fcb&#45;b1aa&#45;9aaa90be9e45 -->
<g id="edge2" class="edge">
<title>51032408&#45;5ec6&#45;4f0a&#45;8d20&#45;487f5bf0a39b&#45;&gt;74f68827&#45;fb2e&#45;4fcb&#45;b1aa&#45;9aaa90be9e45</title>
<path fill="none" stroke="black" d="M735.02,-26.87C743.22,-26.87 751.42,-26.87 759.62,-26.87"/>
<polygon fill="black" stroke="black" points="759.62,-30.37 769.62,-26.87 759.62,-23.37 759.62,-30.37"/>
</g>
<!-- 3258a9af&#45;4fa5&#45;46dc&#45;b28e&#45;91af73dfc1e6 -->
<g id="node6" class="node">
<title>3258a9af&#45;4fa5&#45;46dc&#45;b28e&#45;91af73dfc1e6</title>
<ellipse fill="white" stroke="black" cx="1229.5" cy="-26.87" rx="113.27" ry="26.74"/>
<text text-anchor="middle" x="1229.5" y="-30.67" font-family="Helvetica,sans-Serif" font-size="14.00">▶ Modify</text>
<text text-anchor="middle" x="1229.5" y="-15.67" font-family="Helvetica,sans-Serif" font-size="14.00">mc/packet/packet.go</text>
</g>
<!-- 74f68827&#45;fb2e&#45;4fcb&#45;b1aa&#45;9aaa90be9e45&#45;&gt;3258a9af&#45;4fa5&#45;46dc&#45;b28e&#45;91af73dfc1e6 -->
<g id="edge3" class="edge">
<title>74f68827&#45;fb2e&#45;4fcb&#45;b1aa&#45;9aaa90be9e45&#45;&gt;3258a9af&#45;4fa5&#45;46dc&#45;b28e&#45;91af73dfc1e6</title>
<path fill="none" stroke="black" d="M1081.36,-26.87C1089.59,-26.87 1097.82,-26.87 1106.04,-26.87"/>
<polygon fill="black" stroke="black" points="1106.08,-30.37 1116.08,-26.87 1106.08,-23.37 1106.08,-30.37"/>
</g>
<!-- 3258a9af&#45;4fa5&#45;46dc&#45;b28e&#45;91af73dfc1e6&#45;&gt;end -->
<g id="edge5" class="edge">
<title>3258a9af&#45;4fa5&#45;46dc&#45;b28e&#45;91af73dfc1e6&#45;&gt;end</title>
<path fill="none" stroke="black" d="M1343.08,-26.87C1362.09,-26.87 1379.02,-26.87 1389.48,-26.87"/>
<polygon fill="black" stroke="black" points="1389.84,-30.37 1399.84,-26.87 1389.84,-23.37 1389.84,-30.37"/>
<text text-anchor="middle" x="1371.32" y="-33.67" font-family="Helvetica,sans-Serif" font-size="14.00">Finish</text>
</g>
</g>
</svg>
