<?xml version="1.0" encoding="UTF-8" standalone="no"?>
<!DOCTYPE svg PUBLIC "-//W3C//DTD SVG 1.1//EN"
 "http://www.w3.org/Graphics/SVG/1.1/DTD/svg11.dtd">
<!-- Generated by graphviz version 2.43.0 (0)
 -->
<!-- Title: %3 Pages: 1 -->
<svg width="1650pt" height="238pt"
 viewBox="0.00 0.00 1649.50 237.74" xmlns="http://www.w3.org/2000/svg" xmlns:xlink="http://www.w3.org/1999/xlink">
<g id="graph0" class="graph" transform="scale(1 1) rotate(0) translate(36 201.74)">
<title>%3</title>
<polygon fill="dimgray" stroke="transparent" points="-36,36 -36,-201.74 1613.5,-201.74 1613.5,36 -36,36"/>
<text text-anchor="middle" x="788.75" y="-150.54" font-family="Helvetica,sans-Serif" font-size="14.00">Sweep&#39;s Plan &amp; Progress</text>
<!-- start -->
<g id="node1" class="node">
<title>start</title>
</g>
<!-- 121be873&#45;59f2&#45;49e6&#45;8113&#45;dab1ff6e2c98 -->
<g id="node3" class="node">
<title>121be873&#45;59f2&#45;49e6&#45;8113&#45;dab1ff6e2c98</title>
<ellipse fill="#0ee832" stroke="black" cx="247.5" cy="-99.87" rx="155.63" ry="26.74"/>
<text text-anchor="middle" x="247.5" y="-103.67" font-family="Helvetica,sans-Serif" font-size="14.00">✓ Modify</text>
<text text-anchor="middle" x="247.5" y="-88.67" font-family="Helvetica,sans-Serif" font-size="14.00">core/method/methods/join.go</text>
</g>
<!-- start&#45;&gt;121be873&#45;59f2&#45;49e6&#45;8113&#45;dab1ff6e2c98 -->
<g id="edge8" class="edge">
<title>start&#45;&gt;121be873&#45;59f2&#45;49e6&#45;8113&#45;dab1ff6e2c98</title>
<path fill="none" stroke="black" d="M40.1,-99.87C43.35,-99.87 59.57,-99.87 81.62,-99.87"/>
<polygon fill="black" stroke="black" points="81.78,-103.37 91.78,-99.87 81.78,-96.37 81.78,-103.37"/>
<text text-anchor="middle" x="65.97" y="-106.67" font-family="Helvetica,sans-Serif" font-size="14.00">Start</text>
</g>
<!-- end -->
<g id="node2" class="node">
<title>end</title>
</g>
<!-- d58e2f87&#45;7b54&#45;486a&#45;ac87&#45;24237cf2b6b0 -->
<g id="node4" class="node">
<title>d58e2f87&#45;7b54&#45;486a&#45;ac87&#45;24237cf2b6b0</title>
<ellipse fill="#0ee832" stroke="black" cx="643.5" cy="-99.87" rx="163.18" ry="26.74"/>
<text text-anchor="middle" x="643.5" y="-103.67" font-family="Helvetica,sans-Serif" font-size="14.00">✓ Modify</text>
<text text-anchor="middle" x="643.5" y="-88.67" font-family="Helvetica,sans-Serif" font-size="14.00">core/method/methods/motd.go</text>
</g>
<!-- 121be873&#45;59f2&#45;49e6&#45;8113&#45;dab1ff6e2c98&#45;&gt;d58e2f87&#45;7b54&#45;486a&#45;ac87&#45;24237cf2b6b0 -->
<g id="edge2" class="edge">
<title>121be873&#45;59f2&#45;49e6&#45;8113&#45;dab1ff6e2c98&#45;&gt;d58e2f87&#45;7b54&#45;486a&#45;ac87&#45;24237cf2b6b0</title>
<path fill="none" stroke="black" d="M403.35,-99.87C425.45,-99.87 447.55,-99.87 469.65,-99.87"/>
<polygon fill="black" stroke="black" points="469.8,-103.37 479.8,-99.87 469.8,-96.37 469.8,-103.37"/>
</g>
<!-- 8d0cb66c&#45;ea6f&#45;4b01&#45;becb&#45;f8746578608b -->
<g id="node7" class="node">
<title>8d0cb66c&#45;ea6f&#45;4b01&#45;becb&#45;f8746578608b</title>
<polygon fill="#0ee832" stroke="black" points="413,-36 0,-36 0,0 413,0 413,-36"/>
<text text-anchor="middle" x="206.5" y="-14.3" font-family="Helvetica,sans-Serif" font-size="14.00">✓ Run GitHub Actions for `core/method/methods/join.go`</text>
</g>
<!-- 121be873&#45;59f2&#45;49e6&#45;8113&#45;dab1ff6e2c98&#45;&gt;8d0cb66c&#45;ea6f&#45;4b01&#45;becb&#45;f8746578608b -->
<g id="edge1" class="edge">
<title>121be873&#45;59f2&#45;49e6&#45;8113&#45;dab1ff6e2c98&#45;&gt;8d0cb66c&#45;ea6f&#45;4b01&#45;becb&#45;f8746578608b</title>
<path fill="none" stroke="black" stroke-dasharray="5,2" d="M234.08,-72.72C229.55,-63.9 224.49,-54.05 219.96,-45.23"/>
<polygon fill="black" stroke="black" points="222.98,-43.44 215.3,-36.15 216.75,-46.64 222.98,-43.44"/>
</g>
<!-- 52ea50e1&#45;da82&#45;482d&#45;abe4&#45;146714f16b49 -->
<g id="node5" class="node">
<title>52ea50e1&#45;da82&#45;482d&#45;abe4&#45;146714f16b49</title>
<ellipse fill="#0ee832" stroke="black" cx="1084.5" cy="-99.87" rx="159.61" ry="26.74"/>
<text text-anchor="middle" x="1084.5" y="-103.67" font-family="Helvetica,sans-Serif" font-size="14.00">✓ Modify</text>
<text text-anchor="middle" x="1084.5" y="-88.67" font-family="Helvetica,sans-Serif" font-size="14.00">core/method/methods/ping.go</text>
</g>
<!-- d58e2f87&#45;7b54&#45;486a&#45;ac87&#45;24237cf2b6b0&#45;&gt;52ea50e1&#45;da82&#45;482d&#45;abe4&#45;146714f16b49 -->
<g id="edge4" class="edge">
<title>d58e2f87&#45;7b54&#45;486a&#45;ac87&#45;24237cf2b6b0&#45;&gt;52ea50e1&#45;da82&#45;482d&#45;abe4&#45;146714f16b49</title>
<path fill="none" stroke="black" d="M807.15,-99.87C842.89,-99.87 878.62,-99.87 914.35,-99.87"/>
<polygon fill="black" stroke="black" points="914.43,-103.37 924.43,-99.87 914.43,-96.37 914.43,-103.37"/>
</g>
<!-- f4ba2493&#45;bc90&#45;4ec7&#45;9fae&#45;f0d44c18eb09 -->
<g id="node8" class="node">
<title>f4ba2493&#45;bc90&#45;4ec7&#45;9fae&#45;f0d44c18eb09</title>
<polygon fill="#0ee832" stroke="black" points="855.5,-36 431.5,-36 431.5,0 855.5,0 855.5,-36"/>
<text text-anchor="middle" x="643.5" y="-14.3" font-family="Helvetica,sans-Serif" font-size="14.00">✓ Run GitHub Actions for `core/method/methods/motd.go`</text>
</g>
<!-- d58e2f87&#45;7b54&#45;486a&#45;ac87&#45;24237cf2b6b0&#45;&gt;f4ba2493&#45;bc90&#45;4ec7&#45;9fae&#45;f0d44c18eb09 -->
<g id="edge3" class="edge">
<title>d58e2f87&#45;7b54&#45;486a&#45;ac87&#45;24237cf2b6b0&#45;&gt;f4ba2493&#45;bc90&#45;4ec7&#45;9fae&#45;f0d44c18eb09</title>
<path fill="none" stroke="black" stroke-dasharray="5,2" d="M643.5,-72.72C643.5,-64.27 643.5,-54.89 643.5,-46.36"/>
<polygon fill="black" stroke="black" points="647,-46.15 643.5,-36.15 640,-46.15 647,-46.15"/>
</g>
<!-- 250d9ded&#45;493a&#45;4de5&#45;b17b&#45;5a76eee0bf5a -->
<g id="node6" class="node">
<title>250d9ded&#45;493a&#45;4de5&#45;b17b&#45;5a76eee0bf5a</title>
<ellipse fill="white" stroke="black" cx="1390.5" cy="-99.87" rx="54.39" ry="26.74"/>
<text text-anchor="middle" x="1390.5" y="-103.67" font-family="Helvetica,sans-Serif" font-size="14.00">▶ Modify</text>
<text text-anchor="middle" x="1390.5" y="-88.67" font-family="Helvetica,sans-Serif" font-size="14.00">main.go</text>
</g>
<!-- 52ea50e1&#45;da82&#45;482d&#45;abe4&#45;146714f16b49&#45;&gt;250d9ded&#45;493a&#45;4de5&#45;b17b&#45;5a76eee0bf5a -->
<g id="edge6" class="edge">
<title>52ea50e1&#45;da82&#45;482d&#45;abe4&#45;146714f16b49&#45;&gt;250d9ded&#45;493a&#45;4de5&#45;b17b&#45;5a76eee0bf5a</title>
<path fill="none" stroke="black" d="M1244.37,-99.87C1271.57,-99.87 1298.77,-99.87 1325.97,-99.87"/>
<polygon fill="black" stroke="black" points="1325.99,-103.37 1335.99,-99.87 1325.99,-96.37 1325.99,-103.37"/>
</g>
<!-- 2df0bdac&#45;1b16&#45;41ae&#45;bf85&#45;38e0ed56d74d -->
<g id="node9" class="node">
<title>2df0bdac&#45;1b16&#45;41ae&#45;bf85&#45;38e0ed56d74d</title>
<polygon fill="yellow" stroke="black" points="1295,-36 874,-36 874,0 1295,0 1295,-36"/>
<text text-anchor="middle" x="1084.5" y="-14.3" font-family="Helvetica,sans-Serif" font-size="14.00">⋯ Run GitHub Actions for `core/method/methods/ping.go`</text>
</g>
<!-- 52ea50e1&#45;da82&#45;482d&#45;abe4&#45;146714f16b49&#45;&gt;2df0bdac&#45;1b16&#45;41ae&#45;bf85&#45;38e0ed56d74d -->
<g id="edge5" class="edge">
<title>52ea50e1&#45;da82&#45;482d&#45;abe4&#45;146714f16b49&#45;&gt;2df0bdac&#45;1b16&#45;41ae&#45;bf85&#45;38e0ed56d74d</title>
<path fill="none" stroke="black" stroke-dasharray="5,2" d="M1084.5,-72.72C1084.5,-64.27 1084.5,-54.89 1084.5,-46.36"/>
<polygon fill="black" stroke="black" points="1088,-46.15 1084.5,-36.15 1081,-46.15 1088,-46.15"/>
</g>
<!-- 250d9ded&#45;493a&#45;4de5&#45;b17b&#45;5a76eee0bf5a&#45;&gt;end -->
<g id="edge9" class="edge">
<title>250d9ded&#45;493a&#45;4de5&#45;b17b&#45;5a76eee0bf5a&#45;&gt;end</title>
<path fill="none" stroke="black" d="M1445.19,-99.87C1462.9,-99.87 1480.79,-99.87 1491.76,-99.87"/>
<polygon fill="black" stroke="black" points="1491.76,-103.37 1501.76,-99.87 1491.76,-96.37 1491.76,-103.37"/>
<text text-anchor="middle" x="1473.47" y="-106.67" font-family="Helvetica,sans-Serif" font-size="14.00">Finish</text>
</g>
<!-- 1d129fcb&#45;45ae&#45;4aab&#45;bd63&#45;31a903f93be4 -->
<g id="node10" class="node">
<title>1d129fcb&#45;45ae&#45;4aab&#45;bd63&#45;31a903f93be4</title>
<polygon fill="white" stroke="black" points="1577.5,-36 1313.5,-36 1313.5,0 1577.5,0 1577.5,-36"/>
<text text-anchor="middle" x="1445.5" y="-14.3" font-family="Helvetica,sans-Serif" font-size="14.00">▶ Run GitHub Actions for `main.go`</text>
</g>
<!-- 250d9ded&#45;493a&#45;4de5&#45;b17b&#45;5a76eee0bf5a&#45;&gt;1d129fcb&#45;45ae&#45;4aab&#45;bd63&#45;31a903f93be4 -->
<g id="edge7" class="edge">
<title>250d9ded&#45;493a&#45;4de5&#45;b17b&#45;5a76eee0bf5a&#45;&gt;1d129fcb&#45;45ae&#45;4aab&#45;bd63&#45;31a903f93be4</title>
<path fill="none" stroke="black" stroke-dasharray="5,2" d="M1407.6,-74.04C1414.07,-64.64 1421.44,-53.94 1427.95,-44.48"/>
<polygon fill="black" stroke="black" points="1430.85,-46.44 1433.64,-36.22 1425.09,-42.47 1430.85,-46.44"/>
</g>
</g>
</svg>
