<?xml version="1.0" encoding="UTF-8" standalone="no"?>
<!DOCTYPE svg PUBLIC "-//W3C//DTD SVG 1.1//EN"
 "http://www.w3.org/Graphics/SVG/1.1/DTD/svg11.dtd">
<!-- Generated by graphviz version 2.43.0 (0)
 -->
<!-- Title: %3 Pages: 1 -->
<svg width="1687pt" height="165pt"
 viewBox="0.00 0.00 1687.00 164.74" xmlns="http://www.w3.org/2000/svg" xmlns:xlink="http://www.w3.org/1999/xlink">
<g id="graph0" class="graph" transform="scale(1 1) rotate(0) translate(36 128.74)">
<title>%3</title>
<polygon fill="dimgray" stroke="transparent" points="-36,36 -36,-128.74 1651,-128.74 1651,36 -36,36"/>
<text text-anchor="middle" x="807.5" y="-77.54" font-family="Helvetica,sans-Serif" font-size="14.00">Sweep&#39;s Plan &amp; Progress</text>
<!-- start -->
<g id="node1" class="node">
<title>start</title>
</g>
<!-- 75b62aa2&#45;7b7c&#45;4a15&#45;bdfa&#45;31a121dfd71f -->
<g id="node3" class="node">
<title>75b62aa2&#45;7b7c&#45;4a15&#45;bdfa&#45;31a121dfd71f</title>
<ellipse fill="#0ee832" stroke="black" cx="212.5" cy="-26.87" rx="159.61" ry="26.74"/>
<text text-anchor="middle" x="212.5" y="-30.67" font-family="Helvetica,sans-Serif" font-size="14.00">✓ Modify</text>
<text text-anchor="middle" x="212.5" y="-15.67" font-family="Helvetica,sans-Serif" font-size="14.00">core/method/methods/ping.go</text>
</g>
<!-- start&#45;&gt;75b62aa2&#45;7b7c&#45;4a15&#45;bdfa&#45;31a121dfd71f -->
<g id="edge5" class="edge">
<title>start&#45;&gt;75b62aa2&#45;7b7c&#45;4a15&#45;bdfa&#45;31a121dfd71f</title>
<path fill="none" stroke="black" d="M1.11,-26.87C4.37,-26.87 20.43,-26.87 42.36,-26.87"/>
<polygon fill="black" stroke="black" points="42.46,-30.37 52.46,-26.87 42.46,-23.37 42.46,-30.37"/>
<text text-anchor="middle" x="26.85" y="-33.67" font-family="Helvetica,sans-Serif" font-size="14.00">Start</text>
</g>
<!-- end -->
<g id="node2" class="node">
<title>end</title>
</g>
<!-- 94d9b13e&#45;513a&#45;4dcc&#45;8daa&#45;8d8da49c009e -->
<g id="node4" class="node">
<title>94d9b13e&#45;513a&#45;4dcc&#45;8daa&#45;8d8da49c009e</title>
<ellipse fill="#0ee832" stroke="black" cx="571.5" cy="-26.87" rx="163.18" ry="26.74"/>
<text text-anchor="middle" x="571.5" y="-30.67" font-family="Helvetica,sans-Serif" font-size="14.00">✓ Modify</text>
<text text-anchor="middle" x="571.5" y="-15.67" font-family="Helvetica,sans-Serif" font-size="14.00">core/method/methods/motd.go</text>
</g>
<!-- 75b62aa2&#45;7b7c&#45;4a15&#45;bdfa&#45;31a121dfd71f&#45;&gt;94d9b13e&#45;513a&#45;4dcc&#45;8daa&#45;8d8da49c009e -->
<g id="edge1" class="edge">
<title>75b62aa2&#45;7b7c&#45;4a15&#45;bdfa&#45;31a121dfd71f&#45;&gt;94d9b13e&#45;513a&#45;4dcc&#45;8daa&#45;8d8da49c009e</title>
<path fill="none" stroke="black" d="M372.37,-26.87C380.94,-26.87 389.51,-26.87 398.09,-26.87"/>
<polygon fill="black" stroke="black" points="398.15,-30.37 408.15,-26.87 398.15,-23.37 398.15,-30.37"/>
</g>
<!-- 3d241491&#45;16e8&#45;4846&#45;9606&#45;3b42cd56846f -->
<g id="node5" class="node">
<title>3d241491&#45;16e8&#45;4846&#45;9606&#45;3b42cd56846f</title>
<ellipse fill="yellow" stroke="black" cx="925.5" cy="-26.87" rx="155.63" ry="26.74"/>
<text text-anchor="middle" x="925.5" y="-30.67" font-family="Helvetica,sans-Serif" font-size="14.00">⋯ Modify</text>
<text text-anchor="middle" x="925.5" y="-15.67" font-family="Helvetica,sans-Serif" font-size="14.00">core/method/methods/join.go</text>
</g>
<!-- 94d9b13e&#45;513a&#45;4dcc&#45;8daa&#45;8d8da49c009e&#45;&gt;3d241491&#45;16e8&#45;4846&#45;9606&#45;3b42cd56846f -->
<g id="edge2" class="edge">
<title>94d9b13e&#45;513a&#45;4dcc&#45;8daa&#45;8d8da49c009e&#45;&gt;3d241491&#45;16e8&#45;4846&#45;9606&#45;3b42cd56846f</title>
<path fill="none" stroke="black" d="M735.02,-26.87C743.22,-26.87 751.42,-26.87 759.62,-26.87"/>
<polygon fill="black" stroke="black" points="759.62,-30.37 769.62,-26.87 759.62,-23.37 759.62,-30.37"/>
</g>
<!-- 379cc1b3&#45;d077&#45;41d4&#45;a58c&#45;3c53c77ace30 -->
<g id="node6" class="node">
<title>379cc1b3&#45;d077&#45;41d4&#45;a58c&#45;3c53c77ace30</title>
<ellipse fill="white" stroke="black" cx="1229.5" cy="-26.87" rx="113.27" ry="26.74"/>
<text text-anchor="middle" x="1229.5" y="-30.67" font-family="Helvetica,sans-Serif" font-size="14.00">▶ Modify</text>
<text text-anchor="middle" x="1229.5" y="-15.67" font-family="Helvetica,sans-Serif" font-size="14.00">mc/packet/packet.go</text>
</g>
<!-- 3d241491&#45;16e8&#45;4846&#45;9606&#45;3b42cd56846f&#45;&gt;379cc1b3&#45;d077&#45;41d4&#45;a58c&#45;3c53c77ace30 -->
<g id="edge3" class="edge">
<title>3d241491&#45;16e8&#45;4846&#45;9606&#45;3b42cd56846f&#45;&gt;379cc1b3&#45;d077&#45;41d4&#45;a58c&#45;3c53c77ace30</title>
<path fill="none" stroke="black" d="M1081.36,-26.87C1089.59,-26.87 1097.82,-26.87 1106.04,-26.87"/>
<polygon fill="black" stroke="black" points="1106.08,-30.37 1116.08,-26.87 1106.08,-23.37 1106.08,-30.37"/>
</g>
<!-- 7a69626e&#45;569b&#45;4a39&#45;b207&#45;6a7c345d8ab0 -->
<g id="node7" class="node">
<title>7a69626e&#45;569b&#45;4a39&#45;b207&#45;6a7c345d8ab0</title>
<ellipse fill="white" stroke="black" cx="1467.5" cy="-26.87" rx="89.19" ry="26.74"/>
<text text-anchor="middle" x="1467.5" y="-30.67" font-family="Helvetica,sans-Serif" font-size="14.00">▶ Modify</text>
<text text-anchor="middle" x="1467.5" y="-15.67" font-family="Helvetica,sans-Serif" font-size="14.00">utils/random.go</text>
</g>
<!-- 379cc1b3&#45;d077&#45;41d4&#45;a58c&#45;3c53c77ace30&#45;&gt;7a69626e&#45;569b&#45;4a39&#45;b207&#45;6a7c345d8ab0 -->
<g id="edge4" class="edge">
<title>379cc1b3&#45;d077&#45;41d4&#45;a58c&#45;3c53c77ace30&#45;&gt;7a69626e&#45;569b&#45;4a39&#45;b207&#45;6a7c345d8ab0</title>
<path fill="none" stroke="black" d="M1342.92,-26.87C1351.23,-26.87 1359.53,-26.87 1367.83,-26.87"/>
<polygon fill="black" stroke="black" points="1367.96,-30.37 1377.96,-26.87 1367.96,-23.37 1367.96,-30.37"/>
</g>
<!-- 7a69626e&#45;569b&#45;4a39&#45;b207&#45;6a7c345d8ab0&#45;&gt;end -->
<g id="edge6" class="edge">
<title>7a69626e&#45;569b&#45;4a39&#45;b207&#45;6a7c345d8ab0&#45;&gt;end</title>
<path fill="none" stroke="black" d="M1556.82,-26.87C1575.57,-26.87 1592.87,-26.87 1603.53,-26.87"/>
<polygon fill="black" stroke="black" points="1603.81,-30.37 1613.81,-26.87 1603.81,-23.37 1603.81,-30.37"/>
<text text-anchor="middle" x="1585.3" y="-33.67" font-family="Helvetica,sans-Serif" font-size="14.00">Finish</text>
</g>
</g>
</svg>
