<?xml version="1.0" encoding="UTF-8" standalone="no"?>
<!DOCTYPE svg PUBLIC "-//W3C//DTD SVG 1.1//EN"
 "http://www.w3.org/Graphics/SVG/1.1/DTD/svg11.dtd">
<!-- Generated by graphviz version 2.43.0 (0)
 -->
<!-- Title: %3 Pages: 1 -->
<svg width="1359pt" height="238pt"
 viewBox="0.00 0.00 1359.00 237.74" xmlns="http://www.w3.org/2000/svg" xmlns:xlink="http://www.w3.org/1999/xlink">
<g id="graph0" class="graph" transform="scale(1 1) rotate(0) translate(36 201.74)">
<title>%3</title>
<polygon fill="dimgray" stroke="transparent" points="-36,36 -36,-201.74 1323,-201.74 1323,36 -36,36"/>
<text text-anchor="middle" x="643.5" y="-150.54" font-family="Helvetica,sans-Serif" font-size="14.00">Sweep&#39;s Plan &amp; Progress</text>
<!-- start -->
<g id="node1" class="node">
<title>start</title>
</g>
<!-- 4c523b37&#45;0a36&#45;4d71&#45;aba5&#45;0cdc7e5723d7 -->
<g id="node3" class="node">
<title>4c523b37&#45;0a36&#45;4d71&#45;aba5&#45;0cdc7e5723d7</title>
<ellipse fill="yellow" stroke="black" cx="247.5" cy="-99.87" rx="159.61" ry="26.74"/>
<text text-anchor="middle" x="247.5" y="-103.67" font-family="Helvetica,sans-Serif" font-size="14.00">⋯ Modify</text>
<text text-anchor="middle" x="247.5" y="-88.67" font-family="Helvetica,sans-Serif" font-size="14.00">core/method/methods/ping.go</text>
</g>
<!-- start&#45;&gt;4c523b37&#45;0a36&#45;4d71&#45;aba5&#45;0cdc7e5723d7 -->
<g id="edge6" class="edge">
<title>start&#45;&gt;4c523b37&#45;0a36&#45;4d71&#45;aba5&#45;0cdc7e5723d7</title>
<path fill="none" stroke="black" d="M36.11,-99.87C39.37,-99.87 55.43,-99.87 77.36,-99.87"/>
<polygon fill="black" stroke="black" points="77.46,-103.37 87.46,-99.87 77.46,-96.37 77.46,-103.37"/>
<text text-anchor="middle" x="61.85" y="-106.67" font-family="Helvetica,sans-Serif" font-size="14.00">Start</text>
</g>
<!-- end -->
<g id="node2" class="node">
<title>end</title>
</g>
<!-- 7adfe660&#45;1586&#45;4e94&#45;bf97&#45;f4807676ca87 -->
<g id="node4" class="node">
<title>7adfe660&#45;1586&#45;4e94&#45;bf97&#45;f4807676ca87</title>
<ellipse fill="white" stroke="black" cx="646.5" cy="-99.87" rx="163.18" ry="26.74"/>
<text text-anchor="middle" x="646.5" y="-103.67" font-family="Helvetica,sans-Serif" font-size="14.00">▶ Modify</text>
<text text-anchor="middle" x="646.5" y="-88.67" font-family="Helvetica,sans-Serif" font-size="14.00">core/method/methods/motd.go</text>
</g>
<!-- 4c523b37&#45;0a36&#45;4d71&#45;aba5&#45;0cdc7e5723d7&#45;&gt;7adfe660&#45;1586&#45;4e94&#45;bf97&#45;f4807676ca87 -->
<g id="edge2" class="edge">
<title>4c523b37&#45;0a36&#45;4d71&#45;aba5&#45;0cdc7e5723d7&#45;&gt;7adfe660&#45;1586&#45;4e94&#45;bf97&#45;f4807676ca87</title>
<path fill="none" stroke="black" d="M407.65,-99.87C429.26,-99.87 450.87,-99.87 472.49,-99.87"/>
<polygon fill="black" stroke="black" points="472.75,-103.37 482.75,-99.87 472.75,-96.37 472.75,-103.37"/>
</g>
<!-- 457ee0c1&#45;8c7d&#45;4b38&#45;9e11&#45;6435a4ceaa1b -->
<g id="node6" class="node">
<title>457ee0c1&#45;8c7d&#45;4b38&#45;9e11&#45;6435a4ceaa1b</title>
<polygon fill="white" stroke="black" points="417,-36 0,-36 0,0 417,0 417,-36"/>
<text text-anchor="middle" x="208.5" y="-14.3" font-family="Helvetica,sans-Serif" font-size="14.00">▶ Run GitHub Actions for `core/method/methods/ping.go`</text>
</g>
<!-- 4c523b37&#45;0a36&#45;4d71&#45;aba5&#45;0cdc7e5723d7&#45;&gt;457ee0c1&#45;8c7d&#45;4b38&#45;9e11&#45;6435a4ceaa1b -->
<g id="edge1" class="edge">
<title>4c523b37&#45;0a36&#45;4d71&#45;aba5&#45;0cdc7e5723d7&#45;&gt;457ee0c1&#45;8c7d&#45;4b38&#45;9e11&#45;6435a4ceaa1b</title>
<path fill="none" stroke="black" stroke-dasharray="5,2" d="M234.73,-72.72C230.42,-63.9 225.62,-54.05 221.31,-45.23"/>
<polygon fill="black" stroke="black" points="224.41,-43.6 216.87,-36.15 218.12,-46.67 224.41,-43.6"/>
</g>
<!-- 472a96fa&#45;e751&#45;4089&#45;9d5d&#45;0bcc7cb9edb2 -->
<g id="node5" class="node">
<title>472a96fa&#45;e751&#45;4089&#45;9d5d&#45;0bcc7cb9edb2</title>
<ellipse fill="white" stroke="black" cx="1041.5" cy="-99.87" rx="155.63" ry="26.74"/>
<text text-anchor="middle" x="1041.5" y="-103.67" font-family="Helvetica,sans-Serif" font-size="14.00">▶ Modify</text>
<text text-anchor="middle" x="1041.5" y="-88.67" font-family="Helvetica,sans-Serif" font-size="14.00">core/method/methods/join.go</text>
</g>
<!-- 7adfe660&#45;1586&#45;4e94&#45;bf97&#45;f4807676ca87&#45;&gt;472a96fa&#45;e751&#45;4089&#45;9d5d&#45;0bcc7cb9edb2 -->
<g id="edge4" class="edge">
<title>7adfe660&#45;1586&#45;4e94&#45;bf97&#45;f4807676ca87&#45;&gt;472a96fa&#45;e751&#45;4089&#45;9d5d&#45;0bcc7cb9edb2</title>
<path fill="none" stroke="black" d="M810.05,-99.87C831.88,-99.87 853.7,-99.87 875.52,-99.87"/>
<polygon fill="black" stroke="black" points="875.55,-103.37 885.55,-99.87 875.55,-96.37 875.55,-103.37"/>
</g>
<!-- 7be4efee&#45;fdf8&#45;43c3&#45;bdc7&#45;3abf5d891f4c -->
<g id="node7" class="node">
<title>7be4efee&#45;fdf8&#45;43c3&#45;bdc7&#45;3abf5d891f4c</title>
<polygon fill="white" stroke="black" points="857.5,-36 435.5,-36 435.5,0 857.5,0 857.5,-36"/>
<text text-anchor="middle" x="646.5" y="-14.3" font-family="Helvetica,sans-Serif" font-size="14.00">▶ Run GitHub Actions for `core/method/methods/motd.go`</text>
</g>
<!-- 7adfe660&#45;1586&#45;4e94&#45;bf97&#45;f4807676ca87&#45;&gt;7be4efee&#45;fdf8&#45;43c3&#45;bdc7&#45;3abf5d891f4c -->
<g id="edge3" class="edge">
<title>7adfe660&#45;1586&#45;4e94&#45;bf97&#45;f4807676ca87&#45;&gt;7be4efee&#45;fdf8&#45;43c3&#45;bdc7&#45;3abf5d891f4c</title>
<path fill="none" stroke="black" stroke-dasharray="5,2" d="M646.5,-72.72C646.5,-64.27 646.5,-54.89 646.5,-46.36"/>
<polygon fill="black" stroke="black" points="650,-46.15 646.5,-36.15 643,-46.15 650,-46.15"/>
</g>
<!-- 472a96fa&#45;e751&#45;4089&#45;9d5d&#45;0bcc7cb9edb2&#45;&gt;end -->
<g id="edge7" class="edge">
<title>472a96fa&#45;e751&#45;4089&#45;9d5d&#45;0bcc7cb9edb2&#45;&gt;end</title>
<path fill="none" stroke="black" d="M1197.31,-99.87C1217.2,-99.87 1234.22,-99.87 1244.63,-99.87"/>
<polygon fill="black" stroke="black" points="1244.85,-103.37 1254.85,-99.87 1244.85,-96.37 1244.85,-103.37"/>
<text text-anchor="middle" x="1226.03" y="-106.67" font-family="Helvetica,sans-Serif" font-size="14.00">Finish</text>
</g>
<!-- d6b5d406&#45;cda7&#45;4123&#45;9062&#45;defbfae24da2 -->
<g id="node8" class="node">
<title>d6b5d406&#45;cda7&#45;4123&#45;9062&#45;defbfae24da2</title>
<polygon fill="white" stroke="black" points="1287,-36 876,-36 876,0 1287,0 1287,-36"/>
<text text-anchor="middle" x="1081.5" y="-14.3" font-family="Helvetica,sans-Serif" font-size="14.00">▶ Run GitHub Actions for `core/method/methods/join.go`</text>
</g>
<!-- 472a96fa&#45;e751&#45;4089&#45;9d5d&#45;0bcc7cb9edb2&#45;&gt;d6b5d406&#45;cda7&#45;4123&#45;9062&#45;defbfae24da2 -->
<g id="edge5" class="edge">
<title>472a96fa&#45;e751&#45;4089&#45;9d5d&#45;0bcc7cb9edb2&#45;&gt;d6b5d406&#45;cda7&#45;4123&#45;9062&#45;defbfae24da2</title>
<path fill="none" stroke="black" stroke-dasharray="5,2" d="M1054.6,-72.72C1059.01,-63.9 1063.94,-54.05 1068.36,-45.23"/>
<polygon fill="black" stroke="black" points="1071.56,-46.66 1072.91,-36.15 1065.31,-43.52 1071.56,-46.66"/>
</g>
</g>
</svg>
