<?xml version="1.0" encoding="UTF-8" standalone="no"?>
<!DOCTYPE svg PUBLIC "-//W3C//DTD SVG 1.1//EN"
 "http://www.w3.org/Graphics/SVG/1.1/DTD/svg11.dtd">
<!-- Generated by graphviz version 2.43.0 (0)
 -->
<!-- Title: %3 Pages: 1 -->
<svg width="862pt" height="238pt"
 viewBox="0.00 0.00 861.50 237.74" xmlns="http://www.w3.org/2000/svg" xmlns:xlink="http://www.w3.org/1999/xlink">
<g id="graph0" class="graph" transform="scale(1 1) rotate(0) translate(36 201.74)">
<title>%3</title>
<polygon fill="dimgray" stroke="transparent" points="-36,36 -36,-201.74 825.5,-201.74 825.5,36 -36,36"/>
<text text-anchor="middle" x="394.75" y="-150.54" font-family="Helvetica,sans-Serif" font-size="14.00">Sweep&#39;s Plan &amp; Progress</text>
<!-- start -->
<g id="node1" class="node">
<title>start</title>
</g>
<!-- 2132a887&#45;1060&#45;4cf9&#45;9558&#45;48e12033cbb6 -->
<g id="node3" class="node">
<title>2132a887&#45;1060&#45;4cf9&#45;9558&#45;48e12033cbb6</title>
<ellipse fill="yellow" stroke="black" cx="226" cy="-99.87" rx="119.5" ry="26.74"/>
<text text-anchor="middle" x="226" y="-103.67" font-family="Helvetica,sans-Serif" font-size="14.00">⋯ Create</text>
<text text-anchor="middle" x="226" y="-88.67" font-family="Helvetica,sans-Serif" font-size="14.00">mc/connectionpool.go</text>
</g>
<!-- start&#45;&gt;2132a887&#45;1060&#45;4cf9&#45;9558&#45;48e12033cbb6 -->
<g id="edge4" class="edge">
<title>start&#45;&gt;2132a887&#45;1060&#45;4cf9&#45;9558&#45;48e12033cbb6</title>
<path fill="none" stroke="black" d="M54.77,-99.87C58.42,-99.87 74.8,-99.87 96.07,-99.87"/>
<polygon fill="black" stroke="black" points="96.17,-103.37 106.17,-99.87 96.17,-96.37 96.17,-103.37"/>
<text text-anchor="middle" x="80.5" y="-106.67" font-family="Helvetica,sans-Serif" font-size="14.00">Start</text>
</g>
<!-- end -->
<g id="node2" class="node">
<title>end</title>
</g>
<!-- b3ab1676&#45;e78b&#45;455d&#45;9b8c&#45;0f5080142f0a -->
<g id="node4" class="node">
<title>b3ab1676&#45;e78b&#45;455d&#45;9b8c&#45;0f5080142f0a</title>
<ellipse fill="white" stroke="black" cx="561" cy="-99.87" rx="155.63" ry="26.74"/>
<text text-anchor="middle" x="561" y="-103.67" font-family="Helvetica,sans-Serif" font-size="14.00">▶ Modify</text>
<text text-anchor="middle" x="561" y="-88.67" font-family="Helvetica,sans-Serif" font-size="14.00">core/method/methods/join.go</text>
</g>
<!-- 2132a887&#45;1060&#45;4cf9&#45;9558&#45;48e12033cbb6&#45;&gt;b3ab1676&#45;e78b&#45;455d&#45;9b8c&#45;0f5080142f0a -->
<g id="edge2" class="edge">
<title>2132a887&#45;1060&#45;4cf9&#45;9558&#45;48e12033cbb6&#45;&gt;b3ab1676&#45;e78b&#45;455d&#45;9b8c&#45;0f5080142f0a</title>
<path fill="none" stroke="black" d="M345.74,-99.87C362.1,-99.87 378.46,-99.87 394.83,-99.87"/>
<polygon fill="black" stroke="black" points="395.02,-103.37 405.02,-99.87 395.02,-96.37 395.02,-103.37"/>
</g>
<!-- 42f87a29&#45;bf30&#45;410c&#45;a4fc&#45;a0931e6a7bbc -->
<g id="node5" class="node">
<title>42f87a29&#45;bf30&#45;410c&#45;a4fc&#45;a0931e6a7bbc</title>
<polygon fill="white" stroke="black" points="360,-36 0,-36 0,0 360,0 360,-36"/>
<text text-anchor="middle" x="180" y="-14.3" font-family="Helvetica,sans-Serif" font-size="14.00">▶ Run GitHub Actions for `mc/connectionpool.go`</text>
</g>
<!-- 2132a887&#45;1060&#45;4cf9&#45;9558&#45;48e12033cbb6&#45;&gt;42f87a29&#45;bf30&#45;410c&#45;a4fc&#45;a0931e6a7bbc -->
<g id="edge1" class="edge">
<title>2132a887&#45;1060&#45;4cf9&#45;9558&#45;48e12033cbb6&#45;&gt;42f87a29&#45;bf30&#45;410c&#45;a4fc&#45;a0931e6a7bbc</title>
<path fill="none" stroke="black" stroke-dasharray="5,2" d="M211.19,-73.16C206.05,-64.22 200.27,-54.2 195.1,-45.22"/>
<polygon fill="black" stroke="black" points="198.01,-43.26 189.98,-36.34 191.94,-46.75 198.01,-43.26"/>
</g>
<!-- b3ab1676&#45;e78b&#45;455d&#45;9b8c&#45;0f5080142f0a&#45;&gt;end -->
<g id="edge5" class="edge">
<title>b3ab1676&#45;e78b&#45;455d&#45;9b8c&#45;0f5080142f0a&#45;&gt;end</title>
<path fill="none" stroke="black" d="M716.81,-99.87C736.7,-99.87 753.72,-99.87 764.13,-99.87"/>
<polygon fill="black" stroke="black" points="764.35,-103.37 774.35,-99.87 764.35,-96.37 764.35,-103.37"/>
<text text-anchor="middle" x="745.53" y="-106.67" font-family="Helvetica,sans-Serif" font-size="14.00">Finish</text>
</g>
<!-- ad4d8497&#45;4075&#45;4266&#45;af48&#45;4127c6e5bdc5 -->
<g id="node6" class="node">
<title>ad4d8497&#45;4075&#45;4266&#45;af48&#45;4127c6e5bdc5</title>
<polygon fill="white" stroke="black" points="789.5,-36 378.5,-36 378.5,0 789.5,0 789.5,-36"/>
<text text-anchor="middle" x="584" y="-14.3" font-family="Helvetica,sans-Serif" font-size="14.00">▶ Run GitHub Actions for `core/method/methods/join.go`</text>
</g>
<!-- b3ab1676&#45;e78b&#45;455d&#45;9b8c&#45;0f5080142f0a&#45;&gt;ad4d8497&#45;4075&#45;4266&#45;af48&#45;4127c6e5bdc5 -->
<g id="edge3" class="edge">
<title>b3ab1676&#45;e78b&#45;455d&#45;9b8c&#45;0f5080142f0a&#45;&gt;ad4d8497&#45;4075&#45;4266&#45;af48&#45;4127c6e5bdc5</title>
<path fill="none" stroke="black" stroke-dasharray="5,2" d="M568.53,-72.72C571.02,-64.08 573.78,-54.47 576.28,-45.79"/>
<polygon fill="black" stroke="black" points="579.66,-46.72 579.06,-36.15 572.93,-44.79 579.66,-46.72"/>
</g>
</g>
</svg>
