<?xml version="1.0" encoding="UTF-8" standalone="no"?>
<!DOCTYPE svg PUBLIC "-//W3C//DTD SVG 1.1//EN"
 "http://www.w3.org/Graphics/SVG/1.1/DTD/svg11.dtd">
<!-- Generated by graphviz version 2.43.0 (0)
 -->
<!-- Title: %3 Pages: 1 -->
<svg width="922pt" height="165pt"
 viewBox="0.00 0.00 922.00 164.74" xmlns="http://www.w3.org/2000/svg" xmlns:xlink="http://www.w3.org/1999/xlink">
<g id="graph0" class="graph" transform="scale(1 1) rotate(0) translate(36 128.74)">
<title>%3</title>
<polygon fill="dimgray" stroke="transparent" points="-36,36 -36,-128.74 886,-128.74 886,36 -36,36"/>
<text text-anchor="middle" x="425" y="-77.54" font-family="Helvetica,sans-Serif" font-size="14.00">Sweep&#39;s Plan &amp; Progress</text>
<!-- start -->
<g id="node1" class="node">
<title>start</title>
</g>
<!-- 020c5ab4&#45;02e2&#45;480a&#45;bc8d&#45;f2f3912ef8d7 -->
<g id="node3" class="node">
<title>020c5ab4&#45;02e2&#45;480a&#45;bc8d&#45;f2f3912ef8d7</title>
<ellipse fill="yellow" stroke="black" cx="165.5" cy="-26.87" rx="113.27" ry="26.74"/>
<text text-anchor="middle" x="165.5" y="-30.67" font-family="Helvetica,sans-Serif" font-size="14.00">⋯ Modify</text>
<text text-anchor="middle" x="165.5" y="-15.67" font-family="Helvetica,sans-Serif" font-size="14.00">mc/packet/packet.go</text>
</g>
<!-- start&#45;&gt;020c5ab4&#45;02e2&#45;480a&#45;bc8d&#45;f2f3912ef8d7 -->
<g id="edge3" class="edge">
<title>start&#45;&gt;020c5ab4&#45;02e2&#45;480a&#45;bc8d&#45;f2f3912ef8d7</title>
<path fill="none" stroke="black" d="M1.24,-26.87C4.81,-26.87 21.03,-26.87 41.99,-26.87"/>
<polygon fill="black" stroke="black" points="42.28,-30.37 52.28,-26.87 42.28,-23.37 42.28,-30.37"/>
<text text-anchor="middle" x="26.68" y="-33.67" font-family="Helvetica,sans-Serif" font-size="14.00">Start</text>
</g>
<!-- end -->
<g id="node2" class="node">
<title>end</title>
</g>
<!-- e61461f2&#45;71ac&#45;46f2&#45;89a1&#45;fd626aa4b1fc -->
<g id="node4" class="node">
<title>e61461f2&#45;71ac&#45;46f2&#45;89a1&#45;fd626aa4b1fc</title>
<ellipse fill="white" stroke="black" cx="427.5" cy="-26.87" rx="113.69" ry="26.74"/>
<text text-anchor="middle" x="427.5" y="-30.67" font-family="Helvetica,sans-Serif" font-size="14.00">▶ Modify</text>
<text text-anchor="middle" x="427.5" y="-15.67" font-family="Helvetica,sans-Serif" font-size="14.00">mc/packet/builder.go</text>
</g>
<!-- 020c5ab4&#45;02e2&#45;480a&#45;bc8d&#45;f2f3912ef8d7&#45;&gt;e61461f2&#45;71ac&#45;46f2&#45;89a1&#45;fd626aa4b1fc -->
<g id="edge1" class="edge">
<title>020c5ab4&#45;02e2&#45;480a&#45;bc8d&#45;f2f3912ef8d7&#45;&gt;e61461f2&#45;71ac&#45;46f2&#45;89a1&#45;fd626aa4b1fc</title>
<path fill="none" stroke="black" d="M278.85,-26.87C286.94,-26.87 295.04,-26.87 303.14,-26.87"/>
<polygon fill="black" stroke="black" points="303.4,-30.37 313.4,-26.87 303.4,-23.37 303.4,-30.37"/>
</g>
<!-- 187a12b3&#45;33e2&#45;468c&#45;80b4&#45;25109f8f1826 -->
<g id="node5" class="node">
<title>187a12b3&#45;33e2&#45;468c&#45;80b4&#45;25109f8f1826</title>
<ellipse fill="white" stroke="black" cx="684.5" cy="-26.87" rx="107.46" ry="26.74"/>
<text text-anchor="middle" x="684.5" y="-30.67" font-family="Helvetica,sans-Serif" font-size="14.00">▶ Modify</text>
<text text-anchor="middle" x="684.5" y="-15.67" font-family="Helvetica,sans-Serif" font-size="14.00">mc/packet/types.go</text>
</g>
<!-- e61461f2&#45;71ac&#45;46f2&#45;89a1&#45;fd626aa4b1fc&#45;&gt;187a12b3&#45;33e2&#45;468c&#45;80b4&#45;25109f8f1826 -->
<g id="edge2" class="edge">
<title>e61461f2&#45;71ac&#45;46f2&#45;89a1&#45;fd626aa4b1fc&#45;&gt;187a12b3&#45;33e2&#45;468c&#45;80b4&#45;25109f8f1826</title>
<path fill="none" stroke="black" d="M541.44,-26.87C549.85,-26.87 558.26,-26.87 566.67,-26.87"/>
<polygon fill="black" stroke="black" points="566.93,-30.37 576.93,-26.87 566.93,-23.37 566.93,-30.37"/>
</g>
<!-- 187a12b3&#45;33e2&#45;468c&#45;80b4&#45;25109f8f1826&#45;&gt;end -->
<g id="edge4" class="edge">
<title>187a12b3&#45;33e2&#45;468c&#45;80b4&#45;25109f8f1826&#45;&gt;end</title>
<path fill="none" stroke="black" d="M792.25,-26.87C811.32,-26.87 828.39,-26.87 838.83,-26.87"/>
<polygon fill="black" stroke="black" points="838.83,-30.37 848.83,-26.87 838.83,-23.37 838.83,-30.37"/>
<text text-anchor="middle" x="820.49" y="-33.67" font-family="Helvetica,sans-Serif" font-size="14.00">Finish</text>
</g>
</g>
</svg>
