<?xml version="1.0" encoding="UTF-8" standalone="no"?>
<!DOCTYPE svg PUBLIC "-//W3C//DTD SVG 1.1//EN"
 "http://www.w3.org/Graphics/SVG/1.1/DTD/svg11.dtd">
<!-- Generated by graphviz version 2.43.0 (0)
 -->
<!-- Title: %3 Pages: 1 -->
<svg width="2149pt" height="238pt"
 viewBox="0.00 0.00 2149.00 237.74" xmlns="http://www.w3.org/2000/svg" xmlns:xlink="http://www.w3.org/1999/xlink">
<g id="graph0" class="graph" transform="scale(1 1) rotate(0) translate(36 201.74)">
<title>%3</title>
<polygon fill="dimgray" stroke="transparent" points="-36,36 -36,-201.74 2113,-201.74 2113,36 -36,36"/>
<text text-anchor="middle" x="1038.5" y="-150.54" font-family="Helvetica,sans-Serif" font-size="14.00">Sweep&#39;s Plan &amp; Progress</text>
<!-- start -->
<g id="node1" class="node">
<title>start</title>
</g>
<!-- 7c39c5d5&#45;bd66&#45;45ac&#45;8051&#45;9551b5903633 -->
<g id="node3" class="node">
<title>7c39c5d5&#45;bd66&#45;45ac&#45;8051&#45;9551b5903633</title>
<ellipse fill="#0ee832" stroke="black" cx="231.5" cy="-99.87" rx="111.95" ry="26.74"/>
<text text-anchor="middle" x="231.5" y="-103.67" font-family="Helvetica,sans-Serif" font-size="14.00">✓ Modify</text>
<text text-anchor="middle" x="231.5" y="-88.67" font-family="Helvetica,sans-Serif" font-size="14.00">core/proxy/helper.go</text>
</g>
<!-- start&#45;&gt;7c39c5d5&#45;bd66&#45;45ac&#45;8051&#45;9551b5903633 -->
<g id="edge8" class="edge">
<title>start&#45;&gt;7c39c5d5&#45;bd66&#45;45ac&#45;8051&#45;9551b5903633</title>
<path fill="none" stroke="black" d="M68.23,-99.87C71.82,-99.87 88.24,-99.87 109.38,-99.87"/>
<polygon fill="black" stroke="black" points="109.39,-103.37 119.39,-99.87 109.39,-96.37 109.39,-103.37"/>
<text text-anchor="middle" x="93.89" y="-106.67" font-family="Helvetica,sans-Serif" font-size="14.00">Start</text>
</g>
<!-- end -->
<g id="node2" class="node">
<title>end</title>
</g>
<!-- 16da141f&#45;fc27&#45;4a9d&#45;b0d7&#45;d99fee04f248 -->
<g id="node4" class="node">
<title>16da141f&#45;fc27&#45;4a9d&#45;b0d7&#45;d99fee04f248</title>
<ellipse fill="#0ee832" stroke="black" cx="542.5" cy="-99.87" rx="107.46" ry="26.74"/>
<text text-anchor="middle" x="542.5" y="-103.67" font-family="Helvetica,sans-Serif" font-size="14.00">✓ Modify</text>
<text text-anchor="middle" x="542.5" y="-88.67" font-family="Helvetica,sans-Serif" font-size="14.00">core/proxy/proxy.go</text>
</g>
<!-- 7c39c5d5&#45;bd66&#45;45ac&#45;8051&#45;9551b5903633&#45;&gt;16da141f&#45;fc27&#45;4a9d&#45;b0d7&#45;d99fee04f248 -->
<g id="edge2" class="edge">
<title>7c39c5d5&#45;bd66&#45;45ac&#45;8051&#45;9551b5903633&#45;&gt;16da141f&#45;fc27&#45;4a9d&#45;b0d7&#45;d99fee04f248</title>
<path fill="none" stroke="black" d="M343.27,-99.87C370.41,-99.87 397.56,-99.87 424.71,-99.87"/>
<polygon fill="black" stroke="black" points="424.71,-103.37 434.71,-99.87 424.71,-96.37 424.71,-103.37"/>
</g>
<!-- 4c33536a&#45;3235&#45;4a7d&#45;a13b&#45;4b076edad9fd -->
<g id="node7" class="node">
<title>4c33536a&#45;3235&#45;4a7d&#45;a13b&#45;4b076edad9fd</title>
<polygon fill="#0ee832" stroke="black" points="351,-36 0,-36 0,0 351,0 351,-36"/>
<text text-anchor="middle" x="175.5" y="-14.3" font-family="Helvetica,sans-Serif" font-size="14.00">✓ Run GitHub Actions for `core/proxy/helper.go`</text>
</g>
<!-- 7c39c5d5&#45;bd66&#45;45ac&#45;8051&#45;9551b5903633&#45;&gt;4c33536a&#45;3235&#45;4a7d&#45;a13b&#45;4b076edad9fd -->
<g id="edge1" class="edge">
<title>7c39c5d5&#45;bd66&#45;45ac&#45;8051&#45;9551b5903633&#45;&gt;4c33536a&#45;3235&#45;4a7d&#45;a13b&#45;4b076edad9fd</title>
<path fill="none" stroke="black" stroke-dasharray="5,2" d="M213.47,-73.16C207.08,-64.04 199.88,-53.77 193.49,-44.65"/>
<polygon fill="black" stroke="black" points="196.26,-42.52 187.66,-36.34 190.53,-46.53 196.26,-42.52"/>
</g>
<!-- 23c2acb8&#45;eb94&#45;4a53&#45;83a3&#45;b8b3e0468a57 -->
<g id="node5" class="node">
<title>23c2acb8&#45;eb94&#45;4a53&#45;83a3&#45;b8b3e0468a57</title>
<ellipse fill="white" stroke="black" cx="924.5" cy="-99.87" rx="135.11" ry="26.74"/>
<text text-anchor="middle" x="924.5" y="-103.67" font-family="Helvetica,sans-Serif" font-size="14.00">▶ Modify</text>
<text text-anchor="middle" x="924.5" y="-88.67" font-family="Helvetica,sans-Serif" font-size="14.00">core/method/manager.go</text>
</g>
<!-- 16da141f&#45;fc27&#45;4a9d&#45;b0d7&#45;d99fee04f248&#45;&gt;23c2acb8&#45;eb94&#45;4a53&#45;83a3&#45;b8b3e0468a57 -->
<g id="edge4" class="edge">
<title>16da141f&#45;fc27&#45;4a9d&#45;b0d7&#45;d99fee04f248&#45;&gt;23c2acb8&#45;eb94&#45;4a53&#45;83a3&#45;b8b3e0468a57</title>
<path fill="none" stroke="black" d="M650.31,-99.87C693.29,-99.87 736.26,-99.87 779.24,-99.87"/>
<polygon fill="black" stroke="black" points="779.28,-103.37 789.28,-99.87 779.28,-96.37 779.28,-103.37"/>
</g>
<!-- 642b476a&#45;e738&#45;4fa4&#45;950a&#45;3855ee71e708 -->
<g id="node8" class="node">
<title>642b476a&#45;e738&#45;4fa4&#45;950a&#45;3855ee71e708</title>
<polygon fill="yellow" stroke="black" points="716,-36 369,-36 369,0 716,0 716,-36"/>
<text text-anchor="middle" x="542.5" y="-14.3" font-family="Helvetica,sans-Serif" font-size="14.00">⋯ Run GitHub Actions for `core/proxy/proxy.go`</text>
</g>
<!-- 16da141f&#45;fc27&#45;4a9d&#45;b0d7&#45;d99fee04f248&#45;&gt;642b476a&#45;e738&#45;4fa4&#45;950a&#45;3855ee71e708 -->
<g id="edge3" class="edge">
<title>16da141f&#45;fc27&#45;4a9d&#45;b0d7&#45;d99fee04f248&#45;&gt;642b476a&#45;e738&#45;4fa4&#45;950a&#45;3855ee71e708</title>
<path fill="none" stroke="black" stroke-dasharray="5,2" d="M542.5,-72.72C542.5,-64.27 542.5,-54.89 542.5,-46.36"/>
<polygon fill="black" stroke="black" points="546,-46.15 542.5,-36.15 539,-46.15 546,-46.15"/>
</g>
<!-- 797b710b&#45;22e1&#45;43aa&#45;add7&#45;5261acb7d8ca -->
<g id="node6" class="node">
<title>797b710b&#45;22e1&#45;43aa&#45;add7&#45;5261acb7d8ca</title>
<ellipse fill="white" stroke="black" cx="1556.5" cy="-99.87" rx="461.98" ry="26.74"/>
<text text-anchor="middle" x="1556.5" y="-103.67" font-family="Helvetica,sans-Serif" font-size="14.00">▶ Create</text>
<text text-anchor="middle" x="1556.5" y="-88.67" font-family="Helvetica,sans-Serif" font-size="14.00">core/method/methods/ping.go core/method/methods/motd.go core/method/methods/join.go</text>
</g>
<!-- 23c2acb8&#45;eb94&#45;4a53&#45;83a3&#45;b8b3e0468a57&#45;&gt;797b710b&#45;22e1&#45;43aa&#45;add7&#45;5261acb7d8ca -->
<g id="edge6" class="edge">
<title>23c2acb8&#45;eb94&#45;4a53&#45;83a3&#45;b8b3e0468a57&#45;&gt;797b710b&#45;22e1&#45;43aa&#45;add7&#45;5261acb7d8ca</title>
<path fill="none" stroke="black" d="M1059.66,-99.87C1067.94,-99.87 1076.22,-99.87 1084.5,-99.87"/>
<polygon fill="black" stroke="black" points="1084.6,-103.37 1094.6,-99.87 1084.6,-96.37 1084.6,-103.37"/>
</g>
<!-- 766783ef&#45;9893&#45;431f&#45;b51a&#45;58082f6a8638 -->
<g id="node9" class="node">
<title>766783ef&#45;9893&#45;431f&#45;b51a&#45;58082f6a8638</title>
<polygon fill="white" stroke="black" points="1116.5,-36 734.5,-36 734.5,0 1116.5,0 1116.5,-36"/>
<text text-anchor="middle" x="925.5" y="-14.3" font-family="Helvetica,sans-Serif" font-size="14.00">▶ Run GitHub Actions for `core/method/manager.go`</text>
</g>
<!-- 23c2acb8&#45;eb94&#45;4a53&#45;83a3&#45;b8b3e0468a57&#45;&gt;766783ef&#45;9893&#45;431f&#45;b51a&#45;58082f6a8638 -->
<g id="edge5" class="edge">
<title>23c2acb8&#45;eb94&#45;4a53&#45;83a3&#45;b8b3e0468a57&#45;&gt;766783ef&#45;9893&#45;431f&#45;b51a&#45;58082f6a8638</title>
<path fill="none" stroke="black" stroke-dasharray="5,2" d="M924.83,-72.72C924.93,-64.27 925.05,-54.89 925.16,-46.36"/>
<polygon fill="black" stroke="black" points="928.66,-46.19 925.29,-36.15 921.66,-46.1 928.66,-46.19"/>
</g>
<!-- 797b710b&#45;22e1&#45;43aa&#45;add7&#45;5261acb7d8ca&#45;&gt;end -->
<g id="edge9" class="edge">
<title>797b710b&#45;22e1&#45;43aa&#45;add7&#45;5261acb7d8ca&#45;&gt;end</title>
<path fill="none" stroke="black" d="M2018.36,-99.87C2039.31,-99.87 2055.71,-99.87 2065.68,-99.87"/>
<polygon fill="black" stroke="black" points="2065.91,-103.37 2075.91,-99.87 2065.91,-96.37 2065.91,-103.37"/>
<text text-anchor="middle" x="2047.12" y="-106.67" font-family="Helvetica,sans-Serif" font-size="14.00">Finish</text>
</g>
<!-- 693f277e&#45;0b69&#45;48d9&#45;837c&#45;7c6579c399d2 -->
<g id="node10" class="node">
<title>693f277e&#45;0b69&#45;48d9&#45;837c&#45;7c6579c399d2</title>
<polygon fill="white" stroke="black" points="1978.5,-36 1134.5,-36 1134.5,0 1978.5,0 1978.5,-36"/>
<text text-anchor="middle" x="1556.5" y="-14.3" font-family="Helvetica,sans-Serif" font-size="14.00">▶ Run GitHub Actions for `core/method/methods/ping.go core/method/methods/motd.go core/method/methods/join.go`</text>
</g>
<!-- 797b710b&#45;22e1&#45;43aa&#45;add7&#45;5261acb7d8ca&#45;&gt;693f277e&#45;0b69&#45;48d9&#45;837c&#45;7c6579c399d2 -->
<g id="edge7" class="edge">
<title>797b710b&#45;22e1&#45;43aa&#45;add7&#45;5261acb7d8ca&#45;&gt;693f277e&#45;0b69&#45;48d9&#45;837c&#45;7c6579c399d2</title>
<path fill="none" stroke="black" stroke-dasharray="5,2" d="M1556.5,-72.72C1556.5,-64.27 1556.5,-54.89 1556.5,-46.36"/>
<polygon fill="black" stroke="black" points="1560,-46.15 1556.5,-36.15 1553,-46.15 1560,-46.15"/>
</g>
</g>
</svg>
