<?xml version="1.0" encoding="UTF-8" standalone="no"?>
<!DOCTYPE svg PUBLIC "-//W3C//DTD SVG 1.1//EN"
 "http://www.w3.org/Graphics/SVG/1.1/DTD/svg11.dtd">
<!-- Generated by graphviz version 2.43.0 (0)
 -->
<!-- Title: %3 Pages: 1 -->
<svg width="1191pt" height="238pt"
 viewBox="0.00 0.00 1191.00 237.74" xmlns="http://www.w3.org/2000/svg" xmlns:xlink="http://www.w3.org/1999/xlink">
<g id="graph0" class="graph" transform="scale(1 1) rotate(0) translate(36 201.74)">
<title>%3</title>
<polygon fill="dimgray" stroke="transparent" points="-36,36 -36,-201.74 1155,-201.74 1155,36 -36,36"/>
<text text-anchor="middle" x="559.5" y="-150.54" font-family="Helvetica,sans-Serif" font-size="14.00">Sweep&#39;s Plan &amp; Progress</text>
<!-- start -->
<g id="node1" class="node">
<title>start</title>
</g>
<!-- 8dec7141&#45;3a7e&#45;4716&#45;92a5&#45;7ffc5eb0a973 -->
<g id="node3" class="node">
<title>8dec7141&#45;3a7e&#45;4716&#45;92a5&#45;7ffc5eb0a973</title>
<ellipse fill="#0ee832" stroke="black" cx="254.5" cy="-99.87" rx="155.63" ry="26.74"/>
<text text-anchor="middle" x="254.5" y="-103.67" font-family="Helvetica,sans-Serif" font-size="14.00">✓ Modify</text>
<text text-anchor="middle" x="254.5" y="-88.67" font-family="Helvetica,sans-Serif" font-size="14.00">core/method/methods/join.go</text>
</g>
<!-- start&#45;&gt;8dec7141&#45;3a7e&#45;4716&#45;92a5&#45;7ffc5eb0a973 -->
<g id="edge6" class="edge">
<title>start&#45;&gt;8dec7141&#45;3a7e&#45;4716&#45;92a5&#45;7ffc5eb0a973</title>
<path fill="none" stroke="black" d="M47.1,-99.87C50.35,-99.87 66.57,-99.87 88.62,-99.87"/>
<polygon fill="black" stroke="black" points="88.78,-103.37 98.78,-99.87 88.78,-96.37 88.78,-103.37"/>
<text text-anchor="middle" x="72.97" y="-106.67" font-family="Helvetica,sans-Serif" font-size="14.00">Start</text>
</g>
<!-- end -->
<g id="node2" class="node">
<title>end</title>
</g>
<!-- 89de3bbc&#45;6143&#45;4d24&#45;95e7&#45;42b25d12e9e8 -->
<g id="node4" class="node">
<title>89de3bbc&#45;6143&#45;4d24&#45;95e7&#45;42b25d12e9e8</title>
<ellipse fill="white" stroke="black" cx="607.5" cy="-99.87" rx="113.69" ry="26.74"/>
<text text-anchor="middle" x="607.5" y="-103.67" font-family="Helvetica,sans-Serif" font-size="14.00">▶ Modify</text>
<text text-anchor="middle" x="607.5" y="-88.67" font-family="Helvetica,sans-Serif" font-size="14.00">mc/packet/builder.go</text>
</g>
<!-- 8dec7141&#45;3a7e&#45;4716&#45;92a5&#45;7ffc5eb0a973&#45;&gt;89de3bbc&#45;6143&#45;4d24&#45;95e7&#45;42b25d12e9e8 -->
<g id="edge2" class="edge">
<title>8dec7141&#45;3a7e&#45;4716&#45;92a5&#45;7ffc5eb0a973&#45;&gt;89de3bbc&#45;6143&#45;4d24&#45;95e7&#45;42b25d12e9e8</title>
<path fill="none" stroke="black" d="M410.32,-99.87C434.69,-99.87 459.06,-99.87 483.43,-99.87"/>
<polygon fill="black" stroke="black" points="483.5,-103.37 493.5,-99.87 483.5,-96.37 483.5,-103.37"/>
</g>
<!-- e8b74402&#45;7122&#45;43ed&#45;8e85&#45;90034eac3d6c -->
<g id="node6" class="node">
<title>e8b74402&#45;7122&#45;43ed&#45;8e85&#45;90034eac3d6c</title>
<polygon fill="#0ee832" stroke="black" points="413,-36 0,-36 0,0 413,0 413,-36"/>
<text text-anchor="middle" x="206.5" y="-14.3" font-family="Helvetica,sans-Serif" font-size="14.00">✓ Run GitHub Actions for `core/method/methods/join.go`</text>
</g>
<!-- 8dec7141&#45;3a7e&#45;4716&#45;92a5&#45;7ffc5eb0a973&#45;&gt;e8b74402&#45;7122&#45;43ed&#45;8e85&#45;90034eac3d6c -->
<g id="edge1" class="edge">
<title>8dec7141&#45;3a7e&#45;4716&#45;92a5&#45;7ffc5eb0a973&#45;&gt;e8b74402&#45;7122&#45;43ed&#45;8e85&#45;90034eac3d6c</title>
<path fill="none" stroke="black" stroke-dasharray="5,2" d="M238.78,-72.72C233.43,-63.8 227.44,-53.84 222.09,-44.95"/>
<polygon fill="black" stroke="black" points="224.96,-42.91 216.8,-36.15 218.96,-46.52 224.96,-42.91"/>
</g>
<!-- 105309b7&#45;ed79&#45;407a&#45;9708&#45;4926cb05a63a -->
<g id="node5" class="node">
<title>105309b7&#45;ed79&#45;407a&#45;9708&#45;4926cb05a63a</title>
<ellipse fill="white" stroke="black" cx="903.5" cy="-99.87" rx="89.19" ry="26.74"/>
<text text-anchor="middle" x="903.5" y="-103.67" font-family="Helvetica,sans-Serif" font-size="14.00">▶ Modify</text>
<text text-anchor="middle" x="903.5" y="-88.67" font-family="Helvetica,sans-Serif" font-size="14.00">utils/random.go</text>
</g>
<!-- 89de3bbc&#45;6143&#45;4d24&#45;95e7&#45;42b25d12e9e8&#45;&gt;105309b7&#45;ed79&#45;407a&#45;9708&#45;4926cb05a63a -->
<g id="edge4" class="edge">
<title>89de3bbc&#45;6143&#45;4d24&#45;95e7&#45;42b25d12e9e8&#45;&gt;105309b7&#45;ed79&#45;407a&#45;9708&#45;4926cb05a63a</title>
<path fill="none" stroke="black" d="M721.39,-99.87C748.95,-99.87 776.51,-99.87 804.07,-99.87"/>
<polygon fill="black" stroke="black" points="804.22,-103.37 814.22,-99.87 804.22,-96.37 804.22,-103.37"/>
</g>
<!-- 5f17b052&#45;4bd9&#45;43da&#45;9c9d&#45;2e2d0b15e8c7 -->
<g id="node7" class="node">
<title>5f17b052&#45;4bd9&#45;43da&#45;9c9d&#45;2e2d0b15e8c7</title>
<polygon fill="white" stroke="black" points="784,-36 431,-36 431,0 784,0 784,-36"/>
<text text-anchor="middle" x="607.5" y="-14.3" font-family="Helvetica,sans-Serif" font-size="14.00">▶ Run GitHub Actions for `mc/packet/builder.go`</text>
</g>
<!-- 89de3bbc&#45;6143&#45;4d24&#45;95e7&#45;42b25d12e9e8&#45;&gt;5f17b052&#45;4bd9&#45;43da&#45;9c9d&#45;2e2d0b15e8c7 -->
<g id="edge3" class="edge">
<title>89de3bbc&#45;6143&#45;4d24&#45;95e7&#45;42b25d12e9e8&#45;&gt;5f17b052&#45;4bd9&#45;43da&#45;9c9d&#45;2e2d0b15e8c7</title>
<path fill="none" stroke="black" stroke-dasharray="5,2" d="M607.5,-72.72C607.5,-64.27 607.5,-54.89 607.5,-46.36"/>
<polygon fill="black" stroke="black" points="611,-46.15 607.5,-36.15 604,-46.15 611,-46.15"/>
</g>
<!-- 105309b7&#45;ed79&#45;407a&#45;9708&#45;4926cb05a63a&#45;&gt;end -->
<g id="edge7" class="edge">
<title>105309b7&#45;ed79&#45;407a&#45;9708&#45;4926cb05a63a&#45;&gt;end</title>
<path fill="none" stroke="black" d="M992.82,-99.87C1011.57,-99.87 1028.87,-99.87 1039.53,-99.87"/>
<polygon fill="black" stroke="black" points="1039.81,-103.37 1049.81,-99.87 1039.81,-96.37 1039.81,-103.37"/>
<text text-anchor="middle" x="1021.3" y="-106.67" font-family="Helvetica,sans-Serif" font-size="14.00">Finish</text>
</g>
<!-- 7b92a24e&#45;2dfa&#45;472b&#45;abdc&#45;d107c880b07b -->
<g id="node8" class="node">
<title>7b92a24e&#45;2dfa&#45;472b&#45;abdc&#45;d107c880b07b</title>
<polygon fill="white" stroke="black" points="1119,-36 802,-36 802,0 1119,0 1119,-36"/>
<text text-anchor="middle" x="960.5" y="-14.3" font-family="Helvetica,sans-Serif" font-size="14.00">▶ Run GitHub Actions for `utils/random.go`</text>
</g>
<!-- 105309b7&#45;ed79&#45;407a&#45;9708&#45;4926cb05a63a&#45;&gt;7b92a24e&#45;2dfa&#45;472b&#45;abdc&#45;d107c880b07b -->
<g id="edge5" class="edge">
<title>105309b7&#45;ed79&#45;407a&#45;9708&#45;4926cb05a63a&#45;&gt;7b92a24e&#45;2dfa&#45;472b&#45;abdc&#45;d107c880b07b</title>
<path fill="none" stroke="black" stroke-dasharray="5,2" d="M921.85,-73.16C928.36,-64.04 935.68,-53.77 942.19,-44.65"/>
<polygon fill="black" stroke="black" points="945.17,-46.51 948.13,-36.34 939.47,-42.44 945.17,-46.51"/>
</g>
</g>
</svg>
