<?xml version="1.0" encoding="UTF-8" standalone="no"?>
<!DOCTYPE svg PUBLIC "-//W3C//DTD SVG 1.1//EN"
 "http://www.w3.org/Graphics/SVG/1.1/DTD/svg11.dtd">
<!-- Generated by graphviz version 2.43.0 (0)
 -->
<!-- Title: %3 Pages: 1 -->
<svg width="1364pt" height="238pt"
 viewBox="0.00 0.00 1364.00 237.74" xmlns="http://www.w3.org/2000/svg" xmlns:xlink="http://www.w3.org/1999/xlink">
<g id="graph0" class="graph" transform="scale(1 1) rotate(0) translate(36 201.74)">
<title>%3</title>
<polygon fill="dimgray" stroke="transparent" points="-36,36 -36,-201.74 1328,-201.74 1328,36 -36,36"/>
<text text-anchor="middle" x="646" y="-150.54" font-family="Helvetica,sans-Serif" font-size="14.00">Sweep&#39;s Plan &amp; Progress</text>
<!-- start -->
<g id="node1" class="node">
<title>start</title>
</g>
<!-- 4c523b37&#45;0a36&#45;4d71&#45;aba5&#45;0cdc7e5723d7 -->
<g id="node3" class="node">
<title>4c523b37&#45;0a36&#45;4d71&#45;aba5&#45;0cdc7e5723d7</title>
<ellipse fill="#ee0000" stroke="black" cx="249.5" cy="-99.87" rx="159.61" ry="26.74"/>
<text text-anchor="middle" x="249.5" y="-103.67" font-family="Helvetica,sans-Serif" font-size="14.00">✗ Modify</text>
<text text-anchor="middle" x="249.5" y="-88.67" font-family="Helvetica,sans-Serif" font-size="14.00">core/method/methods/ping.go</text>
</g>
<!-- start&#45;&gt;4c523b37&#45;0a36&#45;4d71&#45;aba5&#45;0cdc7e5723d7 -->
<g id="edge6" class="edge">
<title>start&#45;&gt;4c523b37&#45;0a36&#45;4d71&#45;aba5&#45;0cdc7e5723d7</title>
<path fill="none" stroke="black" d="M38.11,-99.87C41.37,-99.87 57.43,-99.87 79.36,-99.87"/>
<polygon fill="black" stroke="black" points="79.46,-103.37 89.46,-99.87 79.46,-96.37 79.46,-103.37"/>
<text text-anchor="middle" x="63.85" y="-106.67" font-family="Helvetica,sans-Serif" font-size="14.00">Start</text>
</g>
<!-- end -->
<g id="node2" class="node">
<title>end</title>
</g>
<!-- 7adfe660&#45;1586&#45;4e94&#45;bf97&#45;f4807676ca87 -->
<g id="node4" class="node">
<title>7adfe660&#45;1586&#45;4e94&#45;bf97&#45;f4807676ca87</title>
<ellipse fill="#ee0000" stroke="black" cx="649.5" cy="-99.87" rx="163.18" ry="26.74"/>
<text text-anchor="middle" x="649.5" y="-103.67" font-family="Helvetica,sans-Serif" font-size="14.00">✗ Modify</text>
<text text-anchor="middle" x="649.5" y="-88.67" font-family="Helvetica,sans-Serif" font-size="14.00">core/method/methods/motd.go</text>
</g>
<!-- 4c523b37&#45;0a36&#45;4d71&#45;aba5&#45;0cdc7e5723d7&#45;&gt;7adfe660&#45;1586&#45;4e94&#45;bf97&#45;f4807676ca87 -->
<g id="edge2" class="edge">
<title>4c523b37&#45;0a36&#45;4d71&#45;aba5&#45;0cdc7e5723d7&#45;&gt;7adfe660&#45;1586&#45;4e94&#45;bf97&#45;f4807676ca87</title>
<path fill="none" stroke="black" d="M409.66,-99.87C431.73,-99.87 453.8,-99.87 475.87,-99.87"/>
<polygon fill="black" stroke="black" points="476.01,-103.37 486.01,-99.87 476.01,-96.37 476.01,-103.37"/>
</g>
<!-- 457ee0c1&#45;8c7d&#45;4b38&#45;9e11&#45;6435a4ceaa1b -->
<g id="node6" class="node">
<title>457ee0c1&#45;8c7d&#45;4b38&#45;9e11&#45;6435a4ceaa1b</title>
<polygon fill="#ee0000" stroke="black" points="419,-36 0,-36 0,0 419,0 419,-36"/>
<text text-anchor="middle" x="209.5" y="-14.3" font-family="Helvetica,sans-Serif" font-size="14.00">✗ Run GitHub Actions for `core/method/methods/ping.go`</text>
</g>
<!-- 4c523b37&#45;0a36&#45;4d71&#45;aba5&#45;0cdc7e5723d7&#45;&gt;457ee0c1&#45;8c7d&#45;4b38&#45;9e11&#45;6435a4ceaa1b -->
<g id="edge1" class="edge">
<title>4c523b37&#45;0a36&#45;4d71&#45;aba5&#45;0cdc7e5723d7&#45;&gt;457ee0c1&#45;8c7d&#45;4b38&#45;9e11&#45;6435a4ceaa1b</title>
<path fill="none" stroke="black" stroke-dasharray="5,2" d="M236.4,-72.72C231.99,-63.9 227.06,-54.05 222.64,-45.23"/>
<polygon fill="black" stroke="black" points="225.69,-43.52 218.09,-36.15 219.44,-46.66 225.69,-43.52"/>
</g>
<!-- 472a96fa&#45;e751&#45;4089&#45;9d5d&#45;0bcc7cb9edb2 -->
<g id="node5" class="node">
<title>472a96fa&#45;e751&#45;4089&#45;9d5d&#45;0bcc7cb9edb2</title>
<ellipse fill="white" stroke="black" cx="1045.5" cy="-99.87" rx="155.63" ry="26.74"/>
<text text-anchor="middle" x="1045.5" y="-103.67" font-family="Helvetica,sans-Serif" font-size="14.00">▶ Modify</text>
<text text-anchor="middle" x="1045.5" y="-88.67" font-family="Helvetica,sans-Serif" font-size="14.00">core/method/methods/join.go</text>
</g>
<!-- 7adfe660&#45;1586&#45;4e94&#45;bf97&#45;f4807676ca87&#45;&gt;472a96fa&#45;e751&#45;4089&#45;9d5d&#45;0bcc7cb9edb2 -->
<g id="edge4" class="edge">
<title>7adfe660&#45;1586&#45;4e94&#45;bf97&#45;f4807676ca87&#45;&gt;472a96fa&#45;e751&#45;4089&#45;9d5d&#45;0bcc7cb9edb2</title>
<path fill="none" stroke="black" d="M813.08,-99.87C835.26,-99.87 857.43,-99.87 879.61,-99.87"/>
<polygon fill="black" stroke="black" points="879.8,-103.37 889.8,-99.87 879.8,-96.37 879.8,-103.37"/>
</g>
<!-- 7be4efee&#45;fdf8&#45;43c3&#45;bdc7&#45;3abf5d891f4c -->
<g id="node7" class="node">
<title>7be4efee&#45;fdf8&#45;43c3&#45;bdc7&#45;3abf5d891f4c</title>
<polygon fill="yellow" stroke="black" points="862.5,-36 436.5,-36 436.5,0 862.5,0 862.5,-36"/>
<text text-anchor="middle" x="649.5" y="-14.3" font-family="Helvetica,sans-Serif" font-size="14.00">⋯ Run GitHub Actions for `core/method/methods/motd.go`</text>
</g>
<!-- 7adfe660&#45;1586&#45;4e94&#45;bf97&#45;f4807676ca87&#45;&gt;7be4efee&#45;fdf8&#45;43c3&#45;bdc7&#45;3abf5d891f4c -->
<g id="edge3" class="edge">
<title>7adfe660&#45;1586&#45;4e94&#45;bf97&#45;f4807676ca87&#45;&gt;7be4efee&#45;fdf8&#45;43c3&#45;bdc7&#45;3abf5d891f4c</title>
<path fill="none" stroke="black" stroke-dasharray="5,2" d="M649.5,-72.72C649.5,-64.27 649.5,-54.89 649.5,-46.36"/>
<polygon fill="black" stroke="black" points="653,-46.15 649.5,-36.15 646,-46.15 653,-46.15"/>
</g>
<!-- 472a96fa&#45;e751&#45;4089&#45;9d5d&#45;0bcc7cb9edb2&#45;&gt;end -->
<g id="edge7" class="edge">
<title>472a96fa&#45;e751&#45;4089&#45;9d5d&#45;0bcc7cb9edb2&#45;&gt;end</title>
<path fill="none" stroke="black" d="M1201.31,-99.87C1221.2,-99.87 1238.22,-99.87 1248.63,-99.87"/>
<polygon fill="black" stroke="black" points="1248.85,-103.37 1258.85,-99.87 1248.85,-96.37 1248.85,-103.37"/>
<text text-anchor="middle" x="1230.03" y="-106.67" font-family="Helvetica,sans-Serif" font-size="14.00">Finish</text>
</g>
<!-- d6b5d406&#45;cda7&#45;4123&#45;9062&#45;defbfae24da2 -->
<g id="node8" class="node">
<title>d6b5d406&#45;cda7&#45;4123&#45;9062&#45;defbfae24da2</title>
<polygon fill="white" stroke="black" points="1292,-36 881,-36 881,0 1292,0 1292,-36"/>
<text text-anchor="middle" x="1086.5" y="-14.3" font-family="Helvetica,sans-Serif" font-size="14.00">▶ Run GitHub Actions for `core/method/methods/join.go`</text>
</g>
<!-- 472a96fa&#45;e751&#45;4089&#45;9d5d&#45;0bcc7cb9edb2&#45;&gt;d6b5d406&#45;cda7&#45;4123&#45;9062&#45;defbfae24da2 -->
<g id="edge5" class="edge">
<title>472a96fa&#45;e751&#45;4089&#45;9d5d&#45;0bcc7cb9edb2&#45;&gt;d6b5d406&#45;cda7&#45;4123&#45;9062&#45;defbfae24da2</title>
<path fill="none" stroke="black" stroke-dasharray="5,2" d="M1058.92,-72.72C1063.45,-63.9 1068.51,-54.05 1073.04,-45.23"/>
<polygon fill="black" stroke="black" points="1076.25,-46.64 1077.7,-36.15 1070.02,-43.44 1076.25,-46.64"/>
</g>
</g>
</svg>
