<?xml version="1.0" encoding="UTF-8" standalone="no"?>
<!DOCTYPE svg PUBLIC "-//W3C//DTD SVG 1.1//EN"
 "http://www.w3.org/Graphics/SVG/1.1/DTD/svg11.dtd">
<!-- Generated by graphviz version 2.43.0 (0)
 -->
<!-- Title: %3 Pages: 1 -->
<svg width="1642pt" height="238pt"
 viewBox="0.00 0.00 1641.50 237.74" xmlns="http://www.w3.org/2000/svg" xmlns:xlink="http://www.w3.org/1999/xlink">
<g id="graph0" class="graph" transform="scale(1 1) rotate(0) translate(36 201.74)">
<title>%3</title>
<polygon fill="dimgray" stroke="transparent" points="-36,36 -36,-201.74 1605.5,-201.74 1605.5,36 -36,36"/>
<text text-anchor="middle" x="784.75" y="-150.54" font-family="Helvetica,sans-Serif" font-size="14.00">Sweep&#39;s Plan &amp; Progress</text>
<!-- start -->
<g id="node1" class="node">
<title>start</title>
</g>
<!-- 121be873&#45;59f2&#45;49e6&#45;8113&#45;dab1ff6e2c98 -->
<g id="node3" class="node">
<title>121be873&#45;59f2&#45;49e6&#45;8113&#45;dab1ff6e2c98</title>
<ellipse fill="yellow" stroke="black" cx="245.5" cy="-99.87" rx="155.63" ry="26.74"/>
<text text-anchor="middle" x="245.5" y="-103.67" font-family="Helvetica,sans-Serif" font-size="14.00">⋯ Modify</text>
<text text-anchor="middle" x="245.5" y="-88.67" font-family="Helvetica,sans-Serif" font-size="14.00">core/method/methods/join.go</text>
</g>
<!-- start&#45;&gt;121be873&#45;59f2&#45;49e6&#45;8113&#45;dab1ff6e2c98 -->
<g id="edge8" class="edge">
<title>start&#45;&gt;121be873&#45;59f2&#45;49e6&#45;8113&#45;dab1ff6e2c98</title>
<path fill="none" stroke="black" d="M38.1,-99.87C41.35,-99.87 57.57,-99.87 79.62,-99.87"/>
<polygon fill="black" stroke="black" points="79.78,-103.37 89.78,-99.87 79.78,-96.37 79.78,-103.37"/>
<text text-anchor="middle" x="63.97" y="-106.67" font-family="Helvetica,sans-Serif" font-size="14.00">Start</text>
</g>
<!-- end -->
<g id="node2" class="node">
<title>end</title>
</g>
<!-- d58e2f87&#45;7b54&#45;486a&#45;ac87&#45;24237cf2b6b0 -->
<g id="node4" class="node">
<title>d58e2f87&#45;7b54&#45;486a&#45;ac87&#45;24237cf2b6b0</title>
<ellipse fill="white" stroke="black" cx="640.5" cy="-99.87" rx="163.18" ry="26.74"/>
<text text-anchor="middle" x="640.5" y="-103.67" font-family="Helvetica,sans-Serif" font-size="14.00">▶ Modify</text>
<text text-anchor="middle" x="640.5" y="-88.67" font-family="Helvetica,sans-Serif" font-size="14.00">core/method/methods/motd.go</text>
</g>
<!-- 121be873&#45;59f2&#45;49e6&#45;8113&#45;dab1ff6e2c98&#45;&gt;d58e2f87&#45;7b54&#45;486a&#45;ac87&#45;24237cf2b6b0 -->
<g id="edge2" class="edge">
<title>121be873&#45;59f2&#45;49e6&#45;8113&#45;dab1ff6e2c98&#45;&gt;d58e2f87&#45;7b54&#45;486a&#45;ac87&#45;24237cf2b6b0</title>
<path fill="none" stroke="black" d="M401.34,-99.87C423.21,-99.87 445.09,-99.87 466.96,-99.87"/>
<polygon fill="black" stroke="black" points="467.01,-103.37 477.01,-99.87 467.01,-96.37 467.01,-103.37"/>
</g>
<!-- 8d0cb66c&#45;ea6f&#45;4b01&#45;becb&#45;f8746578608b -->
<g id="node7" class="node">
<title>8d0cb66c&#45;ea6f&#45;4b01&#45;becb&#45;f8746578608b</title>
<polygon fill="white" stroke="black" points="411,-36 0,-36 0,0 411,0 411,-36"/>
<text text-anchor="middle" x="205.5" y="-14.3" font-family="Helvetica,sans-Serif" font-size="14.00">▶ Run GitHub Actions for `core/method/methods/join.go`</text>
</g>
<!-- 121be873&#45;59f2&#45;49e6&#45;8113&#45;dab1ff6e2c98&#45;&gt;8d0cb66c&#45;ea6f&#45;4b01&#45;becb&#45;f8746578608b -->
<g id="edge1" class="edge">
<title>121be873&#45;59f2&#45;49e6&#45;8113&#45;dab1ff6e2c98&#45;&gt;8d0cb66c&#45;ea6f&#45;4b01&#45;becb&#45;f8746578608b</title>
<path fill="none" stroke="black" stroke-dasharray="5,2" d="M232.4,-72.72C227.99,-63.9 223.06,-54.05 218.64,-45.23"/>
<polygon fill="black" stroke="black" points="221.69,-43.52 214.09,-36.15 215.44,-46.66 221.69,-43.52"/>
</g>
<!-- 52ea50e1&#45;da82&#45;482d&#45;abe4&#45;146714f16b49 -->
<g id="node5" class="node">
<title>52ea50e1&#45;da82&#45;482d&#45;abe4&#45;146714f16b49</title>
<ellipse fill="white" stroke="black" cx="1078.5" cy="-99.87" rx="159.61" ry="26.74"/>
<text text-anchor="middle" x="1078.5" y="-103.67" font-family="Helvetica,sans-Serif" font-size="14.00">▶ Modify</text>
<text text-anchor="middle" x="1078.5" y="-88.67" font-family="Helvetica,sans-Serif" font-size="14.00">core/method/methods/ping.go</text>
</g>
<!-- d58e2f87&#45;7b54&#45;486a&#45;ac87&#45;24237cf2b6b0&#45;&gt;52ea50e1&#45;da82&#45;482d&#45;abe4&#45;146714f16b49 -->
<g id="edge4" class="edge">
<title>d58e2f87&#45;7b54&#45;486a&#45;ac87&#45;24237cf2b6b0&#45;&gt;52ea50e1&#45;da82&#45;482d&#45;abe4&#45;146714f16b49</title>
<path fill="none" stroke="black" d="M803.89,-99.87C838.72,-99.87 873.54,-99.87 908.36,-99.87"/>
<polygon fill="black" stroke="black" points="908.67,-103.37 918.67,-99.87 908.67,-96.37 908.67,-103.37"/>
</g>
<!-- f4ba2493&#45;bc90&#45;4ec7&#45;9fae&#45;f0d44c18eb09 -->
<g id="node8" class="node">
<title>f4ba2493&#45;bc90&#45;4ec7&#45;9fae&#45;f0d44c18eb09</title>
<polygon fill="white" stroke="black" points="851.5,-36 429.5,-36 429.5,0 851.5,0 851.5,-36"/>
<text text-anchor="middle" x="640.5" y="-14.3" font-family="Helvetica,sans-Serif" font-size="14.00">▶ Run GitHub Actions for `core/method/methods/motd.go`</text>
</g>
<!-- d58e2f87&#45;7b54&#45;486a&#45;ac87&#45;24237cf2b6b0&#45;&gt;f4ba2493&#45;bc90&#45;4ec7&#45;9fae&#45;f0d44c18eb09 -->
<g id="edge3" class="edge">
<title>d58e2f87&#45;7b54&#45;486a&#45;ac87&#45;24237cf2b6b0&#45;&gt;f4ba2493&#45;bc90&#45;4ec7&#45;9fae&#45;f0d44c18eb09</title>
<path fill="none" stroke="black" stroke-dasharray="5,2" d="M640.5,-72.72C640.5,-64.27 640.5,-54.89 640.5,-46.36"/>
<polygon fill="black" stroke="black" points="644,-46.15 640.5,-36.15 637,-46.15 644,-46.15"/>
</g>
<!-- 250d9ded&#45;493a&#45;4de5&#45;b17b&#45;5a76eee0bf5a -->
<g id="node6" class="node">
<title>250d9ded&#45;493a&#45;4de5&#45;b17b&#45;5a76eee0bf5a</title>
<ellipse fill="white" stroke="black" cx="1383.5" cy="-99.87" rx="54.39" ry="26.74"/>
<text text-anchor="middle" x="1383.5" y="-103.67" font-family="Helvetica,sans-Serif" font-size="14.00">▶ Modify</text>
<text text-anchor="middle" x="1383.5" y="-88.67" font-family="Helvetica,sans-Serif" font-size="14.00">main.go</text>
</g>
<!-- 52ea50e1&#45;da82&#45;482d&#45;abe4&#45;146714f16b49&#45;&gt;250d9ded&#45;493a&#45;4de5&#45;b17b&#45;5a76eee0bf5a -->
<g id="edge6" class="edge">
<title>52ea50e1&#45;da82&#45;482d&#45;abe4&#45;146714f16b49&#45;&gt;250d9ded&#45;493a&#45;4de5&#45;b17b&#45;5a76eee0bf5a</title>
<path fill="none" stroke="black" d="M1238.45,-99.87C1265.16,-99.87 1291.87,-99.87 1318.58,-99.87"/>
<polygon fill="black" stroke="black" points="1318.82,-103.37 1328.82,-99.87 1318.82,-96.37 1318.82,-103.37"/>
</g>
<!-- 2df0bdac&#45;1b16&#45;41ae&#45;bf85&#45;38e0ed56d74d -->
<g id="node9" class="node">
<title>2df0bdac&#45;1b16&#45;41ae&#45;bf85&#45;38e0ed56d74d</title>
<polygon fill="white" stroke="black" points="1287,-36 870,-36 870,0 1287,0 1287,-36"/>
<text text-anchor="middle" x="1078.5" y="-14.3" font-family="Helvetica,sans-Serif" font-size="14.00">▶ Run GitHub Actions for `core/method/methods/ping.go`</text>
</g>
<!-- 52ea50e1&#45;da82&#45;482d&#45;abe4&#45;146714f16b49&#45;&gt;2df0bdac&#45;1b16&#45;41ae&#45;bf85&#45;38e0ed56d74d -->
<g id="edge5" class="edge">
<title>52ea50e1&#45;da82&#45;482d&#45;abe4&#45;146714f16b49&#45;&gt;2df0bdac&#45;1b16&#45;41ae&#45;bf85&#45;38e0ed56d74d</title>
<path fill="none" stroke="black" stroke-dasharray="5,2" d="M1078.5,-72.72C1078.5,-64.27 1078.5,-54.89 1078.5,-46.36"/>
<polygon fill="black" stroke="black" points="1082,-46.15 1078.5,-36.15 1075,-46.15 1082,-46.15"/>
</g>
<!-- 250d9ded&#45;493a&#45;4de5&#45;b17b&#45;5a76eee0bf5a&#45;&gt;end -->
<g id="edge9" class="edge">
<title>250d9ded&#45;493a&#45;4de5&#45;b17b&#45;5a76eee0bf5a&#45;&gt;end</title>
<path fill="none" stroke="black" d="M1438.19,-99.87C1455.9,-99.87 1473.79,-99.87 1484.76,-99.87"/>
<polygon fill="black" stroke="black" points="1484.76,-103.37 1494.76,-99.87 1484.76,-96.37 1484.76,-103.37"/>
<text text-anchor="middle" x="1466.47" y="-106.67" font-family="Helvetica,sans-Serif" font-size="14.00">Finish</text>
</g>
<!-- 1d129fcb&#45;45ae&#45;4aab&#45;bd63&#45;31a903f93be4 -->
<g id="node10" class="node">
<title>1d129fcb&#45;45ae&#45;4aab&#45;bd63&#45;31a903f93be4</title>
<polygon fill="white" stroke="black" points="1569.5,-36 1305.5,-36 1305.5,0 1569.5,0 1569.5,-36"/>
<text text-anchor="middle" x="1437.5" y="-14.3" font-family="Helvetica,sans-Serif" font-size="14.00">▶ Run GitHub Actions for `main.go`</text>
</g>
<!-- 250d9ded&#45;493a&#45;4de5&#45;b17b&#45;5a76eee0bf5a&#45;&gt;1d129fcb&#45;45ae&#45;4aab&#45;bd63&#45;31a903f93be4 -->
<g id="edge7" class="edge">
<title>250d9ded&#45;493a&#45;4de5&#45;b17b&#45;5a76eee0bf5a&#45;&gt;1d129fcb&#45;45ae&#45;4aab&#45;bd63&#45;31a903f93be4</title>
<path fill="none" stroke="black" stroke-dasharray="5,2" d="M1400.29,-74.04C1406.58,-64.74 1413.73,-54.15 1420.08,-44.77"/>
<polygon fill="black" stroke="black" points="1423.15,-46.47 1425.86,-36.22 1417.35,-42.55 1423.15,-46.47"/>
</g>
</g>
</svg>
