<?xml version="1.0" encoding="UTF-8" standalone="no"?>
<!DOCTYPE svg PUBLIC "-//W3C//DTD SVG 1.1//EN"
 "http://www.w3.org/Graphics/SVG/1.1/DTD/svg11.dtd">
<!-- Generated by graphviz version 2.43.0 (0)
 -->
<!-- Title: %3 Pages: 1 -->
<svg width="1193pt" height="238pt"
 viewBox="0.00 0.00 1193.00 237.74" xmlns="http://www.w3.org/2000/svg" xmlns:xlink="http://www.w3.org/1999/xlink">
<g id="graph0" class="graph" transform="scale(1 1) rotate(0) translate(36 201.74)">
<title>%3</title>
<polygon fill="dimgray" stroke="transparent" points="-36,36 -36,-201.74 1157,-201.74 1157,36 -36,36"/>
<text text-anchor="middle" x="560.5" y="-150.54" font-family="Helvetica,sans-Serif" font-size="14.00">Sweep&#39;s Plan &amp; Progress</text>
<!-- start -->
<g id="node1" class="node">
<title>start</title>
</g>
<!-- 8dec7141&#45;3a7e&#45;4716&#45;92a5&#45;7ffc5eb0a973 -->
<g id="node3" class="node">
<title>8dec7141&#45;3a7e&#45;4716&#45;92a5&#45;7ffc5eb0a973</title>
<ellipse fill="#0ee832" stroke="black" cx="255.5" cy="-99.87" rx="155.63" ry="26.74"/>
<text text-anchor="middle" x="255.5" y="-103.67" font-family="Helvetica,sans-Serif" font-size="14.00">✓ Modify</text>
<text text-anchor="middle" x="255.5" y="-88.67" font-family="Helvetica,sans-Serif" font-size="14.00">core/method/methods/join.go</text>
</g>
<!-- start&#45;&gt;8dec7141&#45;3a7e&#45;4716&#45;92a5&#45;7ffc5eb0a973 -->
<g id="edge6" class="edge">
<title>start&#45;&gt;8dec7141&#45;3a7e&#45;4716&#45;92a5&#45;7ffc5eb0a973</title>
<path fill="none" stroke="black" d="M48.1,-99.87C51.35,-99.87 67.57,-99.87 89.62,-99.87"/>
<polygon fill="black" stroke="black" points="89.78,-103.37 99.78,-99.87 89.78,-96.37 89.78,-103.37"/>
<text text-anchor="middle" x="73.97" y="-106.67" font-family="Helvetica,sans-Serif" font-size="14.00">Start</text>
</g>
<!-- end -->
<g id="node2" class="node">
<title>end</title>
</g>
<!-- 89de3bbc&#45;6143&#45;4d24&#45;95e7&#45;42b25d12e9e8 -->
<g id="node4" class="node">
<title>89de3bbc&#45;6143&#45;4d24&#45;95e7&#45;42b25d12e9e8</title>
<ellipse fill="white" stroke="black" cx="609.5" cy="-99.87" rx="113.69" ry="26.74"/>
<text text-anchor="middle" x="609.5" y="-103.67" font-family="Helvetica,sans-Serif" font-size="14.00">▶ Modify</text>
<text text-anchor="middle" x="609.5" y="-88.67" font-family="Helvetica,sans-Serif" font-size="14.00">mc/packet/builder.go</text>
</g>
<!-- 8dec7141&#45;3a7e&#45;4716&#45;92a5&#45;7ffc5eb0a973&#45;&gt;89de3bbc&#45;6143&#45;4d24&#45;95e7&#45;42b25d12e9e8 -->
<g id="edge2" class="edge">
<title>8dec7141&#45;3a7e&#45;4716&#45;92a5&#45;7ffc5eb0a973&#45;&gt;89de3bbc&#45;6143&#45;4d24&#45;95e7&#45;42b25d12e9e8</title>
<path fill="none" stroke="black" d="M411.07,-99.87C435.82,-99.87 460.57,-99.87 485.32,-99.87"/>
<polygon fill="black" stroke="black" points="485.56,-103.37 495.56,-99.87 485.56,-96.37 485.56,-103.37"/>
</g>
<!-- e8b74402&#45;7122&#45;43ed&#45;8e85&#45;90034eac3d6c -->
<g id="node6" class="node">
<title>e8b74402&#45;7122&#45;43ed&#45;8e85&#45;90034eac3d6c</title>
<polygon fill="yellow" stroke="black" points="415,-36 0,-36 0,0 415,0 415,-36"/>
<text text-anchor="middle" x="207.5" y="-14.3" font-family="Helvetica,sans-Serif" font-size="14.00">⋯ Run GitHub Actions for `core/method/methods/join.go`</text>
</g>
<!-- 8dec7141&#45;3a7e&#45;4716&#45;92a5&#45;7ffc5eb0a973&#45;&gt;e8b74402&#45;7122&#45;43ed&#45;8e85&#45;90034eac3d6c -->
<g id="edge1" class="edge">
<title>8dec7141&#45;3a7e&#45;4716&#45;92a5&#45;7ffc5eb0a973&#45;&gt;e8b74402&#45;7122&#45;43ed&#45;8e85&#45;90034eac3d6c</title>
<path fill="none" stroke="black" stroke-dasharray="5,2" d="M239.78,-72.72C234.43,-63.8 228.44,-53.84 223.09,-44.95"/>
<polygon fill="black" stroke="black" points="225.96,-42.91 217.8,-36.15 219.96,-46.52 225.96,-42.91"/>
</g>
<!-- 105309b7&#45;ed79&#45;407a&#45;9708&#45;4926cb05a63a -->
<g id="node5" class="node">
<title>105309b7&#45;ed79&#45;407a&#45;9708&#45;4926cb05a63a</title>
<ellipse fill="white" stroke="black" cx="905.5" cy="-99.87" rx="89.19" ry="26.74"/>
<text text-anchor="middle" x="905.5" y="-103.67" font-family="Helvetica,sans-Serif" font-size="14.00">▶ Modify</text>
<text text-anchor="middle" x="905.5" y="-88.67" font-family="Helvetica,sans-Serif" font-size="14.00">utils/random.go</text>
</g>
<!-- 89de3bbc&#45;6143&#45;4d24&#45;95e7&#45;42b25d12e9e8&#45;&gt;105309b7&#45;ed79&#45;407a&#45;9708&#45;4926cb05a63a -->
<g id="edge4" class="edge">
<title>89de3bbc&#45;6143&#45;4d24&#45;95e7&#45;42b25d12e9e8&#45;&gt;105309b7&#45;ed79&#45;407a&#45;9708&#45;4926cb05a63a</title>
<path fill="none" stroke="black" d="M723.39,-99.87C750.95,-99.87 778.51,-99.87 806.07,-99.87"/>
<polygon fill="black" stroke="black" points="806.22,-103.37 816.22,-99.87 806.22,-96.37 806.22,-103.37"/>
</g>
<!-- 5f17b052&#45;4bd9&#45;43da&#45;9c9d&#45;2e2d0b15e8c7 -->
<g id="node7" class="node">
<title>5f17b052&#45;4bd9&#45;43da&#45;9c9d&#45;2e2d0b15e8c7</title>
<polygon fill="white" stroke="black" points="786,-36 433,-36 433,0 786,0 786,-36"/>
<text text-anchor="middle" x="609.5" y="-14.3" font-family="Helvetica,sans-Serif" font-size="14.00">▶ Run GitHub Actions for `mc/packet/builder.go`</text>
</g>
<!-- 89de3bbc&#45;6143&#45;4d24&#45;95e7&#45;42b25d12e9e8&#45;&gt;5f17b052&#45;4bd9&#45;43da&#45;9c9d&#45;2e2d0b15e8c7 -->
<g id="edge3" class="edge">
<title>89de3bbc&#45;6143&#45;4d24&#45;95e7&#45;42b25d12e9e8&#45;&gt;5f17b052&#45;4bd9&#45;43da&#45;9c9d&#45;2e2d0b15e8c7</title>
<path fill="none" stroke="black" stroke-dasharray="5,2" d="M609.5,-72.72C609.5,-64.27 609.5,-54.89 609.5,-46.36"/>
<polygon fill="black" stroke="black" points="613,-46.15 609.5,-36.15 606,-46.15 613,-46.15"/>
</g>
<!-- 105309b7&#45;ed79&#45;407a&#45;9708&#45;4926cb05a63a&#45;&gt;end -->
<g id="edge7" class="edge">
<title>105309b7&#45;ed79&#45;407a&#45;9708&#45;4926cb05a63a&#45;&gt;end</title>
<path fill="none" stroke="black" d="M994.82,-99.87C1013.57,-99.87 1030.87,-99.87 1041.53,-99.87"/>
<polygon fill="black" stroke="black" points="1041.81,-103.37 1051.81,-99.87 1041.81,-96.37 1041.81,-103.37"/>
<text text-anchor="middle" x="1023.3" y="-106.67" font-family="Helvetica,sans-Serif" font-size="14.00">Finish</text>
</g>
<!-- 7b92a24e&#45;2dfa&#45;472b&#45;abdc&#45;d107c880b07b -->
<g id="node8" class="node">
<title>7b92a24e&#45;2dfa&#45;472b&#45;abdc&#45;d107c880b07b</title>
<polygon fill="white" stroke="black" points="1121,-36 804,-36 804,0 1121,0 1121,-36"/>
<text text-anchor="middle" x="962.5" y="-14.3" font-family="Helvetica,sans-Serif" font-size="14.00">▶ Run GitHub Actions for `utils/random.go`</text>
</g>
<!-- 105309b7&#45;ed79&#45;407a&#45;9708&#45;4926cb05a63a&#45;&gt;7b92a24e&#45;2dfa&#45;472b&#45;abdc&#45;d107c880b07b -->
<g id="edge5" class="edge">
<title>105309b7&#45;ed79&#45;407a&#45;9708&#45;4926cb05a63a&#45;&gt;7b92a24e&#45;2dfa&#45;472b&#45;abdc&#45;d107c880b07b</title>
<path fill="none" stroke="black" stroke-dasharray="5,2" d="M923.85,-73.16C930.36,-64.04 937.68,-53.77 944.19,-44.65"/>
<polygon fill="black" stroke="black" points="947.17,-46.51 950.13,-36.34 941.47,-42.44 947.17,-46.51"/>
</g>
</g>
</svg>
