<?xml version="1.0" encoding="UTF-8" standalone="no"?>
<!DOCTYPE svg PUBLIC "-//W3C//DTD SVG 1.1//EN"
 "http://www.w3.org/Graphics/SVG/1.1/DTD/svg11.dtd">
<!-- Generated by graphviz version 2.43.0 (0)
 -->
<!-- Title: %3 Pages: 1 -->
<svg width="2148pt" height="238pt"
 viewBox="0.00 0.00 2148.00 237.74" xmlns="http://www.w3.org/2000/svg" xmlns:xlink="http://www.w3.org/1999/xlink">
<g id="graph0" class="graph" transform="scale(1 1) rotate(0) translate(36 201.74)">
<title>%3</title>
<polygon fill="dimgray" stroke="transparent" points="-36,36 -36,-201.74 2112,-201.74 2112,36 -36,36"/>
<text text-anchor="middle" x="1038" y="-150.54" font-family="Helvetica,sans-Serif" font-size="14.00">Sweep&#39;s Plan &amp; Progress</text>
<!-- start -->
<g id="node1" class="node">
<title>start</title>
</g>
<!-- 7c39c5d5&#45;bd66&#45;45ac&#45;8051&#45;9551b5903633 -->
<g id="node3" class="node">
<title>7c39c5d5&#45;bd66&#45;45ac&#45;8051&#45;9551b5903633</title>
<ellipse fill="#0ee832" stroke="black" cx="230.5" cy="-99.87" rx="111.95" ry="26.74"/>
<text text-anchor="middle" x="230.5" y="-103.67" font-family="Helvetica,sans-Serif" font-size="14.00">✓ Modify</text>
<text text-anchor="middle" x="230.5" y="-88.67" font-family="Helvetica,sans-Serif" font-size="14.00">core/proxy/helper.go</text>
</g>
<!-- start&#45;&gt;7c39c5d5&#45;bd66&#45;45ac&#45;8051&#45;9551b5903633 -->
<g id="edge8" class="edge">
<title>start&#45;&gt;7c39c5d5&#45;bd66&#45;45ac&#45;8051&#45;9551b5903633</title>
<path fill="none" stroke="black" d="M67.23,-99.87C70.82,-99.87 87.24,-99.87 108.38,-99.87"/>
<polygon fill="black" stroke="black" points="108.39,-103.37 118.39,-99.87 108.39,-96.37 108.39,-103.37"/>
<text text-anchor="middle" x="92.89" y="-106.67" font-family="Helvetica,sans-Serif" font-size="14.00">Start</text>
</g>
<!-- end -->
<g id="node2" class="node">
<title>end</title>
</g>
<!-- 16da141f&#45;fc27&#45;4a9d&#45;b0d7&#45;d99fee04f248 -->
<g id="node4" class="node">
<title>16da141f&#45;fc27&#45;4a9d&#45;b0d7&#45;d99fee04f248</title>
<ellipse fill="#0ee832" stroke="black" cx="541.5" cy="-99.87" rx="107.46" ry="26.74"/>
<text text-anchor="middle" x="541.5" y="-103.67" font-family="Helvetica,sans-Serif" font-size="14.00">✓ Modify</text>
<text text-anchor="middle" x="541.5" y="-88.67" font-family="Helvetica,sans-Serif" font-size="14.00">core/proxy/proxy.go</text>
</g>
<!-- 7c39c5d5&#45;bd66&#45;45ac&#45;8051&#45;9551b5903633&#45;&gt;16da141f&#45;fc27&#45;4a9d&#45;b0d7&#45;d99fee04f248 -->
<g id="edge2" class="edge">
<title>7c39c5d5&#45;bd66&#45;45ac&#45;8051&#45;9551b5903633&#45;&gt;16da141f&#45;fc27&#45;4a9d&#45;b0d7&#45;d99fee04f248</title>
<path fill="none" stroke="black" d="M342.27,-99.87C369.41,-99.87 396.56,-99.87 423.71,-99.87"/>
<polygon fill="black" stroke="black" points="423.71,-103.37 433.71,-99.87 423.71,-96.37 423.71,-103.37"/>
</g>
<!-- 4c33536a&#45;3235&#45;4a7d&#45;a13b&#45;4b076edad9fd -->
<g id="node7" class="node">
<title>4c33536a&#45;3235&#45;4a7d&#45;a13b&#45;4b076edad9fd</title>
<polygon fill="#0ee832" stroke="black" points="351,-36 0,-36 0,0 351,0 351,-36"/>
<text text-anchor="middle" x="175.5" y="-14.3" font-family="Helvetica,sans-Serif" font-size="14.00">✓ Run GitHub Actions for `core/proxy/helper.go`</text>
</g>
<!-- 7c39c5d5&#45;bd66&#45;45ac&#45;8051&#45;9551b5903633&#45;&gt;4c33536a&#45;3235&#45;4a7d&#45;a13b&#45;4b076edad9fd -->
<g id="edge1" class="edge">
<title>7c39c5d5&#45;bd66&#45;45ac&#45;8051&#45;9551b5903633&#45;&gt;4c33536a&#45;3235&#45;4a7d&#45;a13b&#45;4b076edad9fd</title>
<path fill="none" stroke="black" stroke-dasharray="5,2" d="M212.79,-73.16C206.51,-64.04 199.45,-53.77 193.17,-44.65"/>
<polygon fill="black" stroke="black" points="195.99,-42.59 187.44,-36.34 190.23,-46.56 195.99,-42.59"/>
</g>
<!-- 23c2acb8&#45;eb94&#45;4a53&#45;83a3&#45;b8b3e0468a57 -->
<g id="node5" class="node">
<title>23c2acb8&#45;eb94&#45;4a53&#45;83a3&#45;b8b3e0468a57</title>
<ellipse fill="#0ee832" stroke="black" cx="923.5" cy="-99.87" rx="135.11" ry="26.74"/>
<text text-anchor="middle" x="923.5" y="-103.67" font-family="Helvetica,sans-Serif" font-size="14.00">✓ Modify</text>
<text text-anchor="middle" x="923.5" y="-88.67" font-family="Helvetica,sans-Serif" font-size="14.00">core/method/manager.go</text>
</g>
<!-- 16da141f&#45;fc27&#45;4a9d&#45;b0d7&#45;d99fee04f248&#45;&gt;23c2acb8&#45;eb94&#45;4a53&#45;83a3&#45;b8b3e0468a57 -->
<g id="edge4" class="edge">
<title>16da141f&#45;fc27&#45;4a9d&#45;b0d7&#45;d99fee04f248&#45;&gt;23c2acb8&#45;eb94&#45;4a53&#45;83a3&#45;b8b3e0468a57</title>
<path fill="none" stroke="black" d="M649.31,-99.87C692.29,-99.87 735.26,-99.87 778.24,-99.87"/>
<polygon fill="black" stroke="black" points="778.28,-103.37 788.28,-99.87 778.28,-96.37 778.28,-103.37"/>
</g>
<!-- 642b476a&#45;e738&#45;4fa4&#45;950a&#45;3855ee71e708 -->
<g id="node8" class="node">
<title>642b476a&#45;e738&#45;4fa4&#45;950a&#45;3855ee71e708</title>
<polygon fill="#0ee832" stroke="black" points="714,-36 369,-36 369,0 714,0 714,-36"/>
<text text-anchor="middle" x="541.5" y="-14.3" font-family="Helvetica,sans-Serif" font-size="14.00">✓ Run GitHub Actions for `core/proxy/proxy.go`</text>
</g>
<!-- 16da141f&#45;fc27&#45;4a9d&#45;b0d7&#45;d99fee04f248&#45;&gt;642b476a&#45;e738&#45;4fa4&#45;950a&#45;3855ee71e708 -->
<g id="edge3" class="edge">
<title>16da141f&#45;fc27&#45;4a9d&#45;b0d7&#45;d99fee04f248&#45;&gt;642b476a&#45;e738&#45;4fa4&#45;950a&#45;3855ee71e708</title>
<path fill="none" stroke="black" stroke-dasharray="5,2" d="M541.5,-72.72C541.5,-64.27 541.5,-54.89 541.5,-46.36"/>
<polygon fill="black" stroke="black" points="545,-46.15 541.5,-36.15 538,-46.15 545,-46.15"/>
</g>
<!-- 797b710b&#45;22e1&#45;43aa&#45;add7&#45;5261acb7d8ca -->
<g id="node6" class="node">
<title>797b710b&#45;22e1&#45;43aa&#45;add7&#45;5261acb7d8ca</title>
<ellipse fill="white" stroke="black" cx="1555.5" cy="-99.87" rx="461.98" ry="26.74"/>
<text text-anchor="middle" x="1555.5" y="-103.67" font-family="Helvetica,sans-Serif" font-size="14.00">▶ Create</text>
<text text-anchor="middle" x="1555.5" y="-88.67" font-family="Helvetica,sans-Serif" font-size="14.00">core/method/methods/ping.go core/method/methods/motd.go core/method/methods/join.go</text>
</g>
<!-- 23c2acb8&#45;eb94&#45;4a53&#45;83a3&#45;b8b3e0468a57&#45;&gt;797b710b&#45;22e1&#45;43aa&#45;add7&#45;5261acb7d8ca -->
<g id="edge6" class="edge">
<title>23c2acb8&#45;eb94&#45;4a53&#45;83a3&#45;b8b3e0468a57&#45;&gt;797b710b&#45;22e1&#45;43aa&#45;add7&#45;5261acb7d8ca</title>
<path fill="none" stroke="black" d="M1058.66,-99.87C1066.94,-99.87 1075.22,-99.87 1083.5,-99.87"/>
<polygon fill="black" stroke="black" points="1083.6,-103.37 1093.6,-99.87 1083.6,-96.37 1083.6,-103.37"/>
</g>
<!-- 766783ef&#45;9893&#45;431f&#45;b51a&#45;58082f6a8638 -->
<g id="node9" class="node">
<title>766783ef&#45;9893&#45;431f&#45;b51a&#45;58082f6a8638</title>
<polygon fill="#0ee832" stroke="black" points="1115,-36 732,-36 732,0 1115,0 1115,-36"/>
<text text-anchor="middle" x="923.5" y="-14.3" font-family="Helvetica,sans-Serif" font-size="14.00">✓ Run GitHub Actions for `core/method/manager.go`</text>
</g>
<!-- 23c2acb8&#45;eb94&#45;4a53&#45;83a3&#45;b8b3e0468a57&#45;&gt;766783ef&#45;9893&#45;431f&#45;b51a&#45;58082f6a8638 -->
<g id="edge5" class="edge">
<title>23c2acb8&#45;eb94&#45;4a53&#45;83a3&#45;b8b3e0468a57&#45;&gt;766783ef&#45;9893&#45;431f&#45;b51a&#45;58082f6a8638</title>
<path fill="none" stroke="black" stroke-dasharray="5,2" d="M923.5,-72.72C923.5,-64.27 923.5,-54.89 923.5,-46.36"/>
<polygon fill="black" stroke="black" points="927,-46.15 923.5,-36.15 920,-46.15 927,-46.15"/>
</g>
<!-- 797b710b&#45;22e1&#45;43aa&#45;add7&#45;5261acb7d8ca&#45;&gt;end -->
<g id="edge9" class="edge">
<title>797b710b&#45;22e1&#45;43aa&#45;add7&#45;5261acb7d8ca&#45;&gt;end</title>
<path fill="none" stroke="black" d="M2017.36,-99.87C2038.31,-99.87 2054.71,-99.87 2064.68,-99.87"/>
<polygon fill="black" stroke="black" points="2064.91,-103.37 2074.91,-99.87 2064.91,-96.37 2064.91,-103.37"/>
<text text-anchor="middle" x="2046.12" y="-106.67" font-family="Helvetica,sans-Serif" font-size="14.00">Finish</text>
</g>
<!-- 693f277e&#45;0b69&#45;48d9&#45;837c&#45;7c6579c399d2 -->
<g id="node10" class="node">
<title>693f277e&#45;0b69&#45;48d9&#45;837c&#45;7c6579c399d2</title>
<polygon fill="white" stroke="black" points="1977.5,-36 1133.5,-36 1133.5,0 1977.5,0 1977.5,-36"/>
<text text-anchor="middle" x="1555.5" y="-14.3" font-family="Helvetica,sans-Serif" font-size="14.00">▶ Run GitHub Actions for `core/method/methods/ping.go core/method/methods/motd.go core/method/methods/join.go`</text>
</g>
<!-- 797b710b&#45;22e1&#45;43aa&#45;add7&#45;5261acb7d8ca&#45;&gt;693f277e&#45;0b69&#45;48d9&#45;837c&#45;7c6579c399d2 -->
<g id="edge7" class="edge">
<title>797b710b&#45;22e1&#45;43aa&#45;add7&#45;5261acb7d8ca&#45;&gt;693f277e&#45;0b69&#45;48d9&#45;837c&#45;7c6579c399d2</title>
<path fill="none" stroke="black" stroke-dasharray="5,2" d="M1555.5,-72.72C1555.5,-64.27 1555.5,-54.89 1555.5,-46.36"/>
<polygon fill="black" stroke="black" points="1559,-46.15 1555.5,-36.15 1552,-46.15 1559,-46.15"/>
</g>
</g>
</svg>
