<?xml version="1.0" encoding="UTF-8" standalone="no"?>
<!DOCTYPE svg PUBLIC "-//W3C//DTD SVG 1.1//EN"
 "http://www.w3.org/Graphics/SVG/1.1/DTD/svg11.dtd">
<!-- Generated by graphviz version 2.43.0 (0)
 -->
<!-- Title: %3 Pages: 1 -->
<svg width="2046pt" height="238pt"
 viewBox="0.00 0.00 2046.00 237.74" xmlns="http://www.w3.org/2000/svg" xmlns:xlink="http://www.w3.org/1999/xlink">
<g id="graph0" class="graph" transform="scale(1 1) rotate(0) translate(36 201.74)">
<title>%3</title>
<polygon fill="dimgray" stroke="transparent" points="-36,36 -36,-201.74 2010,-201.74 2010,36 -36,36"/>
<text text-anchor="middle" x="987" y="-150.54" font-family="Helvetica,sans-Serif" font-size="14.00">Sweep&#39;s Plan &amp; Progress</text>
<!-- start -->
<g id="node1" class="node">
<title>start</title>
</g>
<!-- d7c254b7&#45;a3ab&#45;4563&#45;a5e1&#45;a3fb9c719a01 -->
<g id="node3" class="node">
<title>d7c254b7&#45;a3ab&#45;4563&#45;a5e1&#45;a3fb9c719a01</title>
<ellipse fill="#0ee832" stroke="black" cx="189" cy="-99.87" rx="55.72" ry="26.74"/>
<text text-anchor="middle" x="189" y="-103.67" font-family="Helvetica,sans-Serif" font-size="14.00">✓ Modify</text>
<text text-anchor="middle" x="189" y="-88.67" font-family="Helvetica,sans-Serif" font-size="14.00">main.go</text>
</g>
<!-- start&#45;&gt;d7c254b7&#45;a3ab&#45;4563&#45;a5e1&#45;a3fb9c719a01 -->
<g id="edge10" class="edge">
<title>start&#45;&gt;d7c254b7&#45;a3ab&#45;4563&#45;a5e1&#45;a3fb9c719a01</title>
<path fill="none" stroke="black" d="M81.69,-99.87C85.33,-99.87 102.92,-99.87 122.83,-99.87"/>
<polygon fill="black" stroke="black" points="123.07,-103.37 133.07,-99.87 123.07,-96.37 123.07,-103.37"/>
<text text-anchor="middle" x="107.32" y="-106.67" font-family="Helvetica,sans-Serif" font-size="14.00">Start</text>
</g>
<!-- end -->
<g id="node2" class="node">
<title>end</title>
</g>
<!-- 60ee7042&#45;2039&#45;47ca&#45;8dd7&#45;df1f87f5ac15 -->
<g id="node4" class="node">
<title>60ee7042&#45;2039&#45;47ca&#45;8dd7&#45;df1f87f5ac15</title>
<ellipse fill="white" stroke="black" cx="495" cy="-99.87" rx="159.61" ry="26.74"/>
<text text-anchor="middle" x="495" y="-103.67" font-family="Helvetica,sans-Serif" font-size="14.00">▶ Modify</text>
<text text-anchor="middle" x="495" y="-88.67" font-family="Helvetica,sans-Serif" font-size="14.00">core/method/methods/ping.go</text>
</g>
<!-- d7c254b7&#45;a3ab&#45;4563&#45;a5e1&#45;a3fb9c719a01&#45;&gt;60ee7042&#45;2039&#45;47ca&#45;8dd7&#45;df1f87f5ac15 -->
<g id="edge2" class="edge">
<title>d7c254b7&#45;a3ab&#45;4563&#45;a5e1&#45;a3fb9c719a01&#45;&gt;60ee7042&#45;2039&#45;47ca&#45;8dd7&#45;df1f87f5ac15</title>
<path fill="none" stroke="black" d="M244.88,-99.87C271.45,-99.87 298.02,-99.87 324.58,-99.87"/>
<polygon fill="black" stroke="black" points="324.77,-103.37 334.77,-99.87 324.77,-96.37 324.77,-103.37"/>
</g>
<!-- ca5a0af2&#45;7ab6&#45;4ecb&#45;9de5&#45;037ccd6cc712 -->
<g id="node8" class="node">
<title>ca5a0af2&#45;7ab6&#45;4ecb&#45;9de5&#45;037ccd6cc712</title>
<polygon fill="yellow" stroke="black" points="268,-36 0,-36 0,0 268,0 268,-36"/>
<text text-anchor="middle" x="134" y="-14.3" font-family="Helvetica,sans-Serif" font-size="14.00">⋯ Run GitHub Actions for `main.go`</text>
</g>
<!-- d7c254b7&#45;a3ab&#45;4563&#45;a5e1&#45;a3fb9c719a01&#45;&gt;ca5a0af2&#45;7ab6&#45;4ecb&#45;9de5&#45;037ccd6cc712 -->
<g id="edge1" class="edge">
<title>d7c254b7&#45;a3ab&#45;4563&#45;a5e1&#45;a3fb9c719a01&#45;&gt;ca5a0af2&#45;7ab6&#45;4ecb&#45;9de5&#45;037ccd6cc712</title>
<path fill="none" stroke="black" stroke-dasharray="5,2" d="M171.9,-74.04C165.43,-64.64 158.06,-53.94 151.55,-44.48"/>
<polygon fill="black" stroke="black" points="154.41,-42.47 145.86,-36.22 148.65,-46.44 154.41,-42.47"/>
</g>
<!-- 3ee91bfa&#45;f1ea&#45;4065&#45;8e7b&#45;c82bcd74fb0b -->
<g id="node5" class="node">
<title>3ee91bfa&#45;f1ea&#45;4065&#45;8e7b&#45;c82bcd74fb0b</title>
<ellipse fill="white" stroke="black" cx="933" cy="-99.87" rx="163.18" ry="26.74"/>
<text text-anchor="middle" x="933" y="-103.67" font-family="Helvetica,sans-Serif" font-size="14.00">▶ Modify</text>
<text text-anchor="middle" x="933" y="-88.67" font-family="Helvetica,sans-Serif" font-size="14.00">core/method/methods/motd.go</text>
</g>
<!-- 60ee7042&#45;2039&#45;47ca&#45;8dd7&#45;df1f87f5ac15&#45;&gt;3ee91bfa&#45;f1ea&#45;4065&#45;8e7b&#45;c82bcd74fb0b -->
<g id="edge4" class="edge">
<title>60ee7042&#45;2039&#45;47ca&#45;8dd7&#45;df1f87f5ac15&#45;&gt;3ee91bfa&#45;f1ea&#45;4065&#45;8e7b&#45;c82bcd74fb0b</title>
<path fill="none" stroke="black" d="M654.97,-99.87C689.73,-99.87 724.5,-99.87 759.26,-99.87"/>
<polygon fill="black" stroke="black" points="759.55,-103.37 769.55,-99.87 759.55,-96.37 759.55,-103.37"/>
</g>
<!-- 504449da&#45;d14d&#45;4459&#45;ba99&#45;d2a1b49e1039 -->
<g id="node9" class="node">
<title>504449da&#45;d14d&#45;4459&#45;ba99&#45;d2a1b49e1039</title>
<polygon fill="white" stroke="black" points="703.5,-36 286.5,-36 286.5,0 703.5,0 703.5,-36"/>
<text text-anchor="middle" x="495" y="-14.3" font-family="Helvetica,sans-Serif" font-size="14.00">▶ Run GitHub Actions for `core/method/methods/ping.go`</text>
</g>
<!-- 60ee7042&#45;2039&#45;47ca&#45;8dd7&#45;df1f87f5ac15&#45;&gt;504449da&#45;d14d&#45;4459&#45;ba99&#45;d2a1b49e1039 -->
<g id="edge3" class="edge">
<title>60ee7042&#45;2039&#45;47ca&#45;8dd7&#45;df1f87f5ac15&#45;&gt;504449da&#45;d14d&#45;4459&#45;ba99&#45;d2a1b49e1039</title>
<path fill="none" stroke="black" stroke-dasharray="5,2" d="M495,-72.72C495,-64.27 495,-54.89 495,-46.36"/>
<polygon fill="black" stroke="black" points="498.5,-46.15 495,-36.15 491.5,-46.15 498.5,-46.15"/>
</g>
<!-- bc0e1962&#45;b85b&#45;41cf&#45;a184&#45;67ab7660de71 -->
<g id="node6" class="node">
<title>bc0e1962&#45;b85b&#45;41cf&#45;a184&#45;67ab7660de71</title>
<ellipse fill="white" stroke="black" cx="1368" cy="-99.87" rx="155.63" ry="26.74"/>
<text text-anchor="middle" x="1368" y="-103.67" font-family="Helvetica,sans-Serif" font-size="14.00">▶ Modify</text>
<text text-anchor="middle" x="1368" y="-88.67" font-family="Helvetica,sans-Serif" font-size="14.00">core/method/methods/join.go</text>
</g>
<!-- 3ee91bfa&#45;f1ea&#45;4065&#45;8e7b&#45;c82bcd74fb0b&#45;&gt;bc0e1962&#45;b85b&#45;41cf&#45;a184&#45;67ab7660de71 -->
<g id="edge6" class="edge">
<title>3ee91bfa&#45;f1ea&#45;4065&#45;8e7b&#45;c82bcd74fb0b&#45;&gt;bc0e1962&#45;b85b&#45;41cf&#45;a184&#45;67ab7660de71</title>
<path fill="none" stroke="black" d="M1096.55,-99.87C1131.7,-99.87 1166.84,-99.87 1201.99,-99.87"/>
<polygon fill="black" stroke="black" points="1202.39,-103.37 1212.39,-99.87 1202.39,-96.37 1202.39,-103.37"/>
</g>
<!-- 27ba7376&#45;d891&#45;47c9&#45;9904&#45;aa819fc71167 -->
<g id="node10" class="node">
<title>27ba7376&#45;d891&#45;47c9&#45;9904&#45;aa819fc71167</title>
<polygon fill="white" stroke="black" points="1144,-36 722,-36 722,0 1144,0 1144,-36"/>
<text text-anchor="middle" x="933" y="-14.3" font-family="Helvetica,sans-Serif" font-size="14.00">▶ Run GitHub Actions for `core/method/methods/motd.go`</text>
</g>
<!-- 3ee91bfa&#45;f1ea&#45;4065&#45;8e7b&#45;c82bcd74fb0b&#45;&gt;27ba7376&#45;d891&#45;47c9&#45;9904&#45;aa819fc71167 -->
<g id="edge5" class="edge">
<title>3ee91bfa&#45;f1ea&#45;4065&#45;8e7b&#45;c82bcd74fb0b&#45;&gt;27ba7376&#45;d891&#45;47c9&#45;9904&#45;aa819fc71167</title>
<path fill="none" stroke="black" stroke-dasharray="5,2" d="M933,-72.72C933,-64.27 933,-54.89 933,-46.36"/>
<polygon fill="black" stroke="black" points="936.5,-46.15 933,-36.15 929.5,-46.15 936.5,-46.15"/>
</g>
<!-- 4ac193c3&#45;32fb&#45;4d11&#45;a383&#45;1e9c1f5df996 -->
<g id="node7" class="node">
<title>4ac193c3&#45;32fb&#45;4d11&#45;a383&#45;1e9c1f5df996</title>
<ellipse fill="white" stroke="black" cx="1739" cy="-99.87" rx="135.11" ry="26.74"/>
<text text-anchor="middle" x="1739" y="-103.67" font-family="Helvetica,sans-Serif" font-size="14.00">▶ Modify</text>
<text text-anchor="middle" x="1739" y="-88.67" font-family="Helvetica,sans-Serif" font-size="14.00">core/method/manager.go</text>
</g>
<!-- bc0e1962&#45;b85b&#45;41cf&#45;a184&#45;67ab7660de71&#45;&gt;4ac193c3&#45;32fb&#45;4d11&#45;a383&#45;1e9c1f5df996 -->
<g id="edge8" class="edge">
<title>bc0e1962&#45;b85b&#45;41cf&#45;a184&#45;67ab7660de71&#45;&gt;4ac193c3&#45;32fb&#45;4d11&#45;a383&#45;1e9c1f5df996</title>
<path fill="none" stroke="black" d="M1523.79,-99.87C1546.98,-99.87 1570.17,-99.87 1593.36,-99.87"/>
<polygon fill="black" stroke="black" points="1593.65,-103.37 1603.65,-99.87 1593.65,-96.37 1593.65,-103.37"/>
</g>
<!-- 20aa1cff&#45;a768&#45;4a4f&#45;b891&#45;33d2c229a964 -->
<g id="node11" class="node">
<title>20aa1cff&#45;a768&#45;4a4f&#45;b891&#45;33d2c229a964</title>
<polygon fill="white" stroke="black" points="1573.5,-36 1162.5,-36 1162.5,0 1573.5,0 1573.5,-36"/>
<text text-anchor="middle" x="1368" y="-14.3" font-family="Helvetica,sans-Serif" font-size="14.00">▶ Run GitHub Actions for `core/method/methods/join.go`</text>
</g>
<!-- bc0e1962&#45;b85b&#45;41cf&#45;a184&#45;67ab7660de71&#45;&gt;20aa1cff&#45;a768&#45;4a4f&#45;b891&#45;33d2c229a964 -->
<g id="edge7" class="edge">
<title>bc0e1962&#45;b85b&#45;41cf&#45;a184&#45;67ab7660de71&#45;&gt;20aa1cff&#45;a768&#45;4a4f&#45;b891&#45;33d2c229a964</title>
<path fill="none" stroke="black" stroke-dasharray="5,2" d="M1368,-72.72C1368,-64.27 1368,-54.89 1368,-46.36"/>
<polygon fill="black" stroke="black" points="1371.5,-46.15 1368,-36.15 1364.5,-46.15 1371.5,-46.15"/>
</g>
<!-- 4ac193c3&#45;32fb&#45;4d11&#45;a383&#45;1e9c1f5df996&#45;&gt;end -->
<g id="edge11" class="edge">
<title>4ac193c3&#45;32fb&#45;4d11&#45;a383&#45;1e9c1f5df996&#45;&gt;end</title>
<path fill="none" stroke="black" d="M1874.09,-99.87C1893.61,-99.87 1910.61,-99.87 1921.05,-99.87"/>
<polygon fill="black" stroke="black" points="1921.34,-103.37 1931.34,-99.87 1921.34,-96.37 1921.34,-103.37"/>
<text text-anchor="middle" x="1902.78" y="-106.67" font-family="Helvetica,sans-Serif" font-size="14.00">Finish</text>
</g>
<!-- 25f64e0c&#45;2d74&#45;4931&#45;9ca8&#45;969060be3cd8 -->
<g id="node12" class="node">
<title>25f64e0c&#45;2d74&#45;4931&#45;9ca8&#45;969060be3cd8</title>
<polygon fill="white" stroke="black" points="1974,-36 1592,-36 1592,0 1974,0 1974,-36"/>
<text text-anchor="middle" x="1783" y="-14.3" font-family="Helvetica,sans-Serif" font-size="14.00">▶ Run GitHub Actions for `core/method/manager.go`</text>
</g>
<!-- 4ac193c3&#45;32fb&#45;4d11&#45;a383&#45;1e9c1f5df996&#45;&gt;25f64e0c&#45;2d74&#45;4931&#45;9ca8&#45;969060be3cd8 -->
<g id="edge9" class="edge">
<title>4ac193c3&#45;32fb&#45;4d11&#45;a383&#45;1e9c1f5df996&#45;&gt;25f64e0c&#45;2d74&#45;4931&#45;9ca8&#45;969060be3cd8</title>
<path fill="none" stroke="black" stroke-dasharray="5,2" d="M1753.41,-72.72C1758.32,-63.8 1763.8,-53.84 1768.71,-44.95"/>
<polygon fill="black" stroke="black" points="1771.79,-46.59 1773.55,-36.15 1765.66,-43.22 1771.79,-46.59"/>
</g>
</g>
</svg>
