<?xml version="1.0" encoding="UTF-8" standalone="no"?>
<!DOCTYPE svg PUBLIC "-//W3C//DTD SVG 1.1//EN"
 "http://www.w3.org/Graphics/SVG/1.1/DTD/svg11.dtd">
<!-- Generated by graphviz version 2.43.0 (0)
 -->
<!-- Title: %3 Pages: 1 -->
<svg width="2145pt" height="238pt"
 viewBox="0.00 0.00 2144.50 237.74" xmlns="http://www.w3.org/2000/svg" xmlns:xlink="http://www.w3.org/1999/xlink">
<g id="graph0" class="graph" transform="scale(1 1) rotate(0) translate(36 201.74)">
<title>%3</title>
<polygon fill="dimgray" stroke="transparent" points="-36,36 -36,-201.74 2108.5,-201.74 2108.5,36 -36,36"/>
<text text-anchor="middle" x="1036.25" y="-150.54" font-family="Helvetica,sans-Serif" font-size="14.00">Sweep&#39;s Plan &amp; Progress</text>
<!-- start -->
<g id="node1" class="node">
<title>start</title>
</g>
<!-- 7c39c5d5&#45;bd66&#45;45ac&#45;8051&#45;9551b5903633 -->
<g id="node3" class="node">
<title>7c39c5d5&#45;bd66&#45;45ac&#45;8051&#45;9551b5903633</title>
<ellipse fill="yellow" stroke="black" cx="230" cy="-99.87" rx="111.95" ry="26.74"/>
<text text-anchor="middle" x="230" y="-103.67" font-family="Helvetica,sans-Serif" font-size="14.00">⋯ Modify</text>
<text text-anchor="middle" x="230" y="-88.67" font-family="Helvetica,sans-Serif" font-size="14.00">core/proxy/helper.go</text>
</g>
<!-- start&#45;&gt;7c39c5d5&#45;bd66&#45;45ac&#45;8051&#45;9551b5903633 -->
<g id="edge8" class="edge">
<title>start&#45;&gt;7c39c5d5&#45;bd66&#45;45ac&#45;8051&#45;9551b5903633</title>
<path fill="none" stroke="black" d="M66.73,-99.87C70.32,-99.87 86.74,-99.87 107.88,-99.87"/>
<polygon fill="black" stroke="black" points="107.89,-103.37 117.89,-99.87 107.89,-96.37 107.89,-103.37"/>
<text text-anchor="middle" x="92.39" y="-106.67" font-family="Helvetica,sans-Serif" font-size="14.00">Start</text>
</g>
<!-- end -->
<g id="node2" class="node">
<title>end</title>
</g>
<!-- 16da141f&#45;fc27&#45;4a9d&#45;b0d7&#45;d99fee04f248 -->
<g id="node4" class="node">
<title>16da141f&#45;fc27&#45;4a9d&#45;b0d7&#45;d99fee04f248</title>
<ellipse fill="white" stroke="black" cx="540" cy="-99.87" rx="107.46" ry="26.74"/>
<text text-anchor="middle" x="540" y="-103.67" font-family="Helvetica,sans-Serif" font-size="14.00">▶ Modify</text>
<text text-anchor="middle" x="540" y="-88.67" font-family="Helvetica,sans-Serif" font-size="14.00">core/proxy/proxy.go</text>
</g>
<!-- 7c39c5d5&#45;bd66&#45;45ac&#45;8051&#45;9551b5903633&#45;&gt;16da141f&#45;fc27&#45;4a9d&#45;b0d7&#45;d99fee04f248 -->
<g id="edge2" class="edge">
<title>7c39c5d5&#45;bd66&#45;45ac&#45;8051&#45;9551b5903633&#45;&gt;16da141f&#45;fc27&#45;4a9d&#45;b0d7&#45;d99fee04f248</title>
<path fill="none" stroke="black" d="M342.01,-99.87C368.76,-99.87 395.5,-99.87 422.25,-99.87"/>
<polygon fill="black" stroke="black" points="422.5,-103.37 432.5,-99.87 422.5,-96.37 422.5,-103.37"/>
</g>
<!-- 4c33536a&#45;3235&#45;4a7d&#45;a13b&#45;4b076edad9fd -->
<g id="node7" class="node">
<title>4c33536a&#45;3235&#45;4a7d&#45;a13b&#45;4b076edad9fd</title>
<polygon fill="white" stroke="black" points="350,-36 0,-36 0,0 350,0 350,-36"/>
<text text-anchor="middle" x="175" y="-14.3" font-family="Helvetica,sans-Serif" font-size="14.00">▶ Run GitHub Actions for `core/proxy/helper.go`</text>
</g>
<!-- 7c39c5d5&#45;bd66&#45;45ac&#45;8051&#45;9551b5903633&#45;&gt;4c33536a&#45;3235&#45;4a7d&#45;a13b&#45;4b076edad9fd -->
<g id="edge1" class="edge">
<title>7c39c5d5&#45;bd66&#45;45ac&#45;8051&#45;9551b5903633&#45;&gt;4c33536a&#45;3235&#45;4a7d&#45;a13b&#45;4b076edad9fd</title>
<path fill="none" stroke="black" stroke-dasharray="5,2" d="M212.29,-73.16C206.01,-64.04 198.95,-53.77 192.67,-44.65"/>
<polygon fill="black" stroke="black" points="195.49,-42.59 186.94,-36.34 189.73,-46.56 195.49,-42.59"/>
</g>
<!-- 23c2acb8&#45;eb94&#45;4a53&#45;83a3&#45;b8b3e0468a57 -->
<g id="node5" class="node">
<title>23c2acb8&#45;eb94&#45;4a53&#45;83a3&#45;b8b3e0468a57</title>
<ellipse fill="white" stroke="black" cx="920" cy="-99.87" rx="135.11" ry="26.74"/>
<text text-anchor="middle" x="920" y="-103.67" font-family="Helvetica,sans-Serif" font-size="14.00">▶ Modify</text>
<text text-anchor="middle" x="920" y="-88.67" font-family="Helvetica,sans-Serif" font-size="14.00">core/method/manager.go</text>
</g>
<!-- 16da141f&#45;fc27&#45;4a9d&#45;b0d7&#45;d99fee04f248&#45;&gt;23c2acb8&#45;eb94&#45;4a53&#45;83a3&#45;b8b3e0468a57 -->
<g id="edge4" class="edge">
<title>16da141f&#45;fc27&#45;4a9d&#45;b0d7&#45;d99fee04f248&#45;&gt;23c2acb8&#45;eb94&#45;4a53&#45;83a3&#45;b8b3e0468a57</title>
<path fill="none" stroke="black" d="M647.62,-99.87C689.97,-99.87 732.33,-99.87 774.69,-99.87"/>
<polygon fill="black" stroke="black" points="774.87,-103.37 784.87,-99.87 774.87,-96.37 774.87,-103.37"/>
</g>
<!-- 642b476a&#45;e738&#45;4fa4&#45;950a&#45;3855ee71e708 -->
<g id="node8" class="node">
<title>642b476a&#45;e738&#45;4fa4&#45;950a&#45;3855ee71e708</title>
<polygon fill="white" stroke="black" points="712,-36 368,-36 368,0 712,0 712,-36"/>
<text text-anchor="middle" x="540" y="-14.3" font-family="Helvetica,sans-Serif" font-size="14.00">▶ Run GitHub Actions for `core/proxy/proxy.go`</text>
</g>
<!-- 16da141f&#45;fc27&#45;4a9d&#45;b0d7&#45;d99fee04f248&#45;&gt;642b476a&#45;e738&#45;4fa4&#45;950a&#45;3855ee71e708 -->
<g id="edge3" class="edge">
<title>16da141f&#45;fc27&#45;4a9d&#45;b0d7&#45;d99fee04f248&#45;&gt;642b476a&#45;e738&#45;4fa4&#45;950a&#45;3855ee71e708</title>
<path fill="none" stroke="black" stroke-dasharray="5,2" d="M540,-72.72C540,-64.27 540,-54.89 540,-46.36"/>
<polygon fill="black" stroke="black" points="543.5,-46.15 540,-36.15 536.5,-46.15 543.5,-46.15"/>
</g>
<!-- 797b710b&#45;22e1&#45;43aa&#45;add7&#45;5261acb7d8ca -->
<g id="node6" class="node">
<title>797b710b&#45;22e1&#45;43aa&#45;add7&#45;5261acb7d8ca</title>
<ellipse fill="white" stroke="black" cx="1552" cy="-99.87" rx="461.98" ry="26.74"/>
<text text-anchor="middle" x="1552" y="-103.67" font-family="Helvetica,sans-Serif" font-size="14.00">▶ Create</text>
<text text-anchor="middle" x="1552" y="-88.67" font-family="Helvetica,sans-Serif" font-size="14.00">core/method/methods/ping.go core/method/methods/motd.go core/method/methods/join.go</text>
</g>
<!-- 23c2acb8&#45;eb94&#45;4a53&#45;83a3&#45;b8b3e0468a57&#45;&gt;797b710b&#45;22e1&#45;43aa&#45;add7&#45;5261acb7d8ca -->
<g id="edge6" class="edge">
<title>23c2acb8&#45;eb94&#45;4a53&#45;83a3&#45;b8b3e0468a57&#45;&gt;797b710b&#45;22e1&#45;43aa&#45;add7&#45;5261acb7d8ca</title>
<path fill="none" stroke="black" d="M1055.16,-99.87C1063.44,-99.87 1071.72,-99.87 1080,-99.87"/>
<polygon fill="black" stroke="black" points="1080.1,-103.37 1090.1,-99.87 1080.1,-96.37 1080.1,-103.37"/>
</g>
<!-- 766783ef&#45;9893&#45;431f&#45;b51a&#45;58082f6a8638 -->
<g id="node9" class="node">
<title>766783ef&#45;9893&#45;431f&#45;b51a&#45;58082f6a8638</title>
<polygon fill="white" stroke="black" points="1112,-36 730,-36 730,0 1112,0 1112,-36"/>
<text text-anchor="middle" x="921" y="-14.3" font-family="Helvetica,sans-Serif" font-size="14.00">▶ Run GitHub Actions for `core/method/manager.go`</text>
</g>
<!-- 23c2acb8&#45;eb94&#45;4a53&#45;83a3&#45;b8b3e0468a57&#45;&gt;766783ef&#45;9893&#45;431f&#45;b51a&#45;58082f6a8638 -->
<g id="edge5" class="edge">
<title>23c2acb8&#45;eb94&#45;4a53&#45;83a3&#45;b8b3e0468a57&#45;&gt;766783ef&#45;9893&#45;431f&#45;b51a&#45;58082f6a8638</title>
<path fill="none" stroke="black" stroke-dasharray="5,2" d="M920.33,-72.72C920.43,-64.27 920.55,-54.89 920.66,-46.36"/>
<polygon fill="black" stroke="black" points="924.16,-46.19 920.79,-36.15 917.16,-46.1 924.16,-46.19"/>
</g>
<!-- 797b710b&#45;22e1&#45;43aa&#45;add7&#45;5261acb7d8ca&#45;&gt;end -->
<g id="edge9" class="edge">
<title>797b710b&#45;22e1&#45;43aa&#45;add7&#45;5261acb7d8ca&#45;&gt;end</title>
<path fill="none" stroke="black" d="M2013.86,-99.87C2034.81,-99.87 2051.21,-99.87 2061.18,-99.87"/>
<polygon fill="black" stroke="black" points="2061.41,-103.37 2071.41,-99.87 2061.41,-96.37 2061.41,-103.37"/>
<text text-anchor="middle" x="2042.62" y="-106.67" font-family="Helvetica,sans-Serif" font-size="14.00">Finish</text>
</g>
<!-- 693f277e&#45;0b69&#45;48d9&#45;837c&#45;7c6579c399d2 -->
<g id="node10" class="node">
<title>693f277e&#45;0b69&#45;48d9&#45;837c&#45;7c6579c399d2</title>
<polygon fill="white" stroke="black" points="1974,-36 1130,-36 1130,0 1974,0 1974,-36"/>
<text text-anchor="middle" x="1552" y="-14.3" font-family="Helvetica,sans-Serif" font-size="14.00">▶ Run GitHub Actions for `core/method/methods/ping.go core/method/methods/motd.go core/method/methods/join.go`</text>
</g>
<!-- 797b710b&#45;22e1&#45;43aa&#45;add7&#45;5261acb7d8ca&#45;&gt;693f277e&#45;0b69&#45;48d9&#45;837c&#45;7c6579c399d2 -->
<g id="edge7" class="edge">
<title>797b710b&#45;22e1&#45;43aa&#45;add7&#45;5261acb7d8ca&#45;&gt;693f277e&#45;0b69&#45;48d9&#45;837c&#45;7c6579c399d2</title>
<path fill="none" stroke="black" stroke-dasharray="5,2" d="M1552,-72.72C1552,-64.27 1552,-54.89 1552,-46.36"/>
<polygon fill="black" stroke="black" points="1555.5,-46.15 1552,-36.15 1548.5,-46.15 1555.5,-46.15"/>
</g>
</g>
</svg>
