<?xml version="1.0" encoding="UTF-8" standalone="no"?>
<!DOCTYPE svg PUBLIC "-//W3C//DTD SVG 1.1//EN"
 "http://www.w3.org/Graphics/SVG/1.1/DTD/svg11.dtd">
<!-- Generated by graphviz version 2.43.0 (0)
 -->
<!-- Title: %3 Pages: 1 -->
<svg width="2089pt" height="238pt"
 viewBox="0.00 0.00 2088.50 237.74" xmlns="http://www.w3.org/2000/svg" xmlns:xlink="http://www.w3.org/1999/xlink">
<g id="graph0" class="graph" transform="scale(1 1) rotate(0) translate(36 201.74)">
<title>%3</title>
<polygon fill="dimgray" stroke="transparent" points="-36,36 -36,-201.74 2052.5,-201.74 2052.5,36 -36,36"/>
<text text-anchor="middle" x="1008.25" y="-150.54" font-family="Helvetica,sans-Serif" font-size="14.00">Sweep&#39;s Plan &amp; Progress</text>
<!-- start -->
<g id="node1" class="node">
<title>start</title>
</g>
<!-- 71523996&#45;4dd6&#45;4465&#45;96ff&#45;a388ae7055fe -->
<g id="node3" class="node">
<title>71523996&#45;4dd6&#45;4465&#45;96ff&#45;a388ae7055fe</title>
<ellipse fill="yellow" stroke="black" cx="245.5" cy="-99.87" rx="155.63" ry="26.74"/>
<text text-anchor="middle" x="245.5" y="-103.67" font-family="Helvetica,sans-Serif" font-size="14.00">⋯ Modify</text>
<text text-anchor="middle" x="245.5" y="-88.67" font-family="Helvetica,sans-Serif" font-size="14.00">core/method/methods/join.go</text>
</g>
<!-- start&#45;&gt;71523996&#45;4dd6&#45;4465&#45;96ff&#45;a388ae7055fe -->
<g id="edge10" class="edge">
<title>start&#45;&gt;71523996&#45;4dd6&#45;4465&#45;96ff&#45;a388ae7055fe</title>
<path fill="none" stroke="black" d="M38.1,-99.87C41.35,-99.87 57.57,-99.87 79.62,-99.87"/>
<polygon fill="black" stroke="black" points="79.78,-103.37 89.78,-99.87 79.78,-96.37 79.78,-103.37"/>
<text text-anchor="middle" x="63.97" y="-106.67" font-family="Helvetica,sans-Serif" font-size="14.00">Start</text>
</g>
<!-- end -->
<g id="node2" class="node">
<title>end</title>
</g>
<!-- 3be6269b&#45;f137&#45;4566&#45;b1a7&#45;de2b4bdd8a1b -->
<g id="node4" class="node">
<title>3be6269b&#45;f137&#45;4566&#45;b1a7&#45;de2b4bdd8a1b</title>
<ellipse fill="white" stroke="black" cx="637.5" cy="-99.87" rx="159.61" ry="26.74"/>
<text text-anchor="middle" x="637.5" y="-103.67" font-family="Helvetica,sans-Serif" font-size="14.00">▶ Modify</text>
<text text-anchor="middle" x="637.5" y="-88.67" font-family="Helvetica,sans-Serif" font-size="14.00">core/method/methods/ping.go</text>
</g>
<!-- 71523996&#45;4dd6&#45;4465&#45;96ff&#45;a388ae7055fe&#45;&gt;3be6269b&#45;f137&#45;4566&#45;b1a7&#45;de2b4bdd8a1b -->
<g id="edge2" class="edge">
<title>71523996&#45;4dd6&#45;4465&#45;96ff&#45;a388ae7055fe&#45;&gt;3be6269b&#45;f137&#45;4566&#45;b1a7&#45;de2b4bdd8a1b</title>
<path fill="none" stroke="black" d="M401.3,-99.87C423.31,-99.87 445.31,-99.87 467.31,-99.87"/>
<polygon fill="black" stroke="black" points="467.42,-103.37 477.42,-99.87 467.42,-96.37 467.42,-103.37"/>
</g>
<!-- 6eff820b&#45;0f38&#45;4da1&#45;98af&#45;f7eefcab3665 -->
<g id="node8" class="node">
<title>6eff820b&#45;0f38&#45;4da1&#45;98af&#45;f7eefcab3665</title>
<polygon fill="white" stroke="black" points="411,-36 0,-36 0,0 411,0 411,-36"/>
<text text-anchor="middle" x="205.5" y="-14.3" font-family="Helvetica,sans-Serif" font-size="14.00">▶ Run GitHub Actions for `core/method/methods/join.go`</text>
</g>
<!-- 71523996&#45;4dd6&#45;4465&#45;96ff&#45;a388ae7055fe&#45;&gt;6eff820b&#45;0f38&#45;4da1&#45;98af&#45;f7eefcab3665 -->
<g id="edge1" class="edge">
<title>71523996&#45;4dd6&#45;4465&#45;96ff&#45;a388ae7055fe&#45;&gt;6eff820b&#45;0f38&#45;4da1&#45;98af&#45;f7eefcab3665</title>
<path fill="none" stroke="black" stroke-dasharray="5,2" d="M232.4,-72.72C227.99,-63.9 223.06,-54.05 218.64,-45.23"/>
<polygon fill="black" stroke="black" points="221.69,-43.52 214.09,-36.15 215.44,-46.66 221.69,-43.52"/>
</g>
<!-- 7a7fec94&#45;fc67&#45;4eb6&#45;bd10&#45;a7633ba29834 -->
<g id="node5" class="node">
<title>7a7fec94&#45;fc67&#45;4eb6&#45;bd10&#45;a7633ba29834</title>
<ellipse fill="white" stroke="black" cx="1075.5" cy="-99.87" rx="163.18" ry="26.74"/>
<text text-anchor="middle" x="1075.5" y="-103.67" font-family="Helvetica,sans-Serif" font-size="14.00">▶ Modify</text>
<text text-anchor="middle" x="1075.5" y="-88.67" font-family="Helvetica,sans-Serif" font-size="14.00">core/method/methods/motd.go</text>
</g>
<!-- 3be6269b&#45;f137&#45;4566&#45;b1a7&#45;de2b4bdd8a1b&#45;&gt;7a7fec94&#45;fc67&#45;4eb6&#45;bd10&#45;a7633ba29834 -->
<g id="edge4" class="edge">
<title>3be6269b&#45;f137&#45;4566&#45;b1a7&#45;de2b4bdd8a1b&#45;&gt;7a7fec94&#45;fc67&#45;4eb6&#45;bd10&#45;a7633ba29834</title>
<path fill="none" stroke="black" d="M797.47,-99.87C832.23,-99.87 867,-99.87 901.76,-99.87"/>
<polygon fill="black" stroke="black" points="902.05,-103.37 912.05,-99.87 902.05,-96.37 902.05,-103.37"/>
</g>
<!-- f948e245&#45;66a8&#45;4c0e&#45;becc&#45;137dac0f894b -->
<g id="node9" class="node">
<title>f948e245&#45;66a8&#45;4c0e&#45;becc&#45;137dac0f894b</title>
<polygon fill="white" stroke="black" points="846,-36 429,-36 429,0 846,0 846,-36"/>
<text text-anchor="middle" x="637.5" y="-14.3" font-family="Helvetica,sans-Serif" font-size="14.00">▶ Run GitHub Actions for `core/method/methods/ping.go`</text>
</g>
<!-- 3be6269b&#45;f137&#45;4566&#45;b1a7&#45;de2b4bdd8a1b&#45;&gt;f948e245&#45;66a8&#45;4c0e&#45;becc&#45;137dac0f894b -->
<g id="edge3" class="edge">
<title>3be6269b&#45;f137&#45;4566&#45;b1a7&#45;de2b4bdd8a1b&#45;&gt;f948e245&#45;66a8&#45;4c0e&#45;becc&#45;137dac0f894b</title>
<path fill="none" stroke="black" stroke-dasharray="5,2" d="M637.5,-72.72C637.5,-64.27 637.5,-54.89 637.5,-46.36"/>
<polygon fill="black" stroke="black" points="641,-46.15 637.5,-36.15 634,-46.15 641,-46.15"/>
</g>
<!-- 8fedc09a&#45;b74e&#45;4234&#45;991b&#45;4c67c07e34b2 -->
<g id="node6" class="node">
<title>8fedc09a&#45;b74e&#45;4234&#45;991b&#45;4c67c07e34b2</title>
<ellipse fill="white" stroke="black" cx="1476.5" cy="-99.87" rx="107.46" ry="26.74"/>
<text text-anchor="middle" x="1476.5" y="-103.67" font-family="Helvetica,sans-Serif" font-size="14.00">▶ Modify</text>
<text text-anchor="middle" x="1476.5" y="-88.67" font-family="Helvetica,sans-Serif" font-size="14.00">core/proxy/proxy.go</text>
</g>
<!-- 7a7fec94&#45;fc67&#45;4eb6&#45;bd10&#45;a7633ba29834&#45;&gt;8fedc09a&#45;b74e&#45;4234&#45;991b&#45;4c67c07e34b2 -->
<g id="edge6" class="edge">
<title>7a7fec94&#45;fc67&#45;4eb6&#45;bd10&#45;a7633ba29834&#45;&gt;8fedc09a&#45;b74e&#45;4234&#45;991b&#45;4c67c07e34b2</title>
<path fill="none" stroke="black" d="M1239.19,-99.87C1279.07,-99.87 1318.95,-99.87 1358.83,-99.87"/>
<polygon fill="black" stroke="black" points="1358.97,-103.37 1368.97,-99.87 1358.97,-96.37 1358.97,-103.37"/>
</g>
<!-- 2a20199f&#45;cdc6&#45;498d&#45;8ed1&#45;1029ffffe595 -->
<g id="node10" class="node">
<title>2a20199f&#45;cdc6&#45;498d&#45;8ed1&#45;1029ffffe595</title>
<polygon fill="white" stroke="black" points="1286.5,-36 864.5,-36 864.5,0 1286.5,0 1286.5,-36"/>
<text text-anchor="middle" x="1075.5" y="-14.3" font-family="Helvetica,sans-Serif" font-size="14.00">▶ Run GitHub Actions for `core/method/methods/motd.go`</text>
</g>
<!-- 7a7fec94&#45;fc67&#45;4eb6&#45;bd10&#45;a7633ba29834&#45;&gt;2a20199f&#45;cdc6&#45;498d&#45;8ed1&#45;1029ffffe595 -->
<g id="edge5" class="edge">
<title>7a7fec94&#45;fc67&#45;4eb6&#45;bd10&#45;a7633ba29834&#45;&gt;2a20199f&#45;cdc6&#45;498d&#45;8ed1&#45;1029ffffe595</title>
<path fill="none" stroke="black" stroke-dasharray="5,2" d="M1075.5,-72.72C1075.5,-64.27 1075.5,-54.89 1075.5,-46.36"/>
<polygon fill="black" stroke="black" points="1079,-46.15 1075.5,-36.15 1072,-46.15 1079,-46.15"/>
</g>
<!-- 036eea3e&#45;1e02&#45;40ed&#45;84f0&#45;74e5e02f3223 -->
<g id="node7" class="node">
<title>036eea3e&#45;1e02&#45;40ed&#45;84f0&#45;74e5e02f3223</title>
<ellipse fill="white" stroke="black" cx="1786.5" cy="-99.87" rx="111.95" ry="26.74"/>
<text text-anchor="middle" x="1786.5" y="-103.67" font-family="Helvetica,sans-Serif" font-size="14.00">▶ Modify</text>
<text text-anchor="middle" x="1786.5" y="-88.67" font-family="Helvetica,sans-Serif" font-size="14.00">core/proxy/helper.go</text>
</g>
<!-- 8fedc09a&#45;b74e&#45;4234&#45;991b&#45;4c67c07e34b2&#45;&gt;036eea3e&#45;1e02&#45;40ed&#45;84f0&#45;74e5e02f3223 -->
<g id="edge8" class="edge">
<title>8fedc09a&#45;b74e&#45;4234&#45;991b&#45;4c67c07e34b2&#45;&gt;036eea3e&#45;1e02&#45;40ed&#45;84f0&#45;74e5e02f3223</title>
<path fill="none" stroke="black" d="M1584.27,-99.87C1611.01,-99.87 1637.74,-99.87 1664.48,-99.87"/>
<polygon fill="black" stroke="black" points="1664.72,-103.37 1674.72,-99.87 1664.72,-96.37 1664.72,-103.37"/>
</g>
<!-- a576195c&#45;4cb6&#45;4d95&#45;a0d6&#45;531926cf27b2 -->
<g id="node11" class="node">
<title>a576195c&#45;4cb6&#45;4d95&#45;a0d6&#45;531926cf27b2</title>
<polygon fill="white" stroke="black" points="1648.5,-36 1304.5,-36 1304.5,0 1648.5,0 1648.5,-36"/>
<text text-anchor="middle" x="1476.5" y="-14.3" font-family="Helvetica,sans-Serif" font-size="14.00">▶ Run GitHub Actions for `core/proxy/proxy.go`</text>
</g>
<!-- 8fedc09a&#45;b74e&#45;4234&#45;991b&#45;4c67c07e34b2&#45;&gt;a576195c&#45;4cb6&#45;4d95&#45;a0d6&#45;531926cf27b2 -->
<g id="edge7" class="edge">
<title>8fedc09a&#45;b74e&#45;4234&#45;991b&#45;4c67c07e34b2&#45;&gt;a576195c&#45;4cb6&#45;4d95&#45;a0d6&#45;531926cf27b2</title>
<path fill="none" stroke="black" stroke-dasharray="5,2" d="M1476.5,-72.72C1476.5,-64.27 1476.5,-54.89 1476.5,-46.36"/>
<polygon fill="black" stroke="black" points="1480,-46.15 1476.5,-36.15 1473,-46.15 1480,-46.15"/>
</g>
<!-- 036eea3e&#45;1e02&#45;40ed&#45;84f0&#45;74e5e02f3223&#45;&gt;end -->
<g id="edge11" class="edge">
<title>036eea3e&#45;1e02&#45;40ed&#45;84f0&#45;74e5e02f3223&#45;&gt;end</title>
<path fill="none" stroke="black" d="M1898.47,-99.87C1917.85,-99.87 1935.14,-99.87 1945.71,-99.87"/>
<polygon fill="black" stroke="black" points="1945.83,-103.37 1955.83,-99.87 1945.83,-96.37 1945.83,-103.37"/>
<text text-anchor="middle" x="1927.11" y="-106.67" font-family="Helvetica,sans-Serif" font-size="14.00">Finish</text>
</g>
<!-- 903674b3&#45;447b&#45;44af&#45;aa3c&#45;90adbeda0dca -->
<g id="node12" class="node">
<title>903674b3&#45;447b&#45;44af&#45;aa3c&#45;90adbeda0dca</title>
<polygon fill="white" stroke="black" points="2016.5,-36 1666.5,-36 1666.5,0 2016.5,0 2016.5,-36"/>
<text text-anchor="middle" x="1841.5" y="-14.3" font-family="Helvetica,sans-Serif" font-size="14.00">▶ Run GitHub Actions for `core/proxy/helper.go`</text>
</g>
<!-- 036eea3e&#45;1e02&#45;40ed&#45;84f0&#45;74e5e02f3223&#45;&gt;903674b3&#45;447b&#45;44af&#45;aa3c&#45;90adbeda0dca -->
<g id="edge9" class="edge">
<title>036eea3e&#45;1e02&#45;40ed&#45;84f0&#45;74e5e02f3223&#45;&gt;903674b3&#45;447b&#45;44af&#45;aa3c&#45;90adbeda0dca</title>
<path fill="none" stroke="black" stroke-dasharray="5,2" d="M1804.21,-73.16C1810.49,-64.04 1817.55,-53.77 1823.83,-44.65"/>
<polygon fill="black" stroke="black" points="1826.77,-46.56 1829.56,-36.34 1821.01,-42.59 1826.77,-46.56"/>
</g>
</g>
</svg>
