<?xml version="1.0" encoding="UTF-8" standalone="no"?>
<!DOCTYPE svg PUBLIC "-//W3C//DTD SVG 1.1//EN"
 "http://www.w3.org/Graphics/SVG/1.1/DTD/svg11.dtd">
<!-- Generated by graphviz version 2.43.0 (0)
 -->
<!-- Title: %3 Pages: 1 -->
<svg width="2049pt" height="238pt"
 viewBox="0.00 0.00 2049.00 237.74" xmlns="http://www.w3.org/2000/svg" xmlns:xlink="http://www.w3.org/1999/xlink">
<g id="graph0" class="graph" transform="scale(1 1) rotate(0) translate(36 201.74)">
<title>%3</title>
<polygon fill="dimgray" stroke="transparent" points="-36,36 -36,-201.74 2013,-201.74 2013,36 -36,36"/>
<text text-anchor="middle" x="988.5" y="-150.54" font-family="Helvetica,sans-Serif" font-size="14.00">Sweep&#39;s Plan &amp; Progress</text>
<!-- start -->
<g id="node1" class="node">
<title>start</title>
</g>
<!-- d7c254b7&#45;a3ab&#45;4563&#45;a5e1&#45;a3fb9c719a01 -->
<g id="node3" class="node">
<title>d7c254b7&#45;a3ab&#45;4563&#45;a5e1&#45;a3fb9c719a01</title>
<ellipse fill="#0ee832" stroke="black" cx="188" cy="-99.87" rx="55.72" ry="26.74"/>
<text text-anchor="middle" x="188" y="-103.67" font-family="Helvetica,sans-Serif" font-size="14.00">✓ Modify</text>
<text text-anchor="middle" x="188" y="-88.67" font-family="Helvetica,sans-Serif" font-size="14.00">main.go</text>
</g>
<!-- start&#45;&gt;d7c254b7&#45;a3ab&#45;4563&#45;a5e1&#45;a3fb9c719a01 -->
<g id="edge10" class="edge">
<title>start&#45;&gt;d7c254b7&#45;a3ab&#45;4563&#45;a5e1&#45;a3fb9c719a01</title>
<path fill="none" stroke="black" d="M80.69,-99.87C84.33,-99.87 101.92,-99.87 121.83,-99.87"/>
<polygon fill="black" stroke="black" points="122.07,-103.37 132.07,-99.87 122.07,-96.37 122.07,-103.37"/>
<text text-anchor="middle" x="106.32" y="-106.67" font-family="Helvetica,sans-Serif" font-size="14.00">Start</text>
</g>
<!-- end -->
<g id="node2" class="node">
<title>end</title>
</g>
<!-- 60ee7042&#45;2039&#45;47ca&#45;8dd7&#45;df1f87f5ac15 -->
<g id="node4" class="node">
<title>60ee7042&#45;2039&#45;47ca&#45;8dd7&#45;df1f87f5ac15</title>
<ellipse fill="#0ee832" stroke="black" cx="494" cy="-99.87" rx="159.61" ry="26.74"/>
<text text-anchor="middle" x="494" y="-103.67" font-family="Helvetica,sans-Serif" font-size="14.00">✓ Modify</text>
<text text-anchor="middle" x="494" y="-88.67" font-family="Helvetica,sans-Serif" font-size="14.00">core/method/methods/ping.go</text>
</g>
<!-- d7c254b7&#45;a3ab&#45;4563&#45;a5e1&#45;a3fb9c719a01&#45;&gt;60ee7042&#45;2039&#45;47ca&#45;8dd7&#45;df1f87f5ac15 -->
<g id="edge2" class="edge">
<title>d7c254b7&#45;a3ab&#45;4563&#45;a5e1&#45;a3fb9c719a01&#45;&gt;60ee7042&#45;2039&#45;47ca&#45;8dd7&#45;df1f87f5ac15</title>
<path fill="none" stroke="black" d="M243.88,-99.87C270.45,-99.87 297.02,-99.87 323.58,-99.87"/>
<polygon fill="black" stroke="black" points="323.77,-103.37 333.77,-99.87 323.77,-96.37 323.77,-103.37"/>
</g>
<!-- ca5a0af2&#45;7ab6&#45;4ecb&#45;9de5&#45;037ccd6cc712 -->
<g id="node8" class="node">
<title>ca5a0af2&#45;7ab6&#45;4ecb&#45;9de5&#45;037ccd6cc712</title>
<polygon fill="#0ee832" stroke="black" points="266,-36 0,-36 0,0 266,0 266,-36"/>
<text text-anchor="middle" x="133" y="-14.3" font-family="Helvetica,sans-Serif" font-size="14.00">✓ Run GitHub Actions for `main.go`</text>
</g>
<!-- d7c254b7&#45;a3ab&#45;4563&#45;a5e1&#45;a3fb9c719a01&#45;&gt;ca5a0af2&#45;7ab6&#45;4ecb&#45;9de5&#45;037ccd6cc712 -->
<g id="edge1" class="edge">
<title>d7c254b7&#45;a3ab&#45;4563&#45;a5e1&#45;a3fb9c719a01&#45;&gt;ca5a0af2&#45;7ab6&#45;4ecb&#45;9de5&#45;037ccd6cc712</title>
<path fill="none" stroke="black" stroke-dasharray="5,2" d="M170.9,-74.04C164.43,-64.64 157.06,-53.94 150.55,-44.48"/>
<polygon fill="black" stroke="black" points="153.41,-42.47 144.86,-36.22 147.65,-46.44 153.41,-42.47"/>
</g>
<!-- 3ee91bfa&#45;f1ea&#45;4065&#45;8e7b&#45;c82bcd74fb0b -->
<g id="node5" class="node">
<title>3ee91bfa&#45;f1ea&#45;4065&#45;8e7b&#45;c82bcd74fb0b</title>
<ellipse fill="#0ee832" stroke="black" cx="934" cy="-99.87" rx="163.18" ry="26.74"/>
<text text-anchor="middle" x="934" y="-103.67" font-family="Helvetica,sans-Serif" font-size="14.00">✓ Modify</text>
<text text-anchor="middle" x="934" y="-88.67" font-family="Helvetica,sans-Serif" font-size="14.00">core/method/methods/motd.go</text>
</g>
<!-- 60ee7042&#45;2039&#45;47ca&#45;8dd7&#45;df1f87f5ac15&#45;&gt;3ee91bfa&#45;f1ea&#45;4065&#45;8e7b&#45;c82bcd74fb0b -->
<g id="edge4" class="edge">
<title>60ee7042&#45;2039&#45;47ca&#45;8dd7&#45;df1f87f5ac15&#45;&gt;3ee91bfa&#45;f1ea&#45;4065&#45;8e7b&#45;c82bcd74fb0b</title>
<path fill="none" stroke="black" d="M653.84,-99.87C689.35,-99.87 724.87,-99.87 760.38,-99.87"/>
<polygon fill="black" stroke="black" points="760.39,-103.37 770.39,-99.87 760.39,-96.37 760.39,-103.37"/>
</g>
<!-- 504449da&#45;d14d&#45;4459&#45;ba99&#45;d2a1b49e1039 -->
<g id="node9" class="node">
<title>504449da&#45;d14d&#45;4459&#45;ba99&#45;d2a1b49e1039</title>
<polygon fill="#0ee832" stroke="black" points="703.5,-36 284.5,-36 284.5,0 703.5,0 703.5,-36"/>
<text text-anchor="middle" x="494" y="-14.3" font-family="Helvetica,sans-Serif" font-size="14.00">✓ Run GitHub Actions for `core/method/methods/ping.go`</text>
</g>
<!-- 60ee7042&#45;2039&#45;47ca&#45;8dd7&#45;df1f87f5ac15&#45;&gt;504449da&#45;d14d&#45;4459&#45;ba99&#45;d2a1b49e1039 -->
<g id="edge3" class="edge">
<title>60ee7042&#45;2039&#45;47ca&#45;8dd7&#45;df1f87f5ac15&#45;&gt;504449da&#45;d14d&#45;4459&#45;ba99&#45;d2a1b49e1039</title>
<path fill="none" stroke="black" stroke-dasharray="5,2" d="M494,-72.72C494,-64.27 494,-54.89 494,-46.36"/>
<polygon fill="black" stroke="black" points="497.5,-46.15 494,-36.15 490.5,-46.15 497.5,-46.15"/>
</g>
<!-- bc0e1962&#45;b85b&#45;41cf&#45;a184&#45;67ab7660de71 -->
<g id="node6" class="node">
<title>bc0e1962&#45;b85b&#45;41cf&#45;a184&#45;67ab7660de71</title>
<ellipse fill="white" stroke="black" cx="1371" cy="-99.87" rx="155.63" ry="26.74"/>
<text text-anchor="middle" x="1371" y="-103.67" font-family="Helvetica,sans-Serif" font-size="14.00">▶ Modify</text>
<text text-anchor="middle" x="1371" y="-88.67" font-family="Helvetica,sans-Serif" font-size="14.00">core/method/methods/join.go</text>
</g>
<!-- 3ee91bfa&#45;f1ea&#45;4065&#45;8e7b&#45;c82bcd74fb0b&#45;&gt;bc0e1962&#45;b85b&#45;41cf&#45;a184&#45;67ab7660de71 -->
<g id="edge6" class="edge">
<title>3ee91bfa&#45;f1ea&#45;4065&#45;8e7b&#45;c82bcd74fb0b&#45;&gt;bc0e1962&#45;b85b&#45;41cf&#45;a184&#45;67ab7660de71</title>
<path fill="none" stroke="black" d="M1097.45,-99.87C1133.34,-99.87 1169.24,-99.87 1205.13,-99.87"/>
<polygon fill="black" stroke="black" points="1205.26,-103.37 1215.26,-99.87 1205.26,-96.37 1205.26,-103.37"/>
</g>
<!-- 27ba7376&#45;d891&#45;47c9&#45;9904&#45;aa819fc71167 -->
<g id="node10" class="node">
<title>27ba7376&#45;d891&#45;47c9&#45;9904&#45;aa819fc71167</title>
<polygon fill="yellow" stroke="black" points="1147,-36 721,-36 721,0 1147,0 1147,-36"/>
<text text-anchor="middle" x="934" y="-14.3" font-family="Helvetica,sans-Serif" font-size="14.00">⋯ Run GitHub Actions for `core/method/methods/motd.go`</text>
</g>
<!-- 3ee91bfa&#45;f1ea&#45;4065&#45;8e7b&#45;c82bcd74fb0b&#45;&gt;27ba7376&#45;d891&#45;47c9&#45;9904&#45;aa819fc71167 -->
<g id="edge5" class="edge">
<title>3ee91bfa&#45;f1ea&#45;4065&#45;8e7b&#45;c82bcd74fb0b&#45;&gt;27ba7376&#45;d891&#45;47c9&#45;9904&#45;aa819fc71167</title>
<path fill="none" stroke="black" stroke-dasharray="5,2" d="M934,-72.72C934,-64.27 934,-54.89 934,-46.36"/>
<polygon fill="black" stroke="black" points="937.5,-46.15 934,-36.15 930.5,-46.15 937.5,-46.15"/>
</g>
<!-- 4ac193c3&#45;32fb&#45;4d11&#45;a383&#45;1e9c1f5df996 -->
<g id="node7" class="node">
<title>4ac193c3&#45;32fb&#45;4d11&#45;a383&#45;1e9c1f5df996</title>
<ellipse fill="white" stroke="black" cx="1742" cy="-99.87" rx="135.11" ry="26.74"/>
<text text-anchor="middle" x="1742" y="-103.67" font-family="Helvetica,sans-Serif" font-size="14.00">▶ Modify</text>
<text text-anchor="middle" x="1742" y="-88.67" font-family="Helvetica,sans-Serif" font-size="14.00">core/method/manager.go</text>
</g>
<!-- bc0e1962&#45;b85b&#45;41cf&#45;a184&#45;67ab7660de71&#45;&gt;4ac193c3&#45;32fb&#45;4d11&#45;a383&#45;1e9c1f5df996 -->
<g id="edge8" class="edge">
<title>bc0e1962&#45;b85b&#45;41cf&#45;a184&#45;67ab7660de71&#45;&gt;4ac193c3&#45;32fb&#45;4d11&#45;a383&#45;1e9c1f5df996</title>
<path fill="none" stroke="black" d="M1526.79,-99.87C1549.98,-99.87 1573.17,-99.87 1596.36,-99.87"/>
<polygon fill="black" stroke="black" points="1596.65,-103.37 1606.65,-99.87 1596.65,-96.37 1596.65,-103.37"/>
</g>
<!-- 20aa1cff&#45;a768&#45;4a4f&#45;b891&#45;33d2c229a964 -->
<g id="node11" class="node">
<title>20aa1cff&#45;a768&#45;4a4f&#45;b891&#45;33d2c229a964</title>
<polygon fill="white" stroke="black" points="1576.5,-36 1165.5,-36 1165.5,0 1576.5,0 1576.5,-36"/>
<text text-anchor="middle" x="1371" y="-14.3" font-family="Helvetica,sans-Serif" font-size="14.00">▶ Run GitHub Actions for `core/method/methods/join.go`</text>
</g>
<!-- bc0e1962&#45;b85b&#45;41cf&#45;a184&#45;67ab7660de71&#45;&gt;20aa1cff&#45;a768&#45;4a4f&#45;b891&#45;33d2c229a964 -->
<g id="edge7" class="edge">
<title>bc0e1962&#45;b85b&#45;41cf&#45;a184&#45;67ab7660de71&#45;&gt;20aa1cff&#45;a768&#45;4a4f&#45;b891&#45;33d2c229a964</title>
<path fill="none" stroke="black" stroke-dasharray="5,2" d="M1371,-72.72C1371,-64.27 1371,-54.89 1371,-46.36"/>
<polygon fill="black" stroke="black" points="1374.5,-46.15 1371,-36.15 1367.5,-46.15 1374.5,-46.15"/>
</g>
<!-- 4ac193c3&#45;32fb&#45;4d11&#45;a383&#45;1e9c1f5df996&#45;&gt;end -->
<g id="edge11" class="edge">
<title>4ac193c3&#45;32fb&#45;4d11&#45;a383&#45;1e9c1f5df996&#45;&gt;end</title>
<path fill="none" stroke="black" d="M1877.09,-99.87C1896.61,-99.87 1913.61,-99.87 1924.05,-99.87"/>
<polygon fill="black" stroke="black" points="1924.34,-103.37 1934.34,-99.87 1924.34,-96.37 1924.34,-103.37"/>
<text text-anchor="middle" x="1905.78" y="-106.67" font-family="Helvetica,sans-Serif" font-size="14.00">Finish</text>
</g>
<!-- 25f64e0c&#45;2d74&#45;4931&#45;9ca8&#45;969060be3cd8 -->
<g id="node12" class="node">
<title>25f64e0c&#45;2d74&#45;4931&#45;9ca8&#45;969060be3cd8</title>
<polygon fill="white" stroke="black" points="1977,-36 1595,-36 1595,0 1977,0 1977,-36"/>
<text text-anchor="middle" x="1786" y="-14.3" font-family="Helvetica,sans-Serif" font-size="14.00">▶ Run GitHub Actions for `core/method/manager.go`</text>
</g>
<!-- 4ac193c3&#45;32fb&#45;4d11&#45;a383&#45;1e9c1f5df996&#45;&gt;25f64e0c&#45;2d74&#45;4931&#45;9ca8&#45;969060be3cd8 -->
<g id="edge9" class="edge">
<title>4ac193c3&#45;32fb&#45;4d11&#45;a383&#45;1e9c1f5df996&#45;&gt;25f64e0c&#45;2d74&#45;4931&#45;9ca8&#45;969060be3cd8</title>
<path fill="none" stroke="black" stroke-dasharray="5,2" d="M1756.41,-72.72C1761.32,-63.8 1766.8,-53.84 1771.71,-44.95"/>
<polygon fill="black" stroke="black" points="1774.79,-46.59 1776.55,-36.15 1768.66,-43.22 1774.79,-46.59"/>
</g>
</g>
</svg>
