<?xml version="1.0" encoding="UTF-8" standalone="no"?>
<!DOCTYPE svg PUBLIC "-//W3C//DTD SVG 1.1//EN"
 "http://www.w3.org/Graphics/SVG/1.1/DTD/svg11.dtd">
<!-- Generated by graphviz version 2.43.0 (0)
 -->
<!-- Title: %3 Pages: 1 -->
<svg width="1189pt" height="238pt"
 viewBox="0.00 0.00 1189.00 237.74" xmlns="http://www.w3.org/2000/svg" xmlns:xlink="http://www.w3.org/1999/xlink">
<g id="graph0" class="graph" transform="scale(1 1) rotate(0) translate(36 201.74)">
<title>%3</title>
<polygon fill="dimgray" stroke="transparent" points="-36,36 -36,-201.74 1153,-201.74 1153,36 -36,36"/>
<text text-anchor="middle" x="558.5" y="-150.54" font-family="Helvetica,sans-Serif" font-size="14.00">Sweep&#39;s Plan &amp; Progress</text>
<!-- start -->
<g id="node1" class="node">
<title>start</title>
</g>
<!-- 8dec7141&#45;3a7e&#45;4716&#45;92a5&#45;7ffc5eb0a973 -->
<g id="node3" class="node">
<title>8dec7141&#45;3a7e&#45;4716&#45;92a5&#45;7ffc5eb0a973</title>
<ellipse fill="yellow" stroke="black" cx="252.5" cy="-99.87" rx="155.63" ry="26.74"/>
<text text-anchor="middle" x="252.5" y="-103.67" font-family="Helvetica,sans-Serif" font-size="14.00">⋯ Modify</text>
<text text-anchor="middle" x="252.5" y="-88.67" font-family="Helvetica,sans-Serif" font-size="14.00">core/method/methods/join.go</text>
</g>
<!-- start&#45;&gt;8dec7141&#45;3a7e&#45;4716&#45;92a5&#45;7ffc5eb0a973 -->
<g id="edge6" class="edge">
<title>start&#45;&gt;8dec7141&#45;3a7e&#45;4716&#45;92a5&#45;7ffc5eb0a973</title>
<path fill="none" stroke="black" d="M45.1,-99.87C48.35,-99.87 64.57,-99.87 86.62,-99.87"/>
<polygon fill="black" stroke="black" points="86.78,-103.37 96.78,-99.87 86.78,-96.37 86.78,-103.37"/>
<text text-anchor="middle" x="70.97" y="-106.67" font-family="Helvetica,sans-Serif" font-size="14.00">Start</text>
</g>
<!-- end -->
<g id="node2" class="node">
<title>end</title>
</g>
<!-- 89de3bbc&#45;6143&#45;4d24&#45;95e7&#45;42b25d12e9e8 -->
<g id="node4" class="node">
<title>89de3bbc&#45;6143&#45;4d24&#45;95e7&#45;42b25d12e9e8</title>
<ellipse fill="white" stroke="black" cx="605.5" cy="-99.87" rx="113.69" ry="26.74"/>
<text text-anchor="middle" x="605.5" y="-103.67" font-family="Helvetica,sans-Serif" font-size="14.00">▶ Modify</text>
<text text-anchor="middle" x="605.5" y="-88.67" font-family="Helvetica,sans-Serif" font-size="14.00">mc/packet/builder.go</text>
</g>
<!-- 8dec7141&#45;3a7e&#45;4716&#45;92a5&#45;7ffc5eb0a973&#45;&gt;89de3bbc&#45;6143&#45;4d24&#45;95e7&#45;42b25d12e9e8 -->
<g id="edge2" class="edge">
<title>8dec7141&#45;3a7e&#45;4716&#45;92a5&#45;7ffc5eb0a973&#45;&gt;89de3bbc&#45;6143&#45;4d24&#45;95e7&#45;42b25d12e9e8</title>
<path fill="none" stroke="black" d="M408.32,-99.87C432.69,-99.87 457.06,-99.87 481.43,-99.87"/>
<polygon fill="black" stroke="black" points="481.5,-103.37 491.5,-99.87 481.5,-96.37 481.5,-103.37"/>
</g>
<!-- e8b74402&#45;7122&#45;43ed&#45;8e85&#45;90034eac3d6c -->
<g id="node6" class="node">
<title>e8b74402&#45;7122&#45;43ed&#45;8e85&#45;90034eac3d6c</title>
<polygon fill="white" stroke="black" points="411,-36 0,-36 0,0 411,0 411,-36"/>
<text text-anchor="middle" x="205.5" y="-14.3" font-family="Helvetica,sans-Serif" font-size="14.00">▶ Run GitHub Actions for `core/method/methods/join.go`</text>
</g>
<!-- 8dec7141&#45;3a7e&#45;4716&#45;92a5&#45;7ffc5eb0a973&#45;&gt;e8b74402&#45;7122&#45;43ed&#45;8e85&#45;90034eac3d6c -->
<g id="edge1" class="edge">
<title>8dec7141&#45;3a7e&#45;4716&#45;92a5&#45;7ffc5eb0a973&#45;&gt;e8b74402&#45;7122&#45;43ed&#45;8e85&#45;90034eac3d6c</title>
<path fill="none" stroke="black" stroke-dasharray="5,2" d="M237.11,-72.72C231.86,-63.8 226,-53.84 220.77,-44.95"/>
<polygon fill="black" stroke="black" points="223.68,-42.99 215.59,-36.15 217.65,-46.54 223.68,-42.99"/>
</g>
<!-- 105309b7&#45;ed79&#45;407a&#45;9708&#45;4926cb05a63a -->
<g id="node5" class="node">
<title>105309b7&#45;ed79&#45;407a&#45;9708&#45;4926cb05a63a</title>
<ellipse fill="white" stroke="black" cx="901.5" cy="-99.87" rx="89.19" ry="26.74"/>
<text text-anchor="middle" x="901.5" y="-103.67" font-family="Helvetica,sans-Serif" font-size="14.00">▶ Modify</text>
<text text-anchor="middle" x="901.5" y="-88.67" font-family="Helvetica,sans-Serif" font-size="14.00">utils/random.go</text>
</g>
<!-- 89de3bbc&#45;6143&#45;4d24&#45;95e7&#45;42b25d12e9e8&#45;&gt;105309b7&#45;ed79&#45;407a&#45;9708&#45;4926cb05a63a -->
<g id="edge4" class="edge">
<title>89de3bbc&#45;6143&#45;4d24&#45;95e7&#45;42b25d12e9e8&#45;&gt;105309b7&#45;ed79&#45;407a&#45;9708&#45;4926cb05a63a</title>
<path fill="none" stroke="black" d="M719.39,-99.87C746.95,-99.87 774.51,-99.87 802.07,-99.87"/>
<polygon fill="black" stroke="black" points="802.22,-103.37 812.22,-99.87 802.22,-96.37 802.22,-103.37"/>
</g>
<!-- 5f17b052&#45;4bd9&#45;43da&#45;9c9d&#45;2e2d0b15e8c7 -->
<g id="node7" class="node">
<title>5f17b052&#45;4bd9&#45;43da&#45;9c9d&#45;2e2d0b15e8c7</title>
<polygon fill="white" stroke="black" points="782,-36 429,-36 429,0 782,0 782,-36"/>
<text text-anchor="middle" x="605.5" y="-14.3" font-family="Helvetica,sans-Serif" font-size="14.00">▶ Run GitHub Actions for `mc/packet/builder.go`</text>
</g>
<!-- 89de3bbc&#45;6143&#45;4d24&#45;95e7&#45;42b25d12e9e8&#45;&gt;5f17b052&#45;4bd9&#45;43da&#45;9c9d&#45;2e2d0b15e8c7 -->
<g id="edge3" class="edge">
<title>89de3bbc&#45;6143&#45;4d24&#45;95e7&#45;42b25d12e9e8&#45;&gt;5f17b052&#45;4bd9&#45;43da&#45;9c9d&#45;2e2d0b15e8c7</title>
<path fill="none" stroke="black" stroke-dasharray="5,2" d="M605.5,-72.72C605.5,-64.27 605.5,-54.89 605.5,-46.36"/>
<polygon fill="black" stroke="black" points="609,-46.15 605.5,-36.15 602,-46.15 609,-46.15"/>
</g>
<!-- 105309b7&#45;ed79&#45;407a&#45;9708&#45;4926cb05a63a&#45;&gt;end -->
<g id="edge7" class="edge">
<title>105309b7&#45;ed79&#45;407a&#45;9708&#45;4926cb05a63a&#45;&gt;end</title>
<path fill="none" stroke="black" d="M990.82,-99.87C1009.57,-99.87 1026.87,-99.87 1037.53,-99.87"/>
<polygon fill="black" stroke="black" points="1037.81,-103.37 1047.81,-99.87 1037.81,-96.37 1037.81,-103.37"/>
<text text-anchor="middle" x="1019.3" y="-106.67" font-family="Helvetica,sans-Serif" font-size="14.00">Finish</text>
</g>
<!-- 7b92a24e&#45;2dfa&#45;472b&#45;abdc&#45;d107c880b07b -->
<g id="node8" class="node">
<title>7b92a24e&#45;2dfa&#45;472b&#45;abdc&#45;d107c880b07b</title>
<polygon fill="white" stroke="black" points="1117,-36 800,-36 800,0 1117,0 1117,-36"/>
<text text-anchor="middle" x="958.5" y="-14.3" font-family="Helvetica,sans-Serif" font-size="14.00">▶ Run GitHub Actions for `utils/random.go`</text>
</g>
<!-- 105309b7&#45;ed79&#45;407a&#45;9708&#45;4926cb05a63a&#45;&gt;7b92a24e&#45;2dfa&#45;472b&#45;abdc&#45;d107c880b07b -->
<g id="edge5" class="edge">
<title>105309b7&#45;ed79&#45;407a&#45;9708&#45;4926cb05a63a&#45;&gt;7b92a24e&#45;2dfa&#45;472b&#45;abdc&#45;d107c880b07b</title>
<path fill="none" stroke="black" stroke-dasharray="5,2" d="M919.85,-73.16C926.36,-64.04 933.68,-53.77 940.19,-44.65"/>
<polygon fill="black" stroke="black" points="943.17,-46.51 946.13,-36.34 937.47,-42.44 943.17,-46.51"/>
</g>
</g>
</svg>
