<?xml version="1.0" encoding="UTF-8" standalone="no"?>
<!DOCTYPE svg PUBLIC "-//W3C//DTD SVG 1.1//EN"
 "http://www.w3.org/Graphics/SVG/1.1/DTD/svg11.dtd">
<!-- Generated by graphviz version 2.43.0 (0)
 -->
<!-- Title: %3 Pages: 1 -->
<svg width="2042pt" height="238pt"
 viewBox="0.00 0.00 2042.00 237.74" xmlns="http://www.w3.org/2000/svg" xmlns:xlink="http://www.w3.org/1999/xlink">
<g id="graph0" class="graph" transform="scale(1 1) rotate(0) translate(36 201.74)">
<title>%3</title>
<polygon fill="dimgray" stroke="transparent" points="-36,36 -36,-201.74 2006,-201.74 2006,36 -36,36"/>
<text text-anchor="middle" x="985" y="-150.54" font-family="Helvetica,sans-Serif" font-size="14.00">Sweep&#39;s Plan &amp; Progress</text>
<!-- start -->
<g id="node1" class="node">
<title>start</title>
</g>
<!-- d7c254b7&#45;a3ab&#45;4563&#45;a5e1&#45;a3fb9c719a01 -->
<g id="node3" class="node">
<title>d7c254b7&#45;a3ab&#45;4563&#45;a5e1&#45;a3fb9c719a01</title>
<ellipse fill="yellow" stroke="black" cx="185" cy="-99.87" rx="57.05" ry="26.74"/>
<text text-anchor="middle" x="185" y="-103.67" font-family="Helvetica,sans-Serif" font-size="14.00">⋯ Modify</text>
<text text-anchor="middle" x="185" y="-88.67" font-family="Helvetica,sans-Serif" font-size="14.00">main.go</text>
</g>
<!-- start&#45;&gt;d7c254b7&#45;a3ab&#45;4563&#45;a5e1&#45;a3fb9c719a01 -->
<g id="edge10" class="edge">
<title>start&#45;&gt;d7c254b7&#45;a3ab&#45;4563&#45;a5e1&#45;a3fb9c719a01</title>
<path fill="none" stroke="black" d="M76.7,-99.87C80.33,-99.87 97.67,-99.87 117.46,-99.87"/>
<polygon fill="black" stroke="black" points="117.64,-103.37 127.64,-99.87 117.64,-96.37 117.64,-103.37"/>
<text text-anchor="middle" x="102.11" y="-106.67" font-family="Helvetica,sans-Serif" font-size="14.00">Start</text>
</g>
<!-- end -->
<g id="node2" class="node">
<title>end</title>
</g>
<!-- 60ee7042&#45;2039&#45;47ca&#45;8dd7&#45;df1f87f5ac15 -->
<g id="node4" class="node">
<title>60ee7042&#45;2039&#45;47ca&#45;8dd7&#45;df1f87f5ac15</title>
<ellipse fill="white" stroke="black" cx="491" cy="-99.87" rx="159.61" ry="26.74"/>
<text text-anchor="middle" x="491" y="-103.67" font-family="Helvetica,sans-Serif" font-size="14.00">▶ Modify</text>
<text text-anchor="middle" x="491" y="-88.67" font-family="Helvetica,sans-Serif" font-size="14.00">core/method/methods/ping.go</text>
</g>
<!-- d7c254b7&#45;a3ab&#45;4563&#45;a5e1&#45;a3fb9c719a01&#45;&gt;60ee7042&#45;2039&#45;47ca&#45;8dd7&#45;df1f87f5ac15 -->
<g id="edge2" class="edge">
<title>d7c254b7&#45;a3ab&#45;4563&#45;a5e1&#45;a3fb9c719a01&#45;&gt;60ee7042&#45;2039&#45;47ca&#45;8dd7&#45;df1f87f5ac15</title>
<path fill="none" stroke="black" d="M242.38,-99.87C268.5,-99.87 294.62,-99.87 320.74,-99.87"/>
<polygon fill="black" stroke="black" points="320.75,-103.37 330.75,-99.87 320.75,-96.37 320.75,-103.37"/>
</g>
<!-- ca5a0af2&#45;7ab6&#45;4ecb&#45;9de5&#45;037ccd6cc712 -->
<g id="node8" class="node">
<title>ca5a0af2&#45;7ab6&#45;4ecb&#45;9de5&#45;037ccd6cc712</title>
<polygon fill="white" stroke="black" points="264,-36 0,-36 0,0 264,0 264,-36"/>
<text text-anchor="middle" x="132" y="-14.3" font-family="Helvetica,sans-Serif" font-size="14.00">▶ Run GitHub Actions for `main.go`</text>
</g>
<!-- d7c254b7&#45;a3ab&#45;4563&#45;a5e1&#45;a3fb9c719a01&#45;&gt;ca5a0af2&#45;7ab6&#45;4ecb&#45;9de5&#45;037ccd6cc712 -->
<g id="edge1" class="edge">
<title>d7c254b7&#45;a3ab&#45;4563&#45;a5e1&#45;a3fb9c719a01&#45;&gt;ca5a0af2&#45;7ab6&#45;4ecb&#45;9de5&#45;037ccd6cc712</title>
<path fill="none" stroke="black" stroke-dasharray="5,2" d="M168.52,-74.04C162.35,-64.74 155.33,-54.15 149.1,-44.77"/>
<polygon fill="black" stroke="black" points="151.87,-42.62 143.43,-36.22 146.04,-46.49 151.87,-42.62"/>
</g>
<!-- 3ee91bfa&#45;f1ea&#45;4065&#45;8e7b&#45;c82bcd74fb0b -->
<g id="node5" class="node">
<title>3ee91bfa&#45;f1ea&#45;4065&#45;8e7b&#45;c82bcd74fb0b</title>
<ellipse fill="white" stroke="black" cx="929" cy="-99.87" rx="163.18" ry="26.74"/>
<text text-anchor="middle" x="929" y="-103.67" font-family="Helvetica,sans-Serif" font-size="14.00">▶ Modify</text>
<text text-anchor="middle" x="929" y="-88.67" font-family="Helvetica,sans-Serif" font-size="14.00">core/method/methods/motd.go</text>
</g>
<!-- 60ee7042&#45;2039&#45;47ca&#45;8dd7&#45;df1f87f5ac15&#45;&gt;3ee91bfa&#45;f1ea&#45;4065&#45;8e7b&#45;c82bcd74fb0b -->
<g id="edge4" class="edge">
<title>60ee7042&#45;2039&#45;47ca&#45;8dd7&#45;df1f87f5ac15&#45;&gt;3ee91bfa&#45;f1ea&#45;4065&#45;8e7b&#45;c82bcd74fb0b</title>
<path fill="none" stroke="black" d="M650.97,-99.87C685.73,-99.87 720.5,-99.87 755.26,-99.87"/>
<polygon fill="black" stroke="black" points="755.55,-103.37 765.55,-99.87 755.55,-96.37 755.55,-103.37"/>
</g>
<!-- 504449da&#45;d14d&#45;4459&#45;ba99&#45;d2a1b49e1039 -->
<g id="node9" class="node">
<title>504449da&#45;d14d&#45;4459&#45;ba99&#45;d2a1b49e1039</title>
<polygon fill="white" stroke="black" points="699.5,-36 282.5,-36 282.5,0 699.5,0 699.5,-36"/>
<text text-anchor="middle" x="491" y="-14.3" font-family="Helvetica,sans-Serif" font-size="14.00">▶ Run GitHub Actions for `core/method/methods/ping.go`</text>
</g>
<!-- 60ee7042&#45;2039&#45;47ca&#45;8dd7&#45;df1f87f5ac15&#45;&gt;504449da&#45;d14d&#45;4459&#45;ba99&#45;d2a1b49e1039 -->
<g id="edge3" class="edge">
<title>60ee7042&#45;2039&#45;47ca&#45;8dd7&#45;df1f87f5ac15&#45;&gt;504449da&#45;d14d&#45;4459&#45;ba99&#45;d2a1b49e1039</title>
<path fill="none" stroke="black" stroke-dasharray="5,2" d="M491,-72.72C491,-64.27 491,-54.89 491,-46.36"/>
<polygon fill="black" stroke="black" points="494.5,-46.15 491,-36.15 487.5,-46.15 494.5,-46.15"/>
</g>
<!-- bc0e1962&#45;b85b&#45;41cf&#45;a184&#45;67ab7660de71 -->
<g id="node6" class="node">
<title>bc0e1962&#45;b85b&#45;41cf&#45;a184&#45;67ab7660de71</title>
<ellipse fill="white" stroke="black" cx="1364" cy="-99.87" rx="155.63" ry="26.74"/>
<text text-anchor="middle" x="1364" y="-103.67" font-family="Helvetica,sans-Serif" font-size="14.00">▶ Modify</text>
<text text-anchor="middle" x="1364" y="-88.67" font-family="Helvetica,sans-Serif" font-size="14.00">core/method/methods/join.go</text>
</g>
<!-- 3ee91bfa&#45;f1ea&#45;4065&#45;8e7b&#45;c82bcd74fb0b&#45;&gt;bc0e1962&#45;b85b&#45;41cf&#45;a184&#45;67ab7660de71 -->
<g id="edge6" class="edge">
<title>3ee91bfa&#45;f1ea&#45;4065&#45;8e7b&#45;c82bcd74fb0b&#45;&gt;bc0e1962&#45;b85b&#45;41cf&#45;a184&#45;67ab7660de71</title>
<path fill="none" stroke="black" d="M1092.55,-99.87C1127.7,-99.87 1162.84,-99.87 1197.99,-99.87"/>
<polygon fill="black" stroke="black" points="1198.39,-103.37 1208.39,-99.87 1198.39,-96.37 1198.39,-103.37"/>
</g>
<!-- 27ba7376&#45;d891&#45;47c9&#45;9904&#45;aa819fc71167 -->
<g id="node10" class="node">
<title>27ba7376&#45;d891&#45;47c9&#45;9904&#45;aa819fc71167</title>
<polygon fill="white" stroke="black" points="1140,-36 718,-36 718,0 1140,0 1140,-36"/>
<text text-anchor="middle" x="929" y="-14.3" font-family="Helvetica,sans-Serif" font-size="14.00">▶ Run GitHub Actions for `core/method/methods/motd.go`</text>
</g>
<!-- 3ee91bfa&#45;f1ea&#45;4065&#45;8e7b&#45;c82bcd74fb0b&#45;&gt;27ba7376&#45;d891&#45;47c9&#45;9904&#45;aa819fc71167 -->
<g id="edge5" class="edge">
<title>3ee91bfa&#45;f1ea&#45;4065&#45;8e7b&#45;c82bcd74fb0b&#45;&gt;27ba7376&#45;d891&#45;47c9&#45;9904&#45;aa819fc71167</title>
<path fill="none" stroke="black" stroke-dasharray="5,2" d="M929,-72.72C929,-64.27 929,-54.89 929,-46.36"/>
<polygon fill="black" stroke="black" points="932.5,-46.15 929,-36.15 925.5,-46.15 932.5,-46.15"/>
</g>
<!-- 4ac193c3&#45;32fb&#45;4d11&#45;a383&#45;1e9c1f5df996 -->
<g id="node7" class="node">
<title>4ac193c3&#45;32fb&#45;4d11&#45;a383&#45;1e9c1f5df996</title>
<ellipse fill="white" stroke="black" cx="1735" cy="-99.87" rx="135.11" ry="26.74"/>
<text text-anchor="middle" x="1735" y="-103.67" font-family="Helvetica,sans-Serif" font-size="14.00">▶ Modify</text>
<text text-anchor="middle" x="1735" y="-88.67" font-family="Helvetica,sans-Serif" font-size="14.00">core/method/manager.go</text>
</g>
<!-- bc0e1962&#45;b85b&#45;41cf&#45;a184&#45;67ab7660de71&#45;&gt;4ac193c3&#45;32fb&#45;4d11&#45;a383&#45;1e9c1f5df996 -->
<g id="edge8" class="edge">
<title>bc0e1962&#45;b85b&#45;41cf&#45;a184&#45;67ab7660de71&#45;&gt;4ac193c3&#45;32fb&#45;4d11&#45;a383&#45;1e9c1f5df996</title>
<path fill="none" stroke="black" d="M1519.79,-99.87C1542.98,-99.87 1566.17,-99.87 1589.36,-99.87"/>
<polygon fill="black" stroke="black" points="1589.65,-103.37 1599.65,-99.87 1589.65,-96.37 1589.65,-103.37"/>
</g>
<!-- 20aa1cff&#45;a768&#45;4a4f&#45;b891&#45;33d2c229a964 -->
<g id="node11" class="node">
<title>20aa1cff&#45;a768&#45;4a4f&#45;b891&#45;33d2c229a964</title>
<polygon fill="white" stroke="black" points="1569.5,-36 1158.5,-36 1158.5,0 1569.5,0 1569.5,-36"/>
<text text-anchor="middle" x="1364" y="-14.3" font-family="Helvetica,sans-Serif" font-size="14.00">▶ Run GitHub Actions for `core/method/methods/join.go`</text>
</g>
<!-- bc0e1962&#45;b85b&#45;41cf&#45;a184&#45;67ab7660de71&#45;&gt;20aa1cff&#45;a768&#45;4a4f&#45;b891&#45;33d2c229a964 -->
<g id="edge7" class="edge">
<title>bc0e1962&#45;b85b&#45;41cf&#45;a184&#45;67ab7660de71&#45;&gt;20aa1cff&#45;a768&#45;4a4f&#45;b891&#45;33d2c229a964</title>
<path fill="none" stroke="black" stroke-dasharray="5,2" d="M1364,-72.72C1364,-64.27 1364,-54.89 1364,-46.36"/>
<polygon fill="black" stroke="black" points="1367.5,-46.15 1364,-36.15 1360.5,-46.15 1367.5,-46.15"/>
</g>
<!-- 4ac193c3&#45;32fb&#45;4d11&#45;a383&#45;1e9c1f5df996&#45;&gt;end -->
<g id="edge11" class="edge">
<title>4ac193c3&#45;32fb&#45;4d11&#45;a383&#45;1e9c1f5df996&#45;&gt;end</title>
<path fill="none" stroke="black" d="M1870.09,-99.87C1889.61,-99.87 1906.61,-99.87 1917.05,-99.87"/>
<polygon fill="black" stroke="black" points="1917.34,-103.37 1927.34,-99.87 1917.34,-96.37 1917.34,-103.37"/>
<text text-anchor="middle" x="1898.78" y="-106.67" font-family="Helvetica,sans-Serif" font-size="14.00">Finish</text>
</g>
<!-- 25f64e0c&#45;2d74&#45;4931&#45;9ca8&#45;969060be3cd8 -->
<g id="node12" class="node">
<title>25f64e0c&#45;2d74&#45;4931&#45;9ca8&#45;969060be3cd8</title>
<polygon fill="white" stroke="black" points="1970,-36 1588,-36 1588,0 1970,0 1970,-36"/>
<text text-anchor="middle" x="1779" y="-14.3" font-family="Helvetica,sans-Serif" font-size="14.00">▶ Run GitHub Actions for `core/method/manager.go`</text>
</g>
<!-- 4ac193c3&#45;32fb&#45;4d11&#45;a383&#45;1e9c1f5df996&#45;&gt;25f64e0c&#45;2d74&#45;4931&#45;9ca8&#45;969060be3cd8 -->
<g id="edge9" class="edge">
<title>4ac193c3&#45;32fb&#45;4d11&#45;a383&#45;1e9c1f5df996&#45;&gt;25f64e0c&#45;2d74&#45;4931&#45;9ca8&#45;969060be3cd8</title>
<path fill="none" stroke="black" stroke-dasharray="5,2" d="M1749.41,-72.72C1754.32,-63.8 1759.8,-53.84 1764.71,-44.95"/>
<polygon fill="black" stroke="black" points="1767.79,-46.59 1769.55,-36.15 1761.66,-43.22 1767.79,-46.59"/>
</g>
</g>
</svg>
