<?xml version="1.0" encoding="UTF-8" standalone="no"?>
<!DOCTYPE svg PUBLIC "-//W3C//DTD SVG 1.1//EN"
 "http://www.w3.org/Graphics/SVG/1.1/DTD/svg11.dtd">
<!-- Generated by graphviz version 2.43.0 (0)
 -->
<!-- Title: %3 Pages: 1 -->
<svg width="1363pt" height="238pt"
 viewBox="0.00 0.00 1363.00 237.74" xmlns="http://www.w3.org/2000/svg" xmlns:xlink="http://www.w3.org/1999/xlink">
<g id="graph0" class="graph" transform="scale(1 1) rotate(0) translate(36 201.74)">
<title>%3</title>
<polygon fill="dimgray" stroke="transparent" points="-36,36 -36,-201.74 1327,-201.74 1327,36 -36,36"/>
<text text-anchor="middle" x="645.5" y="-150.54" font-family="Helvetica,sans-Serif" font-size="14.00">Sweep&#39;s Plan &amp; Progress</text>
<!-- start -->
<g id="node1" class="node">
<title>start</title>
</g>
<!-- 4c523b37&#45;0a36&#45;4d71&#45;aba5&#45;0cdc7e5723d7 -->
<g id="node3" class="node">
<title>4c523b37&#45;0a36&#45;4d71&#45;aba5&#45;0cdc7e5723d7</title>
<ellipse fill="#ee0000" stroke="black" cx="250.5" cy="-99.87" rx="159.61" ry="26.74"/>
<text text-anchor="middle" x="250.5" y="-103.67" font-family="Helvetica,sans-Serif" font-size="14.00">✗ Modify</text>
<text text-anchor="middle" x="250.5" y="-88.67" font-family="Helvetica,sans-Serif" font-size="14.00">core/method/methods/ping.go</text>
</g>
<!-- start&#45;&gt;4c523b37&#45;0a36&#45;4d71&#45;aba5&#45;0cdc7e5723d7 -->
<g id="edge6" class="edge">
<title>start&#45;&gt;4c523b37&#45;0a36&#45;4d71&#45;aba5&#45;0cdc7e5723d7</title>
<path fill="none" stroke="black" d="M39.11,-99.87C42.37,-99.87 58.43,-99.87 80.36,-99.87"/>
<polygon fill="black" stroke="black" points="80.46,-103.37 90.46,-99.87 80.46,-96.37 80.46,-103.37"/>
<text text-anchor="middle" x="64.85" y="-106.67" font-family="Helvetica,sans-Serif" font-size="14.00">Start</text>
</g>
<!-- end -->
<g id="node2" class="node">
<title>end</title>
</g>
<!-- 7adfe660&#45;1586&#45;4e94&#45;bf97&#45;f4807676ca87 -->
<g id="node4" class="node">
<title>7adfe660&#45;1586&#45;4e94&#45;bf97&#45;f4807676ca87</title>
<ellipse fill="white" stroke="black" cx="650.5" cy="-99.87" rx="163.18" ry="26.74"/>
<text text-anchor="middle" x="650.5" y="-103.67" font-family="Helvetica,sans-Serif" font-size="14.00">▶ Modify</text>
<text text-anchor="middle" x="650.5" y="-88.67" font-family="Helvetica,sans-Serif" font-size="14.00">core/method/methods/motd.go</text>
</g>
<!-- 4c523b37&#45;0a36&#45;4d71&#45;aba5&#45;0cdc7e5723d7&#45;&gt;7adfe660&#45;1586&#45;4e94&#45;bf97&#45;f4807676ca87 -->
<g id="edge2" class="edge">
<title>4c523b37&#45;0a36&#45;4d71&#45;aba5&#45;0cdc7e5723d7&#45;&gt;7adfe660&#45;1586&#45;4e94&#45;bf97&#45;f4807676ca87</title>
<path fill="none" stroke="black" d="M410.66,-99.87C432.73,-99.87 454.8,-99.87 476.87,-99.87"/>
<polygon fill="black" stroke="black" points="477.01,-103.37 487.01,-99.87 477.01,-96.37 477.01,-103.37"/>
</g>
<!-- 457ee0c1&#45;8c7d&#45;4b38&#45;9e11&#45;6435a4ceaa1b -->
<g id="node6" class="node">
<title>457ee0c1&#45;8c7d&#45;4b38&#45;9e11&#45;6435a4ceaa1b</title>
<polygon fill="yellow" stroke="black" points="421,-36 0,-36 0,0 421,0 421,-36"/>
<text text-anchor="middle" x="210.5" y="-14.3" font-family="Helvetica,sans-Serif" font-size="14.00">⋯ Run GitHub Actions for `core/method/methods/ping.go`</text>
</g>
<!-- 4c523b37&#45;0a36&#45;4d71&#45;aba5&#45;0cdc7e5723d7&#45;&gt;457ee0c1&#45;8c7d&#45;4b38&#45;9e11&#45;6435a4ceaa1b -->
<g id="edge1" class="edge">
<title>4c523b37&#45;0a36&#45;4d71&#45;aba5&#45;0cdc7e5723d7&#45;&gt;457ee0c1&#45;8c7d&#45;4b38&#45;9e11&#45;6435a4ceaa1b</title>
<path fill="none" stroke="black" stroke-dasharray="5,2" d="M237.4,-72.72C232.99,-63.9 228.06,-54.05 223.64,-45.23"/>
<polygon fill="black" stroke="black" points="226.69,-43.52 219.09,-36.15 220.44,-46.66 226.69,-43.52"/>
</g>
<!-- 472a96fa&#45;e751&#45;4089&#45;9d5d&#45;0bcc7cb9edb2 -->
<g id="node5" class="node">
<title>472a96fa&#45;e751&#45;4089&#45;9d5d&#45;0bcc7cb9edb2</title>
<ellipse fill="white" stroke="black" cx="1045.5" cy="-99.87" rx="155.63" ry="26.74"/>
<text text-anchor="middle" x="1045.5" y="-103.67" font-family="Helvetica,sans-Serif" font-size="14.00">▶ Modify</text>
<text text-anchor="middle" x="1045.5" y="-88.67" font-family="Helvetica,sans-Serif" font-size="14.00">core/method/methods/join.go</text>
</g>
<!-- 7adfe660&#45;1586&#45;4e94&#45;bf97&#45;f4807676ca87&#45;&gt;472a96fa&#45;e751&#45;4089&#45;9d5d&#45;0bcc7cb9edb2 -->
<g id="edge4" class="edge">
<title>7adfe660&#45;1586&#45;4e94&#45;bf97&#45;f4807676ca87&#45;&gt;472a96fa&#45;e751&#45;4089&#45;9d5d&#45;0bcc7cb9edb2</title>
<path fill="none" stroke="black" d="M814.05,-99.87C835.88,-99.87 857.7,-99.87 879.52,-99.87"/>
<polygon fill="black" stroke="black" points="879.55,-103.37 889.55,-99.87 879.55,-96.37 879.55,-103.37"/>
</g>
<!-- 7be4efee&#45;fdf8&#45;43c3&#45;bdc7&#45;3abf5d891f4c -->
<g id="node7" class="node">
<title>7be4efee&#45;fdf8&#45;43c3&#45;bdc7&#45;3abf5d891f4c</title>
<polygon fill="white" stroke="black" points="861.5,-36 439.5,-36 439.5,0 861.5,0 861.5,-36"/>
<text text-anchor="middle" x="650.5" y="-14.3" font-family="Helvetica,sans-Serif" font-size="14.00">▶ Run GitHub Actions for `core/method/methods/motd.go`</text>
</g>
<!-- 7adfe660&#45;1586&#45;4e94&#45;bf97&#45;f4807676ca87&#45;&gt;7be4efee&#45;fdf8&#45;43c3&#45;bdc7&#45;3abf5d891f4c -->
<g id="edge3" class="edge">
<title>7adfe660&#45;1586&#45;4e94&#45;bf97&#45;f4807676ca87&#45;&gt;7be4efee&#45;fdf8&#45;43c3&#45;bdc7&#45;3abf5d891f4c</title>
<path fill="none" stroke="black" stroke-dasharray="5,2" d="M650.5,-72.72C650.5,-64.27 650.5,-54.89 650.5,-46.36"/>
<polygon fill="black" stroke="black" points="654,-46.15 650.5,-36.15 647,-46.15 654,-46.15"/>
</g>
<!-- 472a96fa&#45;e751&#45;4089&#45;9d5d&#45;0bcc7cb9edb2&#45;&gt;end -->
<g id="edge7" class="edge">
<title>472a96fa&#45;e751&#45;4089&#45;9d5d&#45;0bcc7cb9edb2&#45;&gt;end</title>
<path fill="none" stroke="black" d="M1201.31,-99.87C1221.2,-99.87 1238.22,-99.87 1248.63,-99.87"/>
<polygon fill="black" stroke="black" points="1248.85,-103.37 1258.85,-99.87 1248.85,-96.37 1248.85,-103.37"/>
<text text-anchor="middle" x="1230.03" y="-106.67" font-family="Helvetica,sans-Serif" font-size="14.00">Finish</text>
</g>
<!-- d6b5d406&#45;cda7&#45;4123&#45;9062&#45;defbfae24da2 -->
<g id="node8" class="node">
<title>d6b5d406&#45;cda7&#45;4123&#45;9062&#45;defbfae24da2</title>
<polygon fill="white" stroke="black" points="1291,-36 880,-36 880,0 1291,0 1291,-36"/>
<text text-anchor="middle" x="1085.5" y="-14.3" font-family="Helvetica,sans-Serif" font-size="14.00">▶ Run GitHub Actions for `core/method/methods/join.go`</text>
</g>
<!-- 472a96fa&#45;e751&#45;4089&#45;9d5d&#45;0bcc7cb9edb2&#45;&gt;d6b5d406&#45;cda7&#45;4123&#45;9062&#45;defbfae24da2 -->
<g id="edge5" class="edge">
<title>472a96fa&#45;e751&#45;4089&#45;9d5d&#45;0bcc7cb9edb2&#45;&gt;d6b5d406&#45;cda7&#45;4123&#45;9062&#45;defbfae24da2</title>
<path fill="none" stroke="black" stroke-dasharray="5,2" d="M1058.6,-72.72C1063.01,-63.9 1067.94,-54.05 1072.36,-45.23"/>
<polygon fill="black" stroke="black" points="1075.56,-46.66 1076.91,-36.15 1069.31,-43.52 1075.56,-46.66"/>
</g>
</g>
</svg>
