<?xml version="1.0" encoding="UTF-8" standalone="no"?>
<!DOCTYPE svg PUBLIC "-//W3C//DTD SVG 1.1//EN"
 "http://www.w3.org/Graphics/SVG/1.1/DTD/svg11.dtd">
<!-- Generated by graphviz version 2.43.0 (0)
 -->
<!-- Title: %3 Pages: 1 -->
<svg width="1647pt" height="238pt"
 viewBox="0.00 0.00 1646.50 237.74" xmlns="http://www.w3.org/2000/svg" xmlns:xlink="http://www.w3.org/1999/xlink">
<g id="graph0" class="graph" transform="scale(1 1) rotate(0) translate(36 201.74)">
<title>%3</title>
<polygon fill="dimgray" stroke="transparent" points="-36,36 -36,-201.74 1610.5,-201.74 1610.5,36 -36,36"/>
<text text-anchor="middle" x="787.25" y="-150.54" font-family="Helvetica,sans-Serif" font-size="14.00">Sweep&#39;s Plan &amp; Progress</text>
<!-- start -->
<g id="node1" class="node">
<title>start</title>
</g>
<!-- 121be873&#45;59f2&#45;49e6&#45;8113&#45;dab1ff6e2c98 -->
<g id="node3" class="node">
<title>121be873&#45;59f2&#45;49e6&#45;8113&#45;dab1ff6e2c98</title>
<ellipse fill="#0ee832" stroke="black" cx="248.5" cy="-99.87" rx="155.63" ry="26.74"/>
<text text-anchor="middle" x="248.5" y="-103.67" font-family="Helvetica,sans-Serif" font-size="14.00">✓ Modify</text>
<text text-anchor="middle" x="248.5" y="-88.67" font-family="Helvetica,sans-Serif" font-size="14.00">core/method/methods/join.go</text>
</g>
<!-- start&#45;&gt;121be873&#45;59f2&#45;49e6&#45;8113&#45;dab1ff6e2c98 -->
<g id="edge8" class="edge">
<title>start&#45;&gt;121be873&#45;59f2&#45;49e6&#45;8113&#45;dab1ff6e2c98</title>
<path fill="none" stroke="black" d="M41.1,-99.87C44.35,-99.87 60.57,-99.87 82.62,-99.87"/>
<polygon fill="black" stroke="black" points="82.78,-103.37 92.78,-99.87 82.78,-96.37 82.78,-103.37"/>
<text text-anchor="middle" x="66.97" y="-106.67" font-family="Helvetica,sans-Serif" font-size="14.00">Start</text>
</g>
<!-- end -->
<g id="node2" class="node">
<title>end</title>
</g>
<!-- d58e2f87&#45;7b54&#45;486a&#45;ac87&#45;24237cf2b6b0 -->
<g id="node4" class="node">
<title>d58e2f87&#45;7b54&#45;486a&#45;ac87&#45;24237cf2b6b0</title>
<ellipse fill="#0ee832" stroke="black" cx="644.5" cy="-99.87" rx="163.18" ry="26.74"/>
<text text-anchor="middle" x="644.5" y="-103.67" font-family="Helvetica,sans-Serif" font-size="14.00">✓ Modify</text>
<text text-anchor="middle" x="644.5" y="-88.67" font-family="Helvetica,sans-Serif" font-size="14.00">core/method/methods/motd.go</text>
</g>
<!-- 121be873&#45;59f2&#45;49e6&#45;8113&#45;dab1ff6e2c98&#45;&gt;d58e2f87&#45;7b54&#45;486a&#45;ac87&#45;24237cf2b6b0 -->
<g id="edge2" class="edge">
<title>121be873&#45;59f2&#45;49e6&#45;8113&#45;dab1ff6e2c98&#45;&gt;d58e2f87&#45;7b54&#45;486a&#45;ac87&#45;24237cf2b6b0</title>
<path fill="none" stroke="black" d="M404.35,-99.87C426.45,-99.87 448.55,-99.87 470.65,-99.87"/>
<polygon fill="black" stroke="black" points="470.8,-103.37 480.8,-99.87 470.8,-96.37 470.8,-103.37"/>
</g>
<!-- 8d0cb66c&#45;ea6f&#45;4b01&#45;becb&#45;f8746578608b -->
<g id="node7" class="node">
<title>8d0cb66c&#45;ea6f&#45;4b01&#45;becb&#45;f8746578608b</title>
<polygon fill="#0ee832" stroke="black" points="413,-36 0,-36 0,0 413,0 413,-36"/>
<text text-anchor="middle" x="206.5" y="-14.3" font-family="Helvetica,sans-Serif" font-size="14.00">✓ Run GitHub Actions for `core/method/methods/join.go`</text>
</g>
<!-- 121be873&#45;59f2&#45;49e6&#45;8113&#45;dab1ff6e2c98&#45;&gt;8d0cb66c&#45;ea6f&#45;4b01&#45;becb&#45;f8746578608b -->
<g id="edge1" class="edge">
<title>121be873&#45;59f2&#45;49e6&#45;8113&#45;dab1ff6e2c98&#45;&gt;8d0cb66c&#45;ea6f&#45;4b01&#45;becb&#45;f8746578608b</title>
<path fill="none" stroke="black" stroke-dasharray="5,2" d="M234.75,-72.72C230.11,-63.9 224.93,-54.05 220.29,-45.23"/>
<polygon fill="black" stroke="black" points="223.27,-43.37 215.52,-36.15 217.07,-46.63 223.27,-43.37"/>
</g>
<!-- 52ea50e1&#45;da82&#45;482d&#45;abe4&#45;146714f16b49 -->
<g id="node5" class="node">
<title>52ea50e1&#45;da82&#45;482d&#45;abe4&#45;146714f16b49</title>
<ellipse fill="white" stroke="black" cx="1083.5" cy="-99.87" rx="159.61" ry="26.74"/>
<text text-anchor="middle" x="1083.5" y="-103.67" font-family="Helvetica,sans-Serif" font-size="14.00">▶ Modify</text>
<text text-anchor="middle" x="1083.5" y="-88.67" font-family="Helvetica,sans-Serif" font-size="14.00">core/method/methods/ping.go</text>
</g>
<!-- d58e2f87&#45;7b54&#45;486a&#45;ac87&#45;24237cf2b6b0&#45;&gt;52ea50e1&#45;da82&#45;482d&#45;abe4&#45;146714f16b49 -->
<g id="edge4" class="edge">
<title>d58e2f87&#45;7b54&#45;486a&#45;ac87&#45;24237cf2b6b0&#45;&gt;52ea50e1&#45;da82&#45;482d&#45;abe4&#45;146714f16b49</title>
<path fill="none" stroke="black" d="M808.27,-99.87C843.25,-99.87 878.23,-99.87 913.22,-99.87"/>
<polygon fill="black" stroke="black" points="913.57,-103.37 923.57,-99.87 913.57,-96.37 913.57,-103.37"/>
</g>
<!-- f4ba2493&#45;bc90&#45;4ec7&#45;9fae&#45;f0d44c18eb09 -->
<g id="node8" class="node">
<title>f4ba2493&#45;bc90&#45;4ec7&#45;9fae&#45;f0d44c18eb09</title>
<polygon fill="yellow" stroke="black" points="857.5,-36 431.5,-36 431.5,0 857.5,0 857.5,-36"/>
<text text-anchor="middle" x="644.5" y="-14.3" font-family="Helvetica,sans-Serif" font-size="14.00">⋯ Run GitHub Actions for `core/method/methods/motd.go`</text>
</g>
<!-- d58e2f87&#45;7b54&#45;486a&#45;ac87&#45;24237cf2b6b0&#45;&gt;f4ba2493&#45;bc90&#45;4ec7&#45;9fae&#45;f0d44c18eb09 -->
<g id="edge3" class="edge">
<title>d58e2f87&#45;7b54&#45;486a&#45;ac87&#45;24237cf2b6b0&#45;&gt;f4ba2493&#45;bc90&#45;4ec7&#45;9fae&#45;f0d44c18eb09</title>
<path fill="none" stroke="black" stroke-dasharray="5,2" d="M644.5,-72.72C644.5,-64.27 644.5,-54.89 644.5,-46.36"/>
<polygon fill="black" stroke="black" points="648,-46.15 644.5,-36.15 641,-46.15 648,-46.15"/>
</g>
<!-- 250d9ded&#45;493a&#45;4de5&#45;b17b&#45;5a76eee0bf5a -->
<g id="node6" class="node">
<title>250d9ded&#45;493a&#45;4de5&#45;b17b&#45;5a76eee0bf5a</title>
<ellipse fill="white" stroke="black" cx="1388.5" cy="-99.87" rx="54.39" ry="26.74"/>
<text text-anchor="middle" x="1388.5" y="-103.67" font-family="Helvetica,sans-Serif" font-size="14.00">▶ Modify</text>
<text text-anchor="middle" x="1388.5" y="-88.67" font-family="Helvetica,sans-Serif" font-size="14.00">main.go</text>
</g>
<!-- 52ea50e1&#45;da82&#45;482d&#45;abe4&#45;146714f16b49&#45;&gt;250d9ded&#45;493a&#45;4de5&#45;b17b&#45;5a76eee0bf5a -->
<g id="edge6" class="edge">
<title>52ea50e1&#45;da82&#45;482d&#45;abe4&#45;146714f16b49&#45;&gt;250d9ded&#45;493a&#45;4de5&#45;b17b&#45;5a76eee0bf5a</title>
<path fill="none" stroke="black" d="M1243.45,-99.87C1270.16,-99.87 1296.87,-99.87 1323.58,-99.87"/>
<polygon fill="black" stroke="black" points="1323.82,-103.37 1333.82,-99.87 1323.82,-96.37 1323.82,-103.37"/>
</g>
<!-- 2df0bdac&#45;1b16&#45;41ae&#45;bf85&#45;38e0ed56d74d -->
<g id="node9" class="node">
<title>2df0bdac&#45;1b16&#45;41ae&#45;bf85&#45;38e0ed56d74d</title>
<polygon fill="white" stroke="black" points="1292,-36 875,-36 875,0 1292,0 1292,-36"/>
<text text-anchor="middle" x="1083.5" y="-14.3" font-family="Helvetica,sans-Serif" font-size="14.00">▶ Run GitHub Actions for `core/method/methods/ping.go`</text>
</g>
<!-- 52ea50e1&#45;da82&#45;482d&#45;abe4&#45;146714f16b49&#45;&gt;2df0bdac&#45;1b16&#45;41ae&#45;bf85&#45;38e0ed56d74d -->
<g id="edge5" class="edge">
<title>52ea50e1&#45;da82&#45;482d&#45;abe4&#45;146714f16b49&#45;&gt;2df0bdac&#45;1b16&#45;41ae&#45;bf85&#45;38e0ed56d74d</title>
<path fill="none" stroke="black" stroke-dasharray="5,2" d="M1083.5,-72.72C1083.5,-64.27 1083.5,-54.89 1083.5,-46.36"/>
<polygon fill="black" stroke="black" points="1087,-46.15 1083.5,-36.15 1080,-46.15 1087,-46.15"/>
</g>
<!-- 250d9ded&#45;493a&#45;4de5&#45;b17b&#45;5a76eee0bf5a&#45;&gt;end -->
<g id="edge9" class="edge">
<title>250d9ded&#45;493a&#45;4de5&#45;b17b&#45;5a76eee0bf5a&#45;&gt;end</title>
<path fill="none" stroke="black" d="M1443.19,-99.87C1460.9,-99.87 1478.79,-99.87 1489.76,-99.87"/>
<polygon fill="black" stroke="black" points="1489.76,-103.37 1499.76,-99.87 1489.76,-96.37 1489.76,-103.37"/>
<text text-anchor="middle" x="1471.47" y="-106.67" font-family="Helvetica,sans-Serif" font-size="14.00">Finish</text>
</g>
<!-- 1d129fcb&#45;45ae&#45;4aab&#45;bd63&#45;31a903f93be4 -->
<g id="node10" class="node">
<title>1d129fcb&#45;45ae&#45;4aab&#45;bd63&#45;31a903f93be4</title>
<polygon fill="white" stroke="black" points="1574.5,-36 1310.5,-36 1310.5,0 1574.5,0 1574.5,-36"/>
<text text-anchor="middle" x="1442.5" y="-14.3" font-family="Helvetica,sans-Serif" font-size="14.00">▶ Run GitHub Actions for `main.go`</text>
</g>
<!-- 250d9ded&#45;493a&#45;4de5&#45;b17b&#45;5a76eee0bf5a&#45;&gt;1d129fcb&#45;45ae&#45;4aab&#45;bd63&#45;31a903f93be4 -->
<g id="edge7" class="edge">
<title>250d9ded&#45;493a&#45;4de5&#45;b17b&#45;5a76eee0bf5a&#45;&gt;1d129fcb&#45;45ae&#45;4aab&#45;bd63&#45;31a903f93be4</title>
<path fill="none" stroke="black" stroke-dasharray="5,2" d="M1405.29,-74.04C1411.58,-64.74 1418.73,-54.15 1425.08,-44.77"/>
<polygon fill="black" stroke="black" points="1428.15,-46.47 1430.86,-36.22 1422.35,-42.55 1428.15,-46.47"/>
</g>
</g>
</svg>
